M48
; DRILL file {KiCad 7.0.1} date Sat Aug 12 16:51:15 2023
; FORMAT={-:-/ absolute / inch / decimal}
; #@! TF.CreationDate,2023-08-12T16:51:15+02:00
; #@! TF.GenerationSoftware,Kicad,Pcbnew,7.0.1
; #@! TF.FileFunction,Plated,1,2,PTH
FMAT,2
INCH
; #@! TA.AperFunction,Plated,PTH,ViaDrill
T1C0.0157
; #@! TA.AperFunction,Plated,PTH,ComponentDrill
T2C0.0236
; #@! TA.AperFunction,Plated,PTH,ComponentDrill
T3C0.0315
; #@! TA.AperFunction,Plated,PTH,ComponentDrill
T4C0.0354
; #@! TA.AperFunction,Plated,PTH,ComponentDrill
T5C0.0394
%
G90
G05
T1
X5.39Y-3.36
X5.42Y-4.89
X5.49Y-3.13
X5.51Y-4.51
X5.56Y-4.33
X5.64Y-4.82
X5.68Y-4.71
X5.81Y-3.99
X5.84Y-4.61
X5.85Y-4.29
X5.97Y-4.17
X6.1Y-4.61
X6.13Y-4.91
X6.14Y-4.17
X6.23Y-4.49
X6.52Y-4.23
X6.57Y-4.13
X6.57Y-4.61
X6.82Y-3.89
T2
X5.6816Y-3.99
X5.7406Y-3.99
T3
X5.51Y-3.36
X5.51Y-3.76
X5.51Y-3.86
X5.51Y-4.26
X5.74Y-4.16
X5.74Y-4.26
X5.74Y-4.36
X5.74Y-4.46
X5.74Y-4.56
X5.74Y-4.66
X5.74Y-4.76
X5.74Y-4.86
X6.04Y-4.16
X6.04Y-4.26
X6.04Y-4.36
X6.04Y-4.46
X6.04Y-4.56
X6.04Y-4.66
X6.04Y-4.76
X6.04Y-4.86
T4
X5.56Y-3.16
X5.66Y-3.16
X5.78Y-3.16
X5.88Y-3.16
T5
X5.54Y-4.71
X5.54Y-4.81
X6.24Y-4.17
X6.24Y-4.27
X6.24Y-4.37
X6.24Y-4.66
X6.24Y-4.76
X6.24Y-4.86
X6.34Y-4.17
X6.34Y-4.27
X6.34Y-4.37
X6.34Y-4.66
X6.34Y-4.76
X6.34Y-4.86
X6.5402Y-4.06
X6.64Y-4.31
X6.64Y-4.41
X6.64Y-4.51
X6.64Y-4.61
X6.64Y-4.71
X6.64Y-4.81
X6.6402Y-4.06
T0
M30
