%TF.GenerationSoftware,KiCad,Pcbnew,7.0.1*%
%TF.CreationDate,2023-08-12T16:51:13+02:00*%
%TF.ProjectId,uprs232ttl,75707273-3233-4327-9474-6c2e6b696361,rev?*%
%TF.SameCoordinates,Original*%
%TF.FileFunction,Legend,Top*%
%TF.FilePolarity,Positive*%
%FSLAX46Y46*%
G04 Gerber Fmt 4.6, Leading zero omitted, Abs format (unit mm)*
G04 Created by KiCad (PCBNEW 7.0.1) date 2023-08-12 16:51:13*
%MOMM*%
%LPD*%
G01*
G04 APERTURE LIST*
%ADD10C,0.150000*%
%ADD11C,0.200000*%
%ADD12C,0.120000*%
G04 APERTURE END LIST*
D10*
X163322000Y-120015000D02*
X163322000Y-124333000D01*
X156210000Y-107569000D02*
X156210000Y-111887000D01*
X163322000Y-107569000D02*
X163322000Y-111887000D01*
X156210000Y-120015000D02*
X156210000Y-124333000D01*
X151907809Y-92714571D02*
X151860190Y-92666952D01*
X151860190Y-92666952D02*
X151764952Y-92524095D01*
X151764952Y-92524095D02*
X151717333Y-92428857D01*
X151717333Y-92428857D02*
X151669714Y-92286000D01*
X151669714Y-92286000D02*
X151622095Y-92047904D01*
X151622095Y-92047904D02*
X151622095Y-91857428D01*
X151622095Y-91857428D02*
X151669714Y-91619333D01*
X151669714Y-91619333D02*
X151717333Y-91476476D01*
X151717333Y-91476476D02*
X151764952Y-91381238D01*
X151764952Y-91381238D02*
X151860190Y-91238380D01*
X151860190Y-91238380D02*
X151907809Y-91190761D01*
X152717333Y-92286000D02*
X152622095Y-92333619D01*
X152622095Y-92333619D02*
X152431619Y-92333619D01*
X152431619Y-92333619D02*
X152336381Y-92286000D01*
X152336381Y-92286000D02*
X152288762Y-92238380D01*
X152288762Y-92238380D02*
X152241143Y-92143142D01*
X152241143Y-92143142D02*
X152241143Y-91857428D01*
X152241143Y-91857428D02*
X152288762Y-91762190D01*
X152288762Y-91762190D02*
X152336381Y-91714571D01*
X152336381Y-91714571D02*
X152431619Y-91666952D01*
X152431619Y-91666952D02*
X152622095Y-91666952D01*
X152622095Y-91666952D02*
X152717333Y-91714571D01*
X153050667Y-92714571D02*
X153098286Y-92666952D01*
X153098286Y-92666952D02*
X153193524Y-92524095D01*
X153193524Y-92524095D02*
X153241143Y-92428857D01*
X153241143Y-92428857D02*
X153288762Y-92286000D01*
X153288762Y-92286000D02*
X153336381Y-92047904D01*
X153336381Y-92047904D02*
X153336381Y-91857428D01*
X153336381Y-91857428D02*
X153288762Y-91619333D01*
X153288762Y-91619333D02*
X153241143Y-91476476D01*
X153241143Y-91476476D02*
X153193524Y-91381238D01*
X153193524Y-91381238D02*
X153098286Y-91238380D01*
X153098286Y-91238380D02*
X153050667Y-91190761D01*
X154526858Y-91428857D02*
X154574477Y-91381238D01*
X154574477Y-91381238D02*
X154669715Y-91333619D01*
X154669715Y-91333619D02*
X154907810Y-91333619D01*
X154907810Y-91333619D02*
X155003048Y-91381238D01*
X155003048Y-91381238D02*
X155050667Y-91428857D01*
X155050667Y-91428857D02*
X155098286Y-91524095D01*
X155098286Y-91524095D02*
X155098286Y-91619333D01*
X155098286Y-91619333D02*
X155050667Y-91762190D01*
X155050667Y-91762190D02*
X154479239Y-92333619D01*
X154479239Y-92333619D02*
X155098286Y-92333619D01*
X155717334Y-91333619D02*
X155812572Y-91333619D01*
X155812572Y-91333619D02*
X155907810Y-91381238D01*
X155907810Y-91381238D02*
X155955429Y-91428857D01*
X155955429Y-91428857D02*
X156003048Y-91524095D01*
X156003048Y-91524095D02*
X156050667Y-91714571D01*
X156050667Y-91714571D02*
X156050667Y-91952666D01*
X156050667Y-91952666D02*
X156003048Y-92143142D01*
X156003048Y-92143142D02*
X155955429Y-92238380D01*
X155955429Y-92238380D02*
X155907810Y-92286000D01*
X155907810Y-92286000D02*
X155812572Y-92333619D01*
X155812572Y-92333619D02*
X155717334Y-92333619D01*
X155717334Y-92333619D02*
X155622096Y-92286000D01*
X155622096Y-92286000D02*
X155574477Y-92238380D01*
X155574477Y-92238380D02*
X155526858Y-92143142D01*
X155526858Y-92143142D02*
X155479239Y-91952666D01*
X155479239Y-91952666D02*
X155479239Y-91714571D01*
X155479239Y-91714571D02*
X155526858Y-91524095D01*
X155526858Y-91524095D02*
X155574477Y-91428857D01*
X155574477Y-91428857D02*
X155622096Y-91381238D01*
X155622096Y-91381238D02*
X155717334Y-91333619D01*
X156431620Y-91428857D02*
X156479239Y-91381238D01*
X156479239Y-91381238D02*
X156574477Y-91333619D01*
X156574477Y-91333619D02*
X156812572Y-91333619D01*
X156812572Y-91333619D02*
X156907810Y-91381238D01*
X156907810Y-91381238D02*
X156955429Y-91428857D01*
X156955429Y-91428857D02*
X157003048Y-91524095D01*
X157003048Y-91524095D02*
X157003048Y-91619333D01*
X157003048Y-91619333D02*
X156955429Y-91762190D01*
X156955429Y-91762190D02*
X156384001Y-92333619D01*
X156384001Y-92333619D02*
X157003048Y-92333619D01*
X157336382Y-91333619D02*
X157955429Y-91333619D01*
X157955429Y-91333619D02*
X157622096Y-91714571D01*
X157622096Y-91714571D02*
X157764953Y-91714571D01*
X157764953Y-91714571D02*
X157860191Y-91762190D01*
X157860191Y-91762190D02*
X157907810Y-91809809D01*
X157907810Y-91809809D02*
X157955429Y-91905047D01*
X157955429Y-91905047D02*
X157955429Y-92143142D01*
X157955429Y-92143142D02*
X157907810Y-92238380D01*
X157907810Y-92238380D02*
X157860191Y-92286000D01*
X157860191Y-92286000D02*
X157764953Y-92333619D01*
X157764953Y-92333619D02*
X157479239Y-92333619D01*
X157479239Y-92333619D02*
X157384001Y-92286000D01*
X157384001Y-92286000D02*
X157336382Y-92238380D01*
X159145906Y-91809809D02*
X159479239Y-91809809D01*
X159622096Y-92333619D02*
X159145906Y-92333619D01*
X159145906Y-92333619D02*
X159145906Y-91333619D01*
X159145906Y-91333619D02*
X159622096Y-91333619D01*
X160050668Y-92333619D02*
X160050668Y-91666952D01*
X160050668Y-91857428D02*
X160098287Y-91762190D01*
X160098287Y-91762190D02*
X160145906Y-91714571D01*
X160145906Y-91714571D02*
X160241144Y-91666952D01*
X160241144Y-91666952D02*
X160336382Y-91666952D01*
X160669716Y-92333619D02*
X160669716Y-91666952D01*
X160669716Y-91333619D02*
X160622097Y-91381238D01*
X160622097Y-91381238D02*
X160669716Y-91428857D01*
X160669716Y-91428857D02*
X160717335Y-91381238D01*
X160717335Y-91381238D02*
X160669716Y-91333619D01*
X160669716Y-91333619D02*
X160669716Y-91428857D01*
X161574477Y-92286000D02*
X161479239Y-92333619D01*
X161479239Y-92333619D02*
X161288763Y-92333619D01*
X161288763Y-92333619D02*
X161193525Y-92286000D01*
X161193525Y-92286000D02*
X161145906Y-92238380D01*
X161145906Y-92238380D02*
X161098287Y-92143142D01*
X161098287Y-92143142D02*
X161098287Y-91857428D01*
X161098287Y-91857428D02*
X161145906Y-91762190D01*
X161145906Y-91762190D02*
X161193525Y-91714571D01*
X161193525Y-91714571D02*
X161288763Y-91666952D01*
X161288763Y-91666952D02*
X161479239Y-91666952D01*
X161479239Y-91666952D02*
X161574477Y-91714571D01*
X163241144Y-92333619D02*
X162764954Y-92333619D01*
X162764954Y-92333619D02*
X162764954Y-91333619D01*
X163574478Y-92333619D02*
X163574478Y-91666952D01*
X163574478Y-91333619D02*
X163526859Y-91381238D01*
X163526859Y-91381238D02*
X163574478Y-91428857D01*
X163574478Y-91428857D02*
X163622097Y-91381238D01*
X163622097Y-91381238D02*
X163574478Y-91333619D01*
X163574478Y-91333619D02*
X163574478Y-91428857D01*
X164050668Y-91666952D02*
X164050668Y-92333619D01*
X164050668Y-91762190D02*
X164098287Y-91714571D01*
X164098287Y-91714571D02*
X164193525Y-91666952D01*
X164193525Y-91666952D02*
X164336382Y-91666952D01*
X164336382Y-91666952D02*
X164431620Y-91714571D01*
X164431620Y-91714571D02*
X164479239Y-91809809D01*
X164479239Y-91809809D02*
X164479239Y-92333619D01*
X165384001Y-92333619D02*
X165384001Y-91333619D01*
X165384001Y-92286000D02*
X165288763Y-92333619D01*
X165288763Y-92333619D02*
X165098287Y-92333619D01*
X165098287Y-92333619D02*
X165003049Y-92286000D01*
X165003049Y-92286000D02*
X164955430Y-92238380D01*
X164955430Y-92238380D02*
X164907811Y-92143142D01*
X164907811Y-92143142D02*
X164907811Y-91857428D01*
X164907811Y-91857428D02*
X164955430Y-91762190D01*
X164955430Y-91762190D02*
X165003049Y-91714571D01*
X165003049Y-91714571D02*
X165098287Y-91666952D01*
X165098287Y-91666952D02*
X165288763Y-91666952D01*
X165288763Y-91666952D02*
X165384001Y-91714571D01*
X137413904Y-123829619D02*
X136842476Y-123829619D01*
X137128190Y-123829619D02*
X137128190Y-122829619D01*
X137128190Y-122829619D02*
X137032952Y-122972476D01*
X137032952Y-122972476D02*
X136937714Y-123067714D01*
X136937714Y-123067714D02*
X136842476Y-123115333D01*
D11*
X165195238Y-119019619D02*
X165766666Y-119019619D01*
X165480952Y-120019619D02*
X165480952Y-119019619D01*
X166004762Y-120019619D02*
X166528571Y-119352952D01*
X166004762Y-119352952D02*
X166528571Y-120019619D01*
X165655523Y-117479619D02*
X165322190Y-117003428D01*
X165084095Y-117479619D02*
X165084095Y-116479619D01*
X165084095Y-116479619D02*
X165465047Y-116479619D01*
X165465047Y-116479619D02*
X165560285Y-116527238D01*
X165560285Y-116527238D02*
X165607904Y-116574857D01*
X165607904Y-116574857D02*
X165655523Y-116670095D01*
X165655523Y-116670095D02*
X165655523Y-116812952D01*
X165655523Y-116812952D02*
X165607904Y-116908190D01*
X165607904Y-116908190D02*
X165560285Y-116955809D01*
X165560285Y-116955809D02*
X165465047Y-117003428D01*
X165465047Y-117003428D02*
X165084095Y-117003428D01*
X165988857Y-117479619D02*
X166512666Y-116812952D01*
X165988857Y-116812952D02*
X166512666Y-117479619D01*
D10*
X159813523Y-89539619D02*
X159480190Y-89063428D01*
X159242095Y-89539619D02*
X159242095Y-88539619D01*
X159242095Y-88539619D02*
X159623047Y-88539619D01*
X159623047Y-88539619D02*
X159718285Y-88587238D01*
X159718285Y-88587238D02*
X159765904Y-88634857D01*
X159765904Y-88634857D02*
X159813523Y-88730095D01*
X159813523Y-88730095D02*
X159813523Y-88872952D01*
X159813523Y-88872952D02*
X159765904Y-88968190D01*
X159765904Y-88968190D02*
X159718285Y-89015809D01*
X159718285Y-89015809D02*
X159623047Y-89063428D01*
X159623047Y-89063428D02*
X159242095Y-89063428D01*
X160623047Y-89492000D02*
X160527809Y-89539619D01*
X160527809Y-89539619D02*
X160337333Y-89539619D01*
X160337333Y-89539619D02*
X160242095Y-89492000D01*
X160242095Y-89492000D02*
X160194476Y-89396761D01*
X160194476Y-89396761D02*
X160194476Y-89015809D01*
X160194476Y-89015809D02*
X160242095Y-88920571D01*
X160242095Y-88920571D02*
X160337333Y-88872952D01*
X160337333Y-88872952D02*
X160527809Y-88872952D01*
X160527809Y-88872952D02*
X160623047Y-88920571D01*
X160623047Y-88920571D02*
X160670666Y-89015809D01*
X160670666Y-89015809D02*
X160670666Y-89111047D01*
X160670666Y-89111047D02*
X160194476Y-89206285D01*
X161004000Y-88872952D02*
X161242095Y-89539619D01*
X161242095Y-89539619D02*
X161480190Y-88872952D01*
X162956381Y-89015809D02*
X163099238Y-89063428D01*
X163099238Y-89063428D02*
X163146857Y-89111047D01*
X163146857Y-89111047D02*
X163194476Y-89206285D01*
X163194476Y-89206285D02*
X163194476Y-89349142D01*
X163194476Y-89349142D02*
X163146857Y-89444380D01*
X163146857Y-89444380D02*
X163099238Y-89492000D01*
X163099238Y-89492000D02*
X163004000Y-89539619D01*
X163004000Y-89539619D02*
X162623048Y-89539619D01*
X162623048Y-89539619D02*
X162623048Y-88539619D01*
X162623048Y-88539619D02*
X162956381Y-88539619D01*
X162956381Y-88539619D02*
X163051619Y-88587238D01*
X163051619Y-88587238D02*
X163099238Y-88634857D01*
X163099238Y-88634857D02*
X163146857Y-88730095D01*
X163146857Y-88730095D02*
X163146857Y-88825333D01*
X163146857Y-88825333D02*
X163099238Y-88920571D01*
X163099238Y-88920571D02*
X163051619Y-88968190D01*
X163051619Y-88968190D02*
X162956381Y-89015809D01*
X162956381Y-89015809D02*
X162623048Y-89015809D01*
D11*
X164068095Y-114558666D02*
X164830000Y-114558666D01*
X164449047Y-114939619D02*
X164449047Y-114177714D01*
X165782380Y-113939619D02*
X165306190Y-113939619D01*
X165306190Y-113939619D02*
X165258571Y-114415809D01*
X165258571Y-114415809D02*
X165306190Y-114368190D01*
X165306190Y-114368190D02*
X165401428Y-114320571D01*
X165401428Y-114320571D02*
X165639523Y-114320571D01*
X165639523Y-114320571D02*
X165734761Y-114368190D01*
X165734761Y-114368190D02*
X165782380Y-114415809D01*
X165782380Y-114415809D02*
X165829999Y-114511047D01*
X165829999Y-114511047D02*
X165829999Y-114749142D01*
X165829999Y-114749142D02*
X165782380Y-114844380D01*
X165782380Y-114844380D02*
X165734761Y-114892000D01*
X165734761Y-114892000D02*
X165639523Y-114939619D01*
X165639523Y-114939619D02*
X165401428Y-114939619D01*
X165401428Y-114939619D02*
X165306190Y-114892000D01*
X165306190Y-114892000D02*
X165258571Y-114844380D01*
X166163333Y-114272952D02*
X166401428Y-114939619D01*
X166401428Y-114939619D02*
X166639523Y-114272952D01*
X165147523Y-122464380D02*
X165099904Y-122512000D01*
X165099904Y-122512000D02*
X164957047Y-122559619D01*
X164957047Y-122559619D02*
X164861809Y-122559619D01*
X164861809Y-122559619D02*
X164718952Y-122512000D01*
X164718952Y-122512000D02*
X164623714Y-122416761D01*
X164623714Y-122416761D02*
X164576095Y-122321523D01*
X164576095Y-122321523D02*
X164528476Y-122131047D01*
X164528476Y-122131047D02*
X164528476Y-121988190D01*
X164528476Y-121988190D02*
X164576095Y-121797714D01*
X164576095Y-121797714D02*
X164623714Y-121702476D01*
X164623714Y-121702476D02*
X164718952Y-121607238D01*
X164718952Y-121607238D02*
X164861809Y-121559619D01*
X164861809Y-121559619D02*
X164957047Y-121559619D01*
X164957047Y-121559619D02*
X165099904Y-121607238D01*
X165099904Y-121607238D02*
X165147523Y-121654857D01*
X165433238Y-121892952D02*
X165814190Y-121892952D01*
X165576095Y-121559619D02*
X165576095Y-122416761D01*
X165576095Y-122416761D02*
X165623714Y-122512000D01*
X165623714Y-122512000D02*
X165718952Y-122559619D01*
X165718952Y-122559619D02*
X165814190Y-122559619D01*
X166099905Y-122512000D02*
X166195143Y-122559619D01*
X166195143Y-122559619D02*
X166385619Y-122559619D01*
X166385619Y-122559619D02*
X166480857Y-122512000D01*
X166480857Y-122512000D02*
X166528476Y-122416761D01*
X166528476Y-122416761D02*
X166528476Y-122369142D01*
X166528476Y-122369142D02*
X166480857Y-122273904D01*
X166480857Y-122273904D02*
X166385619Y-122226285D01*
X166385619Y-122226285D02*
X166242762Y-122226285D01*
X166242762Y-122226285D02*
X166147524Y-122178666D01*
X166147524Y-122178666D02*
X166099905Y-122083428D01*
X166099905Y-122083428D02*
X166099905Y-122035809D01*
X166099905Y-122035809D02*
X166147524Y-121940571D01*
X166147524Y-121940571D02*
X166242762Y-121892952D01*
X166242762Y-121892952D02*
X166385619Y-121892952D01*
X166385619Y-121892952D02*
X166480857Y-121940571D01*
X165147523Y-112399619D02*
X164814190Y-111923428D01*
X164576095Y-112399619D02*
X164576095Y-111399619D01*
X164576095Y-111399619D02*
X164957047Y-111399619D01*
X164957047Y-111399619D02*
X165052285Y-111447238D01*
X165052285Y-111447238D02*
X165099904Y-111494857D01*
X165099904Y-111494857D02*
X165147523Y-111590095D01*
X165147523Y-111590095D02*
X165147523Y-111732952D01*
X165147523Y-111732952D02*
X165099904Y-111828190D01*
X165099904Y-111828190D02*
X165052285Y-111875809D01*
X165052285Y-111875809D02*
X164957047Y-111923428D01*
X164957047Y-111923428D02*
X164576095Y-111923428D01*
X165433238Y-111732952D02*
X165814190Y-111732952D01*
X165576095Y-111399619D02*
X165576095Y-112256761D01*
X165576095Y-112256761D02*
X165623714Y-112352000D01*
X165623714Y-112352000D02*
X165718952Y-112399619D01*
X165718952Y-112399619D02*
X165814190Y-112399619D01*
X166099905Y-112352000D02*
X166195143Y-112399619D01*
X166195143Y-112399619D02*
X166385619Y-112399619D01*
X166385619Y-112399619D02*
X166480857Y-112352000D01*
X166480857Y-112352000D02*
X166528476Y-112256761D01*
X166528476Y-112256761D02*
X166528476Y-112209142D01*
X166528476Y-112209142D02*
X166480857Y-112113904D01*
X166480857Y-112113904D02*
X166385619Y-112066285D01*
X166385619Y-112066285D02*
X166242762Y-112066285D01*
X166242762Y-112066285D02*
X166147524Y-112018666D01*
X166147524Y-112018666D02*
X166099905Y-111923428D01*
X166099905Y-111923428D02*
X166099905Y-111875809D01*
X166099905Y-111875809D02*
X166147524Y-111780571D01*
X166147524Y-111780571D02*
X166242762Y-111732952D01*
X166242762Y-111732952D02*
X166385619Y-111732952D01*
X166385619Y-111732952D02*
X166480857Y-111780571D01*
D10*
X148685238Y-86919619D02*
X149256666Y-86919619D01*
X148970952Y-87919619D02*
X148970952Y-86919619D01*
X149447143Y-86919619D02*
X150018571Y-86919619D01*
X149732857Y-87919619D02*
X149732857Y-86919619D01*
X150828095Y-87919619D02*
X150351905Y-87919619D01*
X150351905Y-87919619D02*
X150351905Y-86919619D01*
X151875715Y-87872000D02*
X152018572Y-87919619D01*
X152018572Y-87919619D02*
X152256667Y-87919619D01*
X152256667Y-87919619D02*
X152351905Y-87872000D01*
X152351905Y-87872000D02*
X152399524Y-87824380D01*
X152399524Y-87824380D02*
X152447143Y-87729142D01*
X152447143Y-87729142D02*
X152447143Y-87633904D01*
X152447143Y-87633904D02*
X152399524Y-87538666D01*
X152399524Y-87538666D02*
X152351905Y-87491047D01*
X152351905Y-87491047D02*
X152256667Y-87443428D01*
X152256667Y-87443428D02*
X152066191Y-87395809D01*
X152066191Y-87395809D02*
X151970953Y-87348190D01*
X151970953Y-87348190D02*
X151923334Y-87300571D01*
X151923334Y-87300571D02*
X151875715Y-87205333D01*
X151875715Y-87205333D02*
X151875715Y-87110095D01*
X151875715Y-87110095D02*
X151923334Y-87014857D01*
X151923334Y-87014857D02*
X151970953Y-86967238D01*
X151970953Y-86967238D02*
X152066191Y-86919619D01*
X152066191Y-86919619D02*
X152304286Y-86919619D01*
X152304286Y-86919619D02*
X152447143Y-86967238D01*
X153256667Y-87872000D02*
X153161429Y-87919619D01*
X153161429Y-87919619D02*
X152970953Y-87919619D01*
X152970953Y-87919619D02*
X152875715Y-87872000D01*
X152875715Y-87872000D02*
X152828096Y-87776761D01*
X152828096Y-87776761D02*
X152828096Y-87395809D01*
X152828096Y-87395809D02*
X152875715Y-87300571D01*
X152875715Y-87300571D02*
X152970953Y-87252952D01*
X152970953Y-87252952D02*
X153161429Y-87252952D01*
X153161429Y-87252952D02*
X153256667Y-87300571D01*
X153256667Y-87300571D02*
X153304286Y-87395809D01*
X153304286Y-87395809D02*
X153304286Y-87491047D01*
X153304286Y-87491047D02*
X152828096Y-87586285D01*
X153732858Y-87919619D02*
X153732858Y-87252952D01*
X153732858Y-87443428D02*
X153780477Y-87348190D01*
X153780477Y-87348190D02*
X153828096Y-87300571D01*
X153828096Y-87300571D02*
X153923334Y-87252952D01*
X153923334Y-87252952D02*
X154018572Y-87252952D01*
X154351906Y-87919619D02*
X154351906Y-87252952D01*
X154351906Y-86919619D02*
X154304287Y-86967238D01*
X154304287Y-86967238D02*
X154351906Y-87014857D01*
X154351906Y-87014857D02*
X154399525Y-86967238D01*
X154399525Y-86967238D02*
X154351906Y-86919619D01*
X154351906Y-86919619D02*
X154351906Y-87014857D01*
X155256667Y-87919619D02*
X155256667Y-87395809D01*
X155256667Y-87395809D02*
X155209048Y-87300571D01*
X155209048Y-87300571D02*
X155113810Y-87252952D01*
X155113810Y-87252952D02*
X154923334Y-87252952D01*
X154923334Y-87252952D02*
X154828096Y-87300571D01*
X155256667Y-87872000D02*
X155161429Y-87919619D01*
X155161429Y-87919619D02*
X154923334Y-87919619D01*
X154923334Y-87919619D02*
X154828096Y-87872000D01*
X154828096Y-87872000D02*
X154780477Y-87776761D01*
X154780477Y-87776761D02*
X154780477Y-87681523D01*
X154780477Y-87681523D02*
X154828096Y-87586285D01*
X154828096Y-87586285D02*
X154923334Y-87538666D01*
X154923334Y-87538666D02*
X155161429Y-87538666D01*
X155161429Y-87538666D02*
X155256667Y-87491047D01*
X155875715Y-87919619D02*
X155780477Y-87872000D01*
X155780477Y-87872000D02*
X155732858Y-87776761D01*
X155732858Y-87776761D02*
X155732858Y-86919619D01*
X156970954Y-87633904D02*
X157447144Y-87633904D01*
X156875716Y-87919619D02*
X157209049Y-86919619D01*
X157209049Y-86919619D02*
X157542382Y-87919619D01*
X158304287Y-87919619D02*
X158304287Y-86919619D01*
X158304287Y-87872000D02*
X158209049Y-87919619D01*
X158209049Y-87919619D02*
X158018573Y-87919619D01*
X158018573Y-87919619D02*
X157923335Y-87872000D01*
X157923335Y-87872000D02*
X157875716Y-87824380D01*
X157875716Y-87824380D02*
X157828097Y-87729142D01*
X157828097Y-87729142D02*
X157828097Y-87443428D01*
X157828097Y-87443428D02*
X157875716Y-87348190D01*
X157875716Y-87348190D02*
X157923335Y-87300571D01*
X157923335Y-87300571D02*
X158018573Y-87252952D01*
X158018573Y-87252952D02*
X158209049Y-87252952D01*
X158209049Y-87252952D02*
X158304287Y-87300571D01*
X159209049Y-87919619D02*
X159209049Y-87395809D01*
X159209049Y-87395809D02*
X159161430Y-87300571D01*
X159161430Y-87300571D02*
X159066192Y-87252952D01*
X159066192Y-87252952D02*
X158875716Y-87252952D01*
X158875716Y-87252952D02*
X158780478Y-87300571D01*
X159209049Y-87872000D02*
X159113811Y-87919619D01*
X159113811Y-87919619D02*
X158875716Y-87919619D01*
X158875716Y-87919619D02*
X158780478Y-87872000D01*
X158780478Y-87872000D02*
X158732859Y-87776761D01*
X158732859Y-87776761D02*
X158732859Y-87681523D01*
X158732859Y-87681523D02*
X158780478Y-87586285D01*
X158780478Y-87586285D02*
X158875716Y-87538666D01*
X158875716Y-87538666D02*
X159113811Y-87538666D01*
X159113811Y-87538666D02*
X159209049Y-87491047D01*
X159685240Y-87252952D02*
X159685240Y-88252952D01*
X159685240Y-87300571D02*
X159780478Y-87252952D01*
X159780478Y-87252952D02*
X159970954Y-87252952D01*
X159970954Y-87252952D02*
X160066192Y-87300571D01*
X160066192Y-87300571D02*
X160113811Y-87348190D01*
X160113811Y-87348190D02*
X160161430Y-87443428D01*
X160161430Y-87443428D02*
X160161430Y-87729142D01*
X160161430Y-87729142D02*
X160113811Y-87824380D01*
X160113811Y-87824380D02*
X160066192Y-87872000D01*
X160066192Y-87872000D02*
X159970954Y-87919619D01*
X159970954Y-87919619D02*
X159780478Y-87919619D01*
X159780478Y-87919619D02*
X159685240Y-87872000D01*
X160447145Y-87252952D02*
X160828097Y-87252952D01*
X160590002Y-86919619D02*
X160590002Y-87776761D01*
X160590002Y-87776761D02*
X160637621Y-87872000D01*
X160637621Y-87872000D02*
X160732859Y-87919619D01*
X160732859Y-87919619D02*
X160828097Y-87919619D01*
X161542383Y-87872000D02*
X161447145Y-87919619D01*
X161447145Y-87919619D02*
X161256669Y-87919619D01*
X161256669Y-87919619D02*
X161161431Y-87872000D01*
X161161431Y-87872000D02*
X161113812Y-87776761D01*
X161113812Y-87776761D02*
X161113812Y-87395809D01*
X161113812Y-87395809D02*
X161161431Y-87300571D01*
X161161431Y-87300571D02*
X161256669Y-87252952D01*
X161256669Y-87252952D02*
X161447145Y-87252952D01*
X161447145Y-87252952D02*
X161542383Y-87300571D01*
X161542383Y-87300571D02*
X161590002Y-87395809D01*
X161590002Y-87395809D02*
X161590002Y-87491047D01*
X161590002Y-87491047D02*
X161113812Y-87586285D01*
X162018574Y-87919619D02*
X162018574Y-87252952D01*
X162018574Y-87443428D02*
X162066193Y-87348190D01*
X162066193Y-87348190D02*
X162113812Y-87300571D01*
X162113812Y-87300571D02*
X162209050Y-87252952D01*
X162209050Y-87252952D02*
X162304288Y-87252952D01*
X149875714Y-89920571D02*
X149828095Y-89872952D01*
X149828095Y-89872952D02*
X149732857Y-89730095D01*
X149732857Y-89730095D02*
X149685238Y-89634857D01*
X149685238Y-89634857D02*
X149637619Y-89492000D01*
X149637619Y-89492000D02*
X149590000Y-89253904D01*
X149590000Y-89253904D02*
X149590000Y-89063428D01*
X149590000Y-89063428D02*
X149637619Y-88825333D01*
X149637619Y-88825333D02*
X149685238Y-88682476D01*
X149685238Y-88682476D02*
X149732857Y-88587238D01*
X149732857Y-88587238D02*
X149828095Y-88444380D01*
X149828095Y-88444380D02*
X149875714Y-88396761D01*
X150209048Y-89492000D02*
X150351905Y-89539619D01*
X150351905Y-89539619D02*
X150590000Y-89539619D01*
X150590000Y-89539619D02*
X150685238Y-89492000D01*
X150685238Y-89492000D02*
X150732857Y-89444380D01*
X150732857Y-89444380D02*
X150780476Y-89349142D01*
X150780476Y-89349142D02*
X150780476Y-89253904D01*
X150780476Y-89253904D02*
X150732857Y-89158666D01*
X150732857Y-89158666D02*
X150685238Y-89111047D01*
X150685238Y-89111047D02*
X150590000Y-89063428D01*
X150590000Y-89063428D02*
X150399524Y-89015809D01*
X150399524Y-89015809D02*
X150304286Y-88968190D01*
X150304286Y-88968190D02*
X150256667Y-88920571D01*
X150256667Y-88920571D02*
X150209048Y-88825333D01*
X150209048Y-88825333D02*
X150209048Y-88730095D01*
X150209048Y-88730095D02*
X150256667Y-88634857D01*
X150256667Y-88634857D02*
X150304286Y-88587238D01*
X150304286Y-88587238D02*
X150399524Y-88539619D01*
X150399524Y-88539619D02*
X150637619Y-88539619D01*
X150637619Y-88539619D02*
X150780476Y-88587238D01*
X151542381Y-89015809D02*
X151209048Y-89015809D01*
X151209048Y-89539619D02*
X151209048Y-88539619D01*
X151209048Y-88539619D02*
X151685238Y-88539619D01*
X152637619Y-89539619D02*
X152304286Y-89063428D01*
X152066191Y-89539619D02*
X152066191Y-88539619D01*
X152066191Y-88539619D02*
X152447143Y-88539619D01*
X152447143Y-88539619D02*
X152542381Y-88587238D01*
X152542381Y-88587238D02*
X152590000Y-88634857D01*
X152590000Y-88634857D02*
X152637619Y-88730095D01*
X152637619Y-88730095D02*
X152637619Y-88872952D01*
X152637619Y-88872952D02*
X152590000Y-88968190D01*
X152590000Y-88968190D02*
X152542381Y-89015809D01*
X152542381Y-89015809D02*
X152447143Y-89063428D01*
X152447143Y-89063428D02*
X152066191Y-89063428D01*
X153066191Y-89015809D02*
X153399524Y-89015809D01*
X153542381Y-89539619D02*
X153066191Y-89539619D01*
X153066191Y-89539619D02*
X153066191Y-88539619D01*
X153066191Y-88539619D02*
X153542381Y-88539619D01*
X153732858Y-89634857D02*
X154494762Y-89634857D01*
X154923334Y-88539619D02*
X155018572Y-88539619D01*
X155018572Y-88539619D02*
X155113810Y-88587238D01*
X155113810Y-88587238D02*
X155161429Y-88634857D01*
X155161429Y-88634857D02*
X155209048Y-88730095D01*
X155209048Y-88730095D02*
X155256667Y-88920571D01*
X155256667Y-88920571D02*
X155256667Y-89158666D01*
X155256667Y-89158666D02*
X155209048Y-89349142D01*
X155209048Y-89349142D02*
X155161429Y-89444380D01*
X155161429Y-89444380D02*
X155113810Y-89492000D01*
X155113810Y-89492000D02*
X155018572Y-89539619D01*
X155018572Y-89539619D02*
X154923334Y-89539619D01*
X154923334Y-89539619D02*
X154828096Y-89492000D01*
X154828096Y-89492000D02*
X154780477Y-89444380D01*
X154780477Y-89444380D02*
X154732858Y-89349142D01*
X154732858Y-89349142D02*
X154685239Y-89158666D01*
X154685239Y-89158666D02*
X154685239Y-88920571D01*
X154685239Y-88920571D02*
X154732858Y-88730095D01*
X154732858Y-88730095D02*
X154780477Y-88634857D01*
X154780477Y-88634857D02*
X154828096Y-88587238D01*
X154828096Y-88587238D02*
X154923334Y-88539619D01*
X155875715Y-88539619D02*
X155970953Y-88539619D01*
X155970953Y-88539619D02*
X156066191Y-88587238D01*
X156066191Y-88587238D02*
X156113810Y-88634857D01*
X156113810Y-88634857D02*
X156161429Y-88730095D01*
X156161429Y-88730095D02*
X156209048Y-88920571D01*
X156209048Y-88920571D02*
X156209048Y-89158666D01*
X156209048Y-89158666D02*
X156161429Y-89349142D01*
X156161429Y-89349142D02*
X156113810Y-89444380D01*
X156113810Y-89444380D02*
X156066191Y-89492000D01*
X156066191Y-89492000D02*
X155970953Y-89539619D01*
X155970953Y-89539619D02*
X155875715Y-89539619D01*
X155875715Y-89539619D02*
X155780477Y-89492000D01*
X155780477Y-89492000D02*
X155732858Y-89444380D01*
X155732858Y-89444380D02*
X155685239Y-89349142D01*
X155685239Y-89349142D02*
X155637620Y-89158666D01*
X155637620Y-89158666D02*
X155637620Y-88920571D01*
X155637620Y-88920571D02*
X155685239Y-88730095D01*
X155685239Y-88730095D02*
X155732858Y-88634857D01*
X155732858Y-88634857D02*
X155780477Y-88587238D01*
X155780477Y-88587238D02*
X155875715Y-88539619D01*
X157161429Y-89539619D02*
X156590001Y-89539619D01*
X156875715Y-89539619D02*
X156875715Y-88539619D01*
X156875715Y-88539619D02*
X156780477Y-88682476D01*
X156780477Y-88682476D02*
X156685239Y-88777714D01*
X156685239Y-88777714D02*
X156590001Y-88825333D01*
X157494763Y-89920571D02*
X157542382Y-89872952D01*
X157542382Y-89872952D02*
X157637620Y-89730095D01*
X157637620Y-89730095D02*
X157685239Y-89634857D01*
X157685239Y-89634857D02*
X157732858Y-89492000D01*
X157732858Y-89492000D02*
X157780477Y-89253904D01*
X157780477Y-89253904D02*
X157780477Y-89063428D01*
X157780477Y-89063428D02*
X157732858Y-88825333D01*
X157732858Y-88825333D02*
X157685239Y-88682476D01*
X157685239Y-88682476D02*
X157637620Y-88587238D01*
X157637620Y-88587238D02*
X157542382Y-88444380D01*
X157542382Y-88444380D02*
X157494763Y-88396761D01*
X137413904Y-79887619D02*
X136842476Y-79887619D01*
X137128190Y-79887619D02*
X137128190Y-78887619D01*
X137128190Y-78887619D02*
X137032952Y-79030476D01*
X137032952Y-79030476D02*
X136937714Y-79125714D01*
X136937714Y-79125714D02*
X136842476Y-79173333D01*
X137794857Y-78982857D02*
X137842476Y-78935238D01*
X137842476Y-78935238D02*
X137937714Y-78887619D01*
X137937714Y-78887619D02*
X138175809Y-78887619D01*
X138175809Y-78887619D02*
X138271047Y-78935238D01*
X138271047Y-78935238D02*
X138318666Y-78982857D01*
X138318666Y-78982857D02*
X138366285Y-79078095D01*
X138366285Y-79078095D02*
X138366285Y-79173333D01*
X138366285Y-79173333D02*
X138318666Y-79316190D01*
X138318666Y-79316190D02*
X137747238Y-79887619D01*
X137747238Y-79887619D02*
X138366285Y-79887619D01*
D11*
X164845904Y-108907238D02*
X164750666Y-108859619D01*
X164750666Y-108859619D02*
X164607809Y-108859619D01*
X164607809Y-108859619D02*
X164464952Y-108907238D01*
X164464952Y-108907238D02*
X164369714Y-109002476D01*
X164369714Y-109002476D02*
X164322095Y-109097714D01*
X164322095Y-109097714D02*
X164274476Y-109288190D01*
X164274476Y-109288190D02*
X164274476Y-109431047D01*
X164274476Y-109431047D02*
X164322095Y-109621523D01*
X164322095Y-109621523D02*
X164369714Y-109716761D01*
X164369714Y-109716761D02*
X164464952Y-109812000D01*
X164464952Y-109812000D02*
X164607809Y-109859619D01*
X164607809Y-109859619D02*
X164703047Y-109859619D01*
X164703047Y-109859619D02*
X164845904Y-109812000D01*
X164845904Y-109812000D02*
X164893523Y-109764380D01*
X164893523Y-109764380D02*
X164893523Y-109431047D01*
X164893523Y-109431047D02*
X164703047Y-109431047D01*
X165322095Y-109192952D02*
X165322095Y-109859619D01*
X165322095Y-109288190D02*
X165369714Y-109240571D01*
X165369714Y-109240571D02*
X165464952Y-109192952D01*
X165464952Y-109192952D02*
X165607809Y-109192952D01*
X165607809Y-109192952D02*
X165703047Y-109240571D01*
X165703047Y-109240571D02*
X165750666Y-109335809D01*
X165750666Y-109335809D02*
X165750666Y-109859619D01*
X166655428Y-109859619D02*
X166655428Y-108859619D01*
X166655428Y-109812000D02*
X166560190Y-109859619D01*
X166560190Y-109859619D02*
X166369714Y-109859619D01*
X166369714Y-109859619D02*
X166274476Y-109812000D01*
X166274476Y-109812000D02*
X166226857Y-109764380D01*
X166226857Y-109764380D02*
X166179238Y-109669142D01*
X166179238Y-109669142D02*
X166179238Y-109383428D01*
X166179238Y-109383428D02*
X166226857Y-109288190D01*
X166226857Y-109288190D02*
X166274476Y-109240571D01*
X166274476Y-109240571D02*
X166369714Y-109192952D01*
X166369714Y-109192952D02*
X166560190Y-109192952D01*
X166560190Y-109192952D02*
X166655428Y-109240571D01*
D10*
%TO.C,J5*%
X159178666Y-101062619D02*
X159178666Y-101776904D01*
X159178666Y-101776904D02*
X159131047Y-101919761D01*
X159131047Y-101919761D02*
X159035809Y-102015000D01*
X159035809Y-102015000D02*
X158892952Y-102062619D01*
X158892952Y-102062619D02*
X158797714Y-102062619D01*
X160131047Y-101062619D02*
X159654857Y-101062619D01*
X159654857Y-101062619D02*
X159607238Y-101538809D01*
X159607238Y-101538809D02*
X159654857Y-101491190D01*
X159654857Y-101491190D02*
X159750095Y-101443571D01*
X159750095Y-101443571D02*
X159988190Y-101443571D01*
X159988190Y-101443571D02*
X160083428Y-101491190D01*
X160083428Y-101491190D02*
X160131047Y-101538809D01*
X160131047Y-101538809D02*
X160178666Y-101634047D01*
X160178666Y-101634047D02*
X160178666Y-101872142D01*
X160178666Y-101872142D02*
X160131047Y-101967380D01*
X160131047Y-101967380D02*
X160083428Y-102015000D01*
X160083428Y-102015000D02*
X159988190Y-102062619D01*
X159988190Y-102062619D02*
X159750095Y-102062619D01*
X159750095Y-102062619D02*
X159654857Y-102015000D01*
X159654857Y-102015000D02*
X159607238Y-101967380D01*
X157337428Y-103730380D02*
X157289809Y-103778000D01*
X157289809Y-103778000D02*
X157146952Y-103825619D01*
X157146952Y-103825619D02*
X157051714Y-103825619D01*
X157051714Y-103825619D02*
X156908857Y-103778000D01*
X156908857Y-103778000D02*
X156813619Y-103682761D01*
X156813619Y-103682761D02*
X156766000Y-103587523D01*
X156766000Y-103587523D02*
X156718381Y-103397047D01*
X156718381Y-103397047D02*
X156718381Y-103254190D01*
X156718381Y-103254190D02*
X156766000Y-103063714D01*
X156766000Y-103063714D02*
X156813619Y-102968476D01*
X156813619Y-102968476D02*
X156908857Y-102873238D01*
X156908857Y-102873238D02*
X157051714Y-102825619D01*
X157051714Y-102825619D02*
X157146952Y-102825619D01*
X157146952Y-102825619D02*
X157289809Y-102873238D01*
X157289809Y-102873238D02*
X157337428Y-102920857D01*
X157623143Y-102825619D02*
X158194571Y-102825619D01*
X157908857Y-103825619D02*
X157908857Y-102825619D01*
X158480286Y-103778000D02*
X158623143Y-103825619D01*
X158623143Y-103825619D02*
X158861238Y-103825619D01*
X158861238Y-103825619D02*
X158956476Y-103778000D01*
X158956476Y-103778000D02*
X159004095Y-103730380D01*
X159004095Y-103730380D02*
X159051714Y-103635142D01*
X159051714Y-103635142D02*
X159051714Y-103539904D01*
X159051714Y-103539904D02*
X159004095Y-103444666D01*
X159004095Y-103444666D02*
X158956476Y-103397047D01*
X158956476Y-103397047D02*
X158861238Y-103349428D01*
X158861238Y-103349428D02*
X158670762Y-103301809D01*
X158670762Y-103301809D02*
X158575524Y-103254190D01*
X158575524Y-103254190D02*
X158527905Y-103206571D01*
X158527905Y-103206571D02*
X158480286Y-103111333D01*
X158480286Y-103111333D02*
X158480286Y-103016095D01*
X158480286Y-103016095D02*
X158527905Y-102920857D01*
X158527905Y-102920857D02*
X158575524Y-102873238D01*
X158575524Y-102873238D02*
X158670762Y-102825619D01*
X158670762Y-102825619D02*
X158908857Y-102825619D01*
X158908857Y-102825619D02*
X159051714Y-102873238D01*
X160194571Y-102778000D02*
X159337429Y-104063714D01*
X161099333Y-103825619D02*
X160766000Y-103349428D01*
X160527905Y-103825619D02*
X160527905Y-102825619D01*
X160527905Y-102825619D02*
X160908857Y-102825619D01*
X160908857Y-102825619D02*
X161004095Y-102873238D01*
X161004095Y-102873238D02*
X161051714Y-102920857D01*
X161051714Y-102920857D02*
X161099333Y-103016095D01*
X161099333Y-103016095D02*
X161099333Y-103158952D01*
X161099333Y-103158952D02*
X161051714Y-103254190D01*
X161051714Y-103254190D02*
X161004095Y-103301809D01*
X161004095Y-103301809D02*
X160908857Y-103349428D01*
X160908857Y-103349428D02*
X160527905Y-103349428D01*
X161385048Y-102825619D02*
X161956476Y-102825619D01*
X161670762Y-103825619D02*
X161670762Y-102825619D01*
X162242191Y-103778000D02*
X162385048Y-103825619D01*
X162385048Y-103825619D02*
X162623143Y-103825619D01*
X162623143Y-103825619D02*
X162718381Y-103778000D01*
X162718381Y-103778000D02*
X162766000Y-103730380D01*
X162766000Y-103730380D02*
X162813619Y-103635142D01*
X162813619Y-103635142D02*
X162813619Y-103539904D01*
X162813619Y-103539904D02*
X162766000Y-103444666D01*
X162766000Y-103444666D02*
X162718381Y-103397047D01*
X162718381Y-103397047D02*
X162623143Y-103349428D01*
X162623143Y-103349428D02*
X162432667Y-103301809D01*
X162432667Y-103301809D02*
X162337429Y-103254190D01*
X162337429Y-103254190D02*
X162289810Y-103206571D01*
X162289810Y-103206571D02*
X162242191Y-103111333D01*
X162242191Y-103111333D02*
X162242191Y-103016095D01*
X162242191Y-103016095D02*
X162289810Y-102920857D01*
X162289810Y-102920857D02*
X162337429Y-102873238D01*
X162337429Y-102873238D02*
X162432667Y-102825619D01*
X162432667Y-102825619D02*
X162670762Y-102825619D01*
X162670762Y-102825619D02*
X162813619Y-102873238D01*
%TO.C,U1*%
X145034095Y-102586619D02*
X145034095Y-103396142D01*
X145034095Y-103396142D02*
X145081714Y-103491380D01*
X145081714Y-103491380D02*
X145129333Y-103539000D01*
X145129333Y-103539000D02*
X145224571Y-103586619D01*
X145224571Y-103586619D02*
X145415047Y-103586619D01*
X145415047Y-103586619D02*
X145510285Y-103539000D01*
X145510285Y-103539000D02*
X145557904Y-103491380D01*
X145557904Y-103491380D02*
X145605523Y-103396142D01*
X145605523Y-103396142D02*
X145605523Y-102586619D01*
X146605523Y-103586619D02*
X146034095Y-103586619D01*
X146319809Y-103586619D02*
X146319809Y-102586619D01*
X146319809Y-102586619D02*
X146224571Y-102729476D01*
X146224571Y-102729476D02*
X146129333Y-102824714D01*
X146129333Y-102824714D02*
X146034095Y-102872333D01*
%TO.C,J2*%
X164766666Y-100046619D02*
X164766666Y-100760904D01*
X164766666Y-100760904D02*
X164719047Y-100903761D01*
X164719047Y-100903761D02*
X164623809Y-100999000D01*
X164623809Y-100999000D02*
X164480952Y-101046619D01*
X164480952Y-101046619D02*
X164385714Y-101046619D01*
X165195238Y-100141857D02*
X165242857Y-100094238D01*
X165242857Y-100094238D02*
X165338095Y-100046619D01*
X165338095Y-100046619D02*
X165576190Y-100046619D01*
X165576190Y-100046619D02*
X165671428Y-100094238D01*
X165671428Y-100094238D02*
X165719047Y-100141857D01*
X165719047Y-100141857D02*
X165766666Y-100237095D01*
X165766666Y-100237095D02*
X165766666Y-100332333D01*
X165766666Y-100332333D02*
X165719047Y-100475190D01*
X165719047Y-100475190D02*
X165147619Y-101046619D01*
X165147619Y-101046619D02*
X165766666Y-101046619D01*
X168068762Y-101046619D02*
X168068762Y-100046619D01*
X168068762Y-100046619D02*
X168449714Y-100046619D01*
X168449714Y-100046619D02*
X168544952Y-100094238D01*
X168544952Y-100094238D02*
X168592571Y-100141857D01*
X168592571Y-100141857D02*
X168640190Y-100237095D01*
X168640190Y-100237095D02*
X168640190Y-100379952D01*
X168640190Y-100379952D02*
X168592571Y-100475190D01*
X168592571Y-100475190D02*
X168544952Y-100522809D01*
X168544952Y-100522809D02*
X168449714Y-100570428D01*
X168449714Y-100570428D02*
X168068762Y-100570428D01*
X168973524Y-100379952D02*
X169164000Y-101046619D01*
X169164000Y-101046619D02*
X169354476Y-100570428D01*
X169354476Y-100570428D02*
X169544952Y-101046619D01*
X169544952Y-101046619D02*
X169735428Y-100379952D01*
X170116381Y-101046619D02*
X170116381Y-100379952D01*
X170116381Y-100570428D02*
X170164000Y-100475190D01*
X170164000Y-100475190D02*
X170211619Y-100427571D01*
X170211619Y-100427571D02*
X170306857Y-100379952D01*
X170306857Y-100379952D02*
X170402095Y-100379952D01*
%TO.C,C1*%
X144894734Y-98463380D02*
X144847115Y-98511000D01*
X144847115Y-98511000D02*
X144704258Y-98558619D01*
X144704258Y-98558619D02*
X144609020Y-98558619D01*
X144609020Y-98558619D02*
X144466163Y-98511000D01*
X144466163Y-98511000D02*
X144370925Y-98415761D01*
X144370925Y-98415761D02*
X144323306Y-98320523D01*
X144323306Y-98320523D02*
X144275687Y-98130047D01*
X144275687Y-98130047D02*
X144275687Y-97987190D01*
X144275687Y-97987190D02*
X144323306Y-97796714D01*
X144323306Y-97796714D02*
X144370925Y-97701476D01*
X144370925Y-97701476D02*
X144466163Y-97606238D01*
X144466163Y-97606238D02*
X144609020Y-97558619D01*
X144609020Y-97558619D02*
X144704258Y-97558619D01*
X144704258Y-97558619D02*
X144847115Y-97606238D01*
X144847115Y-97606238D02*
X144894734Y-97653857D01*
X145847115Y-98558619D02*
X145275687Y-98558619D01*
X145561401Y-98558619D02*
X145561401Y-97558619D01*
X145561401Y-97558619D02*
X145466163Y-97701476D01*
X145466163Y-97701476D02*
X145370925Y-97796714D01*
X145370925Y-97796714D02*
X145275687Y-97844333D01*
%TO.C,J3*%
X167560666Y-106396619D02*
X167560666Y-107110904D01*
X167560666Y-107110904D02*
X167513047Y-107253761D01*
X167513047Y-107253761D02*
X167417809Y-107349000D01*
X167417809Y-107349000D02*
X167274952Y-107396619D01*
X167274952Y-107396619D02*
X167179714Y-107396619D01*
X167941619Y-106396619D02*
X168560666Y-106396619D01*
X168560666Y-106396619D02*
X168227333Y-106777571D01*
X168227333Y-106777571D02*
X168370190Y-106777571D01*
X168370190Y-106777571D02*
X168465428Y-106825190D01*
X168465428Y-106825190D02*
X168513047Y-106872809D01*
X168513047Y-106872809D02*
X168560666Y-106968047D01*
X168560666Y-106968047D02*
X168560666Y-107206142D01*
X168560666Y-107206142D02*
X168513047Y-107301380D01*
X168513047Y-107301380D02*
X168465428Y-107349000D01*
X168465428Y-107349000D02*
X168370190Y-107396619D01*
X168370190Y-107396619D02*
X168084476Y-107396619D01*
X168084476Y-107396619D02*
X167989238Y-107349000D01*
X167989238Y-107349000D02*
X167941619Y-107301380D01*
X169981809Y-107349000D02*
X170124666Y-107396619D01*
X170124666Y-107396619D02*
X170362761Y-107396619D01*
X170362761Y-107396619D02*
X170457999Y-107349000D01*
X170457999Y-107349000D02*
X170505618Y-107301380D01*
X170505618Y-107301380D02*
X170553237Y-107206142D01*
X170553237Y-107206142D02*
X170553237Y-107110904D01*
X170553237Y-107110904D02*
X170505618Y-107015666D01*
X170505618Y-107015666D02*
X170457999Y-106968047D01*
X170457999Y-106968047D02*
X170362761Y-106920428D01*
X170362761Y-106920428D02*
X170172285Y-106872809D01*
X170172285Y-106872809D02*
X170077047Y-106825190D01*
X170077047Y-106825190D02*
X170029428Y-106777571D01*
X170029428Y-106777571D02*
X169981809Y-106682333D01*
X169981809Y-106682333D02*
X169981809Y-106587095D01*
X169981809Y-106587095D02*
X170029428Y-106491857D01*
X170029428Y-106491857D02*
X170077047Y-106444238D01*
X170077047Y-106444238D02*
X170172285Y-106396619D01*
X170172285Y-106396619D02*
X170410380Y-106396619D01*
X170410380Y-106396619D02*
X170553237Y-106444238D01*
X171362761Y-107349000D02*
X171267523Y-107396619D01*
X171267523Y-107396619D02*
X171077047Y-107396619D01*
X171077047Y-107396619D02*
X170981809Y-107349000D01*
X170981809Y-107349000D02*
X170934190Y-107253761D01*
X170934190Y-107253761D02*
X170934190Y-106872809D01*
X170934190Y-106872809D02*
X170981809Y-106777571D01*
X170981809Y-106777571D02*
X171077047Y-106729952D01*
X171077047Y-106729952D02*
X171267523Y-106729952D01*
X171267523Y-106729952D02*
X171362761Y-106777571D01*
X171362761Y-106777571D02*
X171410380Y-106872809D01*
X171410380Y-106872809D02*
X171410380Y-106968047D01*
X171410380Y-106968047D02*
X170934190Y-107063285D01*
X171838952Y-107396619D02*
X171838952Y-106729952D01*
X171838952Y-106920428D02*
X171886571Y-106825190D01*
X171886571Y-106825190D02*
X171934190Y-106777571D01*
X171934190Y-106777571D02*
X172029428Y-106729952D01*
X172029428Y-106729952D02*
X172124666Y-106729952D01*
X172458000Y-107396619D02*
X172458000Y-106729952D01*
X172458000Y-106396619D02*
X172410381Y-106444238D01*
X172410381Y-106444238D02*
X172458000Y-106491857D01*
X172458000Y-106491857D02*
X172505619Y-106444238D01*
X172505619Y-106444238D02*
X172458000Y-106396619D01*
X172458000Y-106396619D02*
X172458000Y-106491857D01*
X173362761Y-107396619D02*
X173362761Y-106872809D01*
X173362761Y-106872809D02*
X173315142Y-106777571D01*
X173315142Y-106777571D02*
X173219904Y-106729952D01*
X173219904Y-106729952D02*
X173029428Y-106729952D01*
X173029428Y-106729952D02*
X172934190Y-106777571D01*
X173362761Y-107349000D02*
X173267523Y-107396619D01*
X173267523Y-107396619D02*
X173029428Y-107396619D01*
X173029428Y-107396619D02*
X172934190Y-107349000D01*
X172934190Y-107349000D02*
X172886571Y-107253761D01*
X172886571Y-107253761D02*
X172886571Y-107158523D01*
X172886571Y-107158523D02*
X172934190Y-107063285D01*
X172934190Y-107063285D02*
X173029428Y-107015666D01*
X173029428Y-107015666D02*
X173267523Y-107015666D01*
X173267523Y-107015666D02*
X173362761Y-106968047D01*
X173981809Y-107396619D02*
X173886571Y-107349000D01*
X173886571Y-107349000D02*
X173838952Y-107253761D01*
X173838952Y-107253761D02*
X173838952Y-106396619D01*
%TO.C,R2*%
X142327333Y-95966619D02*
X141994000Y-95490428D01*
X141755905Y-95966619D02*
X141755905Y-94966619D01*
X141755905Y-94966619D02*
X142136857Y-94966619D01*
X142136857Y-94966619D02*
X142232095Y-95014238D01*
X142232095Y-95014238D02*
X142279714Y-95061857D01*
X142279714Y-95061857D02*
X142327333Y-95157095D01*
X142327333Y-95157095D02*
X142327333Y-95299952D01*
X142327333Y-95299952D02*
X142279714Y-95395190D01*
X142279714Y-95395190D02*
X142232095Y-95442809D01*
X142232095Y-95442809D02*
X142136857Y-95490428D01*
X142136857Y-95490428D02*
X141755905Y-95490428D01*
X142708286Y-95061857D02*
X142755905Y-95014238D01*
X142755905Y-95014238D02*
X142851143Y-94966619D01*
X142851143Y-94966619D02*
X143089238Y-94966619D01*
X143089238Y-94966619D02*
X143184476Y-95014238D01*
X143184476Y-95014238D02*
X143232095Y-95061857D01*
X143232095Y-95061857D02*
X143279714Y-95157095D01*
X143279714Y-95157095D02*
X143279714Y-95252333D01*
X143279714Y-95252333D02*
X143232095Y-95395190D01*
X143232095Y-95395190D02*
X142660667Y-95966619D01*
X142660667Y-95966619D02*
X143279714Y-95966619D01*
D11*
%TO.C,D1*%
X142244000Y-84259928D02*
X141744000Y-83545642D01*
X141386857Y-84259928D02*
X141386857Y-82759928D01*
X141386857Y-82759928D02*
X141958286Y-82759928D01*
X141958286Y-82759928D02*
X142101143Y-82831357D01*
X142101143Y-82831357D02*
X142172572Y-82902785D01*
X142172572Y-82902785D02*
X142244000Y-83045642D01*
X142244000Y-83045642D02*
X142244000Y-83259928D01*
X142244000Y-83259928D02*
X142172572Y-83402785D01*
X142172572Y-83402785D02*
X142101143Y-83474214D01*
X142101143Y-83474214D02*
X141958286Y-83545642D01*
X141958286Y-83545642D02*
X141386857Y-83545642D01*
X142744000Y-82759928D02*
X143744000Y-84259928D01*
X143744000Y-82759928D02*
X142744000Y-84259928D01*
D10*
%TO.C,J1*%
X140382666Y-115032619D02*
X140382666Y-115746904D01*
X140382666Y-115746904D02*
X140335047Y-115889761D01*
X140335047Y-115889761D02*
X140239809Y-115985000D01*
X140239809Y-115985000D02*
X140096952Y-116032619D01*
X140096952Y-116032619D02*
X140001714Y-116032619D01*
X141382666Y-116032619D02*
X140811238Y-116032619D01*
X141096952Y-116032619D02*
X141096952Y-115032619D01*
X141096952Y-115032619D02*
X141001714Y-115175476D01*
X141001714Y-115175476D02*
X140906476Y-115270714D01*
X140906476Y-115270714D02*
X140811238Y-115318333D01*
X139192190Y-117556619D02*
X138858857Y-117080428D01*
X138620762Y-117556619D02*
X138620762Y-116556619D01*
X138620762Y-116556619D02*
X139001714Y-116556619D01*
X139001714Y-116556619D02*
X139096952Y-116604238D01*
X139096952Y-116604238D02*
X139144571Y-116651857D01*
X139144571Y-116651857D02*
X139192190Y-116747095D01*
X139192190Y-116747095D02*
X139192190Y-116889952D01*
X139192190Y-116889952D02*
X139144571Y-116985190D01*
X139144571Y-116985190D02*
X139096952Y-117032809D01*
X139096952Y-117032809D02*
X139001714Y-117080428D01*
X139001714Y-117080428D02*
X138620762Y-117080428D01*
X139525524Y-116556619D02*
X140192190Y-117556619D01*
X140192190Y-116556619D02*
X139525524Y-117556619D01*
X141335048Y-117556619D02*
X141335048Y-116556619D01*
X141811238Y-116889952D02*
X141811238Y-117556619D01*
X141811238Y-116985190D02*
X141858857Y-116937571D01*
X141858857Y-116937571D02*
X141954095Y-116889952D01*
X141954095Y-116889952D02*
X142096952Y-116889952D01*
X142096952Y-116889952D02*
X142192190Y-116937571D01*
X142192190Y-116937571D02*
X142239809Y-117032809D01*
X142239809Y-117032809D02*
X142239809Y-117556619D01*
X142573143Y-116889952D02*
X142954095Y-116889952D01*
X142716000Y-116556619D02*
X142716000Y-117413761D01*
X142716000Y-117413761D02*
X142763619Y-117509000D01*
X142763619Y-117509000D02*
X142858857Y-117556619D01*
X142858857Y-117556619D02*
X142954095Y-117556619D01*
D11*
%TO.C,D2*%
X146939143Y-82759928D02*
X147796286Y-82759928D01*
X147367714Y-84259928D02*
X147367714Y-82759928D01*
X148153428Y-82759928D02*
X149153428Y-84259928D01*
X149153428Y-82759928D02*
X148153428Y-84259928D01*
D10*
%TO.C,R1*%
X142327333Y-98760619D02*
X141994000Y-98284428D01*
X141755905Y-98760619D02*
X141755905Y-97760619D01*
X141755905Y-97760619D02*
X142136857Y-97760619D01*
X142136857Y-97760619D02*
X142232095Y-97808238D01*
X142232095Y-97808238D02*
X142279714Y-97855857D01*
X142279714Y-97855857D02*
X142327333Y-97951095D01*
X142327333Y-97951095D02*
X142327333Y-98093952D01*
X142327333Y-98093952D02*
X142279714Y-98189190D01*
X142279714Y-98189190D02*
X142232095Y-98236809D01*
X142232095Y-98236809D02*
X142136857Y-98284428D01*
X142136857Y-98284428D02*
X141755905Y-98284428D01*
X143279714Y-98760619D02*
X142708286Y-98760619D01*
X142994000Y-98760619D02*
X142994000Y-97760619D01*
X142994000Y-97760619D02*
X142898762Y-97903476D01*
X142898762Y-97903476D02*
X142803524Y-97998714D01*
X142803524Y-97998714D02*
X142708286Y-98046333D01*
%TO.C,J4*%
X159432666Y-113762619D02*
X159432666Y-114476904D01*
X159432666Y-114476904D02*
X159385047Y-114619761D01*
X159385047Y-114619761D02*
X159289809Y-114715000D01*
X159289809Y-114715000D02*
X159146952Y-114762619D01*
X159146952Y-114762619D02*
X159051714Y-114762619D01*
X160337428Y-114095952D02*
X160337428Y-114762619D01*
X160099333Y-113715000D02*
X159861238Y-114429285D01*
X159861238Y-114429285D02*
X160480285Y-114429285D01*
X158218380Y-116286619D02*
X157885047Y-115810428D01*
X157646952Y-116286619D02*
X157646952Y-115286619D01*
X157646952Y-115286619D02*
X158027904Y-115286619D01*
X158027904Y-115286619D02*
X158123142Y-115334238D01*
X158123142Y-115334238D02*
X158170761Y-115381857D01*
X158170761Y-115381857D02*
X158218380Y-115477095D01*
X158218380Y-115477095D02*
X158218380Y-115619952D01*
X158218380Y-115619952D02*
X158170761Y-115715190D01*
X158170761Y-115715190D02*
X158123142Y-115762809D01*
X158123142Y-115762809D02*
X158027904Y-115810428D01*
X158027904Y-115810428D02*
X157646952Y-115810428D01*
X158551714Y-115286619D02*
X159218380Y-116286619D01*
X159218380Y-115286619D02*
X158551714Y-116286619D01*
X160313618Y-115239000D02*
X159456476Y-116524714D01*
X160504095Y-115286619D02*
X161075523Y-115286619D01*
X160789809Y-116286619D02*
X160789809Y-115286619D01*
X161313619Y-115286619D02*
X161980285Y-116286619D01*
X161980285Y-115286619D02*
X161313619Y-116286619D01*
D12*
%TO.C,J5*%
X157166000Y-104588000D02*
X158496000Y-104588000D01*
X157166000Y-105918000D02*
X157166000Y-104588000D01*
X157166000Y-107188000D02*
X157166000Y-112328000D01*
X157166000Y-107188000D02*
X159766000Y-107188000D01*
X157166000Y-112328000D02*
X162366000Y-112328000D01*
X159766000Y-104588000D02*
X162366000Y-104588000D01*
X159766000Y-107188000D02*
X159766000Y-104588000D01*
X162366000Y-104588000D02*
X162366000Y-112328000D01*
%TO.C,U1*%
X144466000Y-104274000D02*
X144466000Y-124834000D01*
X144466000Y-124834000D02*
X154746000Y-124834000D01*
X146956000Y-104334000D02*
X146956000Y-124774000D01*
X146956000Y-124774000D02*
X152256000Y-124774000D01*
X148606000Y-104334000D02*
X146956000Y-104334000D01*
X152256000Y-104334000D02*
X150606000Y-104334000D01*
X152256000Y-124774000D02*
X152256000Y-104334000D01*
X154746000Y-104274000D02*
X144466000Y-104274000D01*
X154746000Y-124834000D02*
X154746000Y-104274000D01*
X148606000Y-104334000D02*
G75*
G03*
X150606000Y-104334000I1000000J0D01*
G01*
%TO.C,J2*%
X169991000Y-101794000D02*
X169991000Y-103124000D01*
X168661000Y-101794000D02*
X169991000Y-101794000D01*
X167391000Y-101794000D02*
X164791000Y-101794000D01*
X167391000Y-101794000D02*
X167391000Y-104454000D01*
X164791000Y-101794000D02*
X164791000Y-104454000D01*
X167391000Y-104454000D02*
X164791000Y-104454000D01*
%TO.C,C1*%
X142791600Y-100151000D02*
X143191600Y-100151000D01*
X142991600Y-99951000D02*
X142991600Y-100351000D01*
X145061401Y-99266000D02*
X145061401Y-100506000D01*
X145061401Y-102186000D02*
X145061401Y-103426000D01*
X145101401Y-99266000D02*
X145101401Y-100506000D01*
X145101401Y-102186000D02*
X145101401Y-103426000D01*
X145141401Y-99267000D02*
X145141401Y-100506000D01*
X145141401Y-102186000D02*
X145141401Y-103425000D01*
X145181401Y-99269000D02*
X145181401Y-100506000D01*
X145181401Y-102186000D02*
X145181401Y-103423000D01*
X145221401Y-99272000D02*
X145221401Y-100506000D01*
X145221401Y-102186000D02*
X145221401Y-103420000D01*
X145261401Y-99275000D02*
X145261401Y-100506000D01*
X145261401Y-102186000D02*
X145261401Y-103417000D01*
X145301401Y-99279000D02*
X145301401Y-100506000D01*
X145301401Y-102186000D02*
X145301401Y-103413000D01*
X145341401Y-99284000D02*
X145341401Y-100506000D01*
X145341401Y-102186000D02*
X145341401Y-103408000D01*
X145381401Y-99290000D02*
X145381401Y-100506000D01*
X145381401Y-102186000D02*
X145381401Y-103402000D01*
X145421401Y-99296000D02*
X145421401Y-100506000D01*
X145421401Y-102186000D02*
X145421401Y-103396000D01*
X145461401Y-99304000D02*
X145461401Y-100506000D01*
X145461401Y-102186000D02*
X145461401Y-103388000D01*
X145501401Y-99312000D02*
X145501401Y-100506000D01*
X145501401Y-102186000D02*
X145501401Y-103380000D01*
X145541401Y-99321000D02*
X145541401Y-100506000D01*
X145541401Y-102186000D02*
X145541401Y-103371000D01*
X145581401Y-99330000D02*
X145581401Y-100506000D01*
X145581401Y-102186000D02*
X145581401Y-103362000D01*
X145621401Y-99341000D02*
X145621401Y-100506000D01*
X145621401Y-102186000D02*
X145621401Y-103351000D01*
X145661401Y-99352000D02*
X145661401Y-100506000D01*
X145661401Y-102186000D02*
X145661401Y-103340000D01*
X145701401Y-99364000D02*
X145701401Y-100506000D01*
X145701401Y-102186000D02*
X145701401Y-103328000D01*
X145741401Y-99378000D02*
X145741401Y-100506000D01*
X145741401Y-102186000D02*
X145741401Y-103314000D01*
X145782401Y-99392000D02*
X145782401Y-100506000D01*
X145782401Y-102186000D02*
X145782401Y-103300000D01*
X145822401Y-99406000D02*
X145822401Y-100506000D01*
X145822401Y-102186000D02*
X145822401Y-103286000D01*
X145862401Y-99422000D02*
X145862401Y-100506000D01*
X145862401Y-102186000D02*
X145862401Y-103270000D01*
X145902401Y-99439000D02*
X145902401Y-100506000D01*
X145902401Y-102186000D02*
X145902401Y-103253000D01*
X145942401Y-99457000D02*
X145942401Y-100506000D01*
X145942401Y-102186000D02*
X145942401Y-103235000D01*
X145982401Y-99476000D02*
X145982401Y-100506000D01*
X145982401Y-102186000D02*
X145982401Y-103216000D01*
X146022401Y-99495000D02*
X146022401Y-100506000D01*
X146022401Y-102186000D02*
X146022401Y-103197000D01*
X146062401Y-99516000D02*
X146062401Y-100506000D01*
X146062401Y-102186000D02*
X146062401Y-103176000D01*
X146102401Y-99538000D02*
X146102401Y-100506000D01*
X146102401Y-102186000D02*
X146102401Y-103154000D01*
X146142401Y-99561000D02*
X146142401Y-100506000D01*
X146142401Y-102186000D02*
X146142401Y-103131000D01*
X146182401Y-99586000D02*
X146182401Y-100506000D01*
X146182401Y-102186000D02*
X146182401Y-103106000D01*
X146222401Y-99611000D02*
X146222401Y-100506000D01*
X146222401Y-102186000D02*
X146222401Y-103081000D01*
X146262401Y-99638000D02*
X146262401Y-100506000D01*
X146262401Y-102186000D02*
X146262401Y-103054000D01*
X146302401Y-99666000D02*
X146302401Y-100506000D01*
X146302401Y-102186000D02*
X146302401Y-103026000D01*
X146342401Y-99696000D02*
X146342401Y-100506000D01*
X146342401Y-102186000D02*
X146342401Y-102996000D01*
X146382401Y-99727000D02*
X146382401Y-100506000D01*
X146382401Y-102186000D02*
X146382401Y-102965000D01*
X146422401Y-99759000D02*
X146422401Y-100506000D01*
X146422401Y-102186000D02*
X146422401Y-102933000D01*
X146462401Y-99794000D02*
X146462401Y-100506000D01*
X146462401Y-102186000D02*
X146462401Y-102898000D01*
X146502401Y-99830000D02*
X146502401Y-100506000D01*
X146502401Y-102186000D02*
X146502401Y-102862000D01*
X146542401Y-99868000D02*
X146542401Y-100506000D01*
X146542401Y-102186000D02*
X146542401Y-102824000D01*
X146582401Y-99908000D02*
X146582401Y-100506000D01*
X146582401Y-102186000D02*
X146582401Y-102784000D01*
X146622401Y-99950000D02*
X146622401Y-100506000D01*
X146622401Y-102186000D02*
X146622401Y-102742000D01*
X146662401Y-99995000D02*
X146662401Y-102697000D01*
X146702401Y-100042000D02*
X146702401Y-102650000D01*
X146742401Y-100092000D02*
X146742401Y-102600000D01*
X146782401Y-100146000D02*
X146782401Y-102546000D01*
X146822401Y-100204000D02*
X146822401Y-102488000D01*
X146862401Y-100266000D02*
X146862401Y-102426000D01*
X146902401Y-100333000D02*
X146902401Y-102359000D01*
X146942401Y-100406000D02*
X146942401Y-102286000D01*
X146982401Y-100487000D02*
X146982401Y-102205000D01*
X147022401Y-100578000D02*
X147022401Y-102114000D01*
X147062401Y-100682000D02*
X147062401Y-102010000D01*
X147102401Y-100809000D02*
X147102401Y-101883000D01*
X147142401Y-100976000D02*
X147142401Y-101716000D01*
X147181401Y-101346000D02*
G75*
G03*
X147181401Y-101346000I-2120000J0D01*
G01*
%TO.C,J3*%
X167386000Y-108204000D02*
X168656000Y-108204000D01*
X167386000Y-109474000D02*
X167386000Y-108204000D01*
X169698929Y-111634000D02*
X170096000Y-111634000D01*
X169698929Y-112394000D02*
X170096000Y-112394000D01*
X169698929Y-114174000D02*
X170096000Y-114174000D01*
X169698929Y-114934000D02*
X170096000Y-114934000D01*
X169698929Y-116714000D02*
X170096000Y-116714000D01*
X169698929Y-117474000D02*
X170096000Y-117474000D01*
X169698929Y-119254000D02*
X170096000Y-119254000D01*
X169698929Y-120014000D02*
X170096000Y-120014000D01*
X169698929Y-121794000D02*
X170096000Y-121794000D01*
X169698929Y-122554000D02*
X170096000Y-122554000D01*
X169766000Y-109094000D02*
X170096000Y-109094000D01*
X169766000Y-109854000D02*
X170096000Y-109854000D01*
X170096000Y-108144000D02*
X170096000Y-123504000D01*
X170096000Y-110744000D02*
X172756000Y-110744000D01*
X170096000Y-113284000D02*
X172756000Y-113284000D01*
X170096000Y-115824000D02*
X172756000Y-115824000D01*
X170096000Y-118364000D02*
X172756000Y-118364000D01*
X170096000Y-120904000D02*
X172756000Y-120904000D01*
X170096000Y-123504000D02*
X172756000Y-123504000D01*
X172756000Y-108144000D02*
X170096000Y-108144000D01*
X172756000Y-109094000D02*
X178756000Y-109094000D01*
X172756000Y-109154000D02*
X178756000Y-109154000D01*
X172756000Y-109274000D02*
X178756000Y-109274000D01*
X172756000Y-109394000D02*
X178756000Y-109394000D01*
X172756000Y-109514000D02*
X178756000Y-109514000D01*
X172756000Y-109634000D02*
X178756000Y-109634000D01*
X172756000Y-109754000D02*
X178756000Y-109754000D01*
X172756000Y-111634000D02*
X178756000Y-111634000D01*
X172756000Y-114174000D02*
X178756000Y-114174000D01*
X172756000Y-116714000D02*
X178756000Y-116714000D01*
X172756000Y-119254000D02*
X178756000Y-119254000D01*
X172756000Y-121794000D02*
X178756000Y-121794000D01*
X172756000Y-123504000D02*
X172756000Y-108144000D01*
X178756000Y-109094000D02*
X178756000Y-109854000D01*
X178756000Y-109854000D02*
X172756000Y-109854000D01*
X178756000Y-111634000D02*
X178756000Y-112394000D01*
X178756000Y-112394000D02*
X172756000Y-112394000D01*
X178756000Y-114174000D02*
X178756000Y-114934000D01*
X178756000Y-114934000D02*
X172756000Y-114934000D01*
X178756000Y-116714000D02*
X178756000Y-117474000D01*
X178756000Y-117474000D02*
X172756000Y-117474000D01*
X178756000Y-119254000D02*
X178756000Y-120014000D01*
X178756000Y-120014000D02*
X172756000Y-120014000D01*
X178756000Y-121794000D02*
X178756000Y-122554000D01*
X178756000Y-122554000D02*
X172756000Y-122554000D01*
%TO.C,R2*%
X139954000Y-94464000D02*
X139954000Y-93694000D01*
X138584000Y-93694000D02*
X141324000Y-93694000D01*
X141324000Y-93694000D02*
X141324000Y-87154000D01*
X138584000Y-87154000D02*
X138584000Y-93694000D01*
X141324000Y-87154000D02*
X138584000Y-87154000D01*
X139954000Y-86384000D02*
X139954000Y-87154000D01*
%TO.C,D1*%
X144054000Y-81500000D02*
X144054000Y-81344000D01*
X144054000Y-79184000D02*
X144054000Y-79028000D01*
X140821666Y-81342608D02*
G75*
G03*
X144053999Y-81499515I1672334J1078608D01*
G01*
X141452871Y-81343836D02*
G75*
G03*
X143534960Y-81343999I1041129J1079836D01*
G01*
X143534960Y-79184001D02*
G75*
G03*
X141452871Y-79184164I-1040960J-1079999D01*
G01*
X144053999Y-79028485D02*
G75*
G03*
X140821666Y-79185392I-1559999J-1235515D01*
G01*
%TO.C,J1*%
X142046000Y-123504000D02*
X140716000Y-123504000D01*
X142046000Y-122174000D02*
X142046000Y-123504000D01*
X142046000Y-120904000D02*
X142046000Y-118304000D01*
X142046000Y-120904000D02*
X139386000Y-120904000D01*
X142046000Y-118304000D02*
X139386000Y-118304000D01*
X139386000Y-120904000D02*
X139386000Y-118304000D01*
%TO.C,G\u002A\u002A\u002A*%
G36*
X143835047Y-92336630D02*
G01*
X143860585Y-92354920D01*
X143891074Y-92388789D01*
X143929119Y-92441003D01*
X143962406Y-92491130D01*
X144000086Y-92547871D01*
X144048416Y-92618569D01*
X144102552Y-92696252D01*
X144157653Y-92773951D01*
X144190384Y-92819359D01*
X144238561Y-92885668D01*
X144277452Y-92938995D01*
X144310344Y-92983648D01*
X144340521Y-93023936D01*
X144371267Y-93064168D01*
X144405868Y-93108654D01*
X144447607Y-93161701D01*
X144499770Y-93227619D01*
X144547666Y-93288042D01*
X144595487Y-93348877D01*
X144638380Y-93404408D01*
X144673383Y-93450722D01*
X144697532Y-93483910D01*
X144707244Y-93498744D01*
X144722564Y-93548158D01*
X144713715Y-93594202D01*
X144680187Y-93637637D01*
X144621473Y-93679224D01*
X144568594Y-93706066D01*
X144404659Y-93770183D01*
X144233851Y-93817361D01*
X144063498Y-93845929D01*
X143918405Y-93854349D01*
X143797980Y-93854367D01*
X143797980Y-93092758D01*
X143798165Y-92914024D01*
X143798730Y-92760614D01*
X143799688Y-92631816D01*
X143801051Y-92526916D01*
X143802833Y-92445205D01*
X143805046Y-92385969D01*
X143807703Y-92348496D01*
X143810818Y-92332076D01*
X143811855Y-92331148D01*
X143835047Y-92336630D01*
G37*
G36*
X143918405Y-85618572D02*
G01*
X144130335Y-85646613D01*
X144332992Y-85698757D01*
X144527357Y-85775361D01*
X144714409Y-85876786D01*
X144825439Y-85951068D01*
X144987288Y-86083198D01*
X145131566Y-86233515D01*
X145257021Y-86399915D01*
X145362400Y-86580295D01*
X145446450Y-86772551D01*
X145507918Y-86974580D01*
X145541666Y-87153808D01*
X145549064Y-87233043D01*
X145546570Y-87302111D01*
X145532367Y-87366497D01*
X145504636Y-87431685D01*
X145461561Y-87503162D01*
X145401323Y-87586412D01*
X145395981Y-87593389D01*
X145359444Y-87641252D01*
X145327097Y-87684141D01*
X145303432Y-87716074D01*
X145295161Y-87727644D01*
X145280976Y-87747166D01*
X145254023Y-87783299D01*
X145217358Y-87831982D01*
X145174039Y-87889150D01*
X145138933Y-87935269D01*
X145092630Y-87996151D01*
X145050692Y-88051618D01*
X145016176Y-88097602D01*
X144992137Y-88130037D01*
X144982809Y-88143042D01*
X144969392Y-88161765D01*
X144942896Y-88197933D01*
X144905846Y-88248148D01*
X144860771Y-88309012D01*
X144810197Y-88377128D01*
X144756651Y-88449099D01*
X144702660Y-88521527D01*
X144650752Y-88591014D01*
X144603453Y-88654163D01*
X144563291Y-88707576D01*
X144540351Y-88737914D01*
X144513632Y-88773363D01*
X144474667Y-88825385D01*
X144426704Y-88889626D01*
X144372992Y-88961732D01*
X144316780Y-89037351D01*
X144292623Y-89069897D01*
X144238600Y-89142645D01*
X144187790Y-89210931D01*
X144142902Y-89271124D01*
X144106647Y-89319592D01*
X144081734Y-89352704D01*
X144074026Y-89362824D01*
X144050034Y-89394308D01*
X144016463Y-89438778D01*
X143979275Y-89488326D01*
X143966040Y-89506033D01*
X143920366Y-89565449D01*
X143885077Y-89606642D01*
X143856519Y-89633314D01*
X143831039Y-89649173D01*
X143820763Y-89653363D01*
X143817740Y-89653506D01*
X143814996Y-89650893D01*
X143812517Y-89644328D01*
X143810291Y-89632617D01*
X143808304Y-89614566D01*
X143806542Y-89588980D01*
X143804992Y-89554666D01*
X143803640Y-89510427D01*
X143802473Y-89455071D01*
X143801478Y-89387403D01*
X143800640Y-89306228D01*
X143799947Y-89210351D01*
X143799385Y-89098579D01*
X143798940Y-88969716D01*
X143798599Y-88822569D01*
X143798349Y-88655943D01*
X143798175Y-88468644D01*
X143798066Y-88259477D01*
X143798006Y-88027247D01*
X143797982Y-87770760D01*
X143797980Y-87635535D01*
X143797980Y-85609626D01*
X143918405Y-85618572D01*
G37*
G36*
X146813166Y-89121190D02*
G01*
X146875372Y-89129083D01*
X146955079Y-89140626D01*
X147083085Y-89163899D01*
X147190072Y-89193743D01*
X147280687Y-89232364D01*
X147359581Y-89281968D01*
X147431402Y-89344765D01*
X147468280Y-89384252D01*
X147486150Y-89409734D01*
X147513647Y-89455679D01*
X147549199Y-89519043D01*
X147591230Y-89596785D01*
X147638167Y-89685860D01*
X147688436Y-89783227D01*
X147740463Y-89885841D01*
X147792675Y-89990662D01*
X147843497Y-90094645D01*
X147891355Y-90194747D01*
X147926727Y-90270591D01*
X147950110Y-90314987D01*
X147974541Y-90351320D01*
X147993332Y-90370560D01*
X148011936Y-90379735D01*
X148049292Y-90396106D01*
X148100736Y-90417792D01*
X148161603Y-90442912D01*
X148227229Y-90469585D01*
X148292949Y-90495931D01*
X148354097Y-90520069D01*
X148406011Y-90540118D01*
X148444024Y-90554197D01*
X148463473Y-90560426D01*
X148464595Y-90560569D01*
X148478028Y-90565128D01*
X148511992Y-90577864D01*
X148562812Y-90597364D01*
X148626811Y-90622213D01*
X148700315Y-90650999D01*
X148721912Y-90659498D01*
X148811517Y-90694793D01*
X148905917Y-90731966D01*
X148997654Y-90768079D01*
X149079268Y-90800196D01*
X149137374Y-90823052D01*
X149221041Y-90858082D01*
X149286291Y-90889920D01*
X149330319Y-90917145D01*
X149341645Y-90926702D01*
X149388078Y-90988477D01*
X149413411Y-91058540D01*
X149418435Y-91131904D01*
X149403943Y-91203584D01*
X149370728Y-91268595D01*
X149319583Y-91321950D01*
X149274474Y-91349260D01*
X149225528Y-91368363D01*
X149178603Y-91377074D01*
X149128004Y-91374929D01*
X149068036Y-91361466D01*
X148993001Y-91336222D01*
X148959999Y-91323694D01*
X148897703Y-91299555D01*
X148819040Y-91269077D01*
X148731924Y-91235328D01*
X148644269Y-91201372D01*
X148595468Y-91182469D01*
X148432610Y-91119354D01*
X148292221Y-91064850D01*
X148172471Y-91018215D01*
X148071527Y-90978707D01*
X147987560Y-90945586D01*
X147918738Y-90918108D01*
X147863230Y-90895532D01*
X147819205Y-90877116D01*
X147784833Y-90862119D01*
X147758282Y-90849797D01*
X147737722Y-90839411D01*
X147721321Y-90830217D01*
X147711989Y-90824507D01*
X147674374Y-90796969D01*
X147629652Y-90758831D01*
X147591723Y-90722539D01*
X147573246Y-90702290D01*
X147554554Y-90678456D01*
X147534283Y-90648584D01*
X147511066Y-90610218D01*
X147483538Y-90560906D01*
X147450333Y-90498191D01*
X147410085Y-90419621D01*
X147361430Y-90322740D01*
X147303002Y-90205095D01*
X147296454Y-90191861D01*
X147228782Y-90056064D01*
X147171553Y-89943419D01*
X147124464Y-89853363D01*
X147087209Y-89785332D01*
X147059486Y-89738763D01*
X147040989Y-89713091D01*
X147035759Y-89708311D01*
X147005263Y-89694673D01*
X146960562Y-89681710D01*
X146927511Y-89675030D01*
X146880342Y-89664315D01*
X146839839Y-89649900D01*
X146821527Y-89639641D01*
X146805506Y-89620046D01*
X146781396Y-89581652D01*
X146751999Y-89529312D01*
X146720113Y-89467878D01*
X146706850Y-89440938D01*
X146669778Y-89362222D01*
X146644898Y-89302204D01*
X146631767Y-89256814D01*
X146629943Y-89221983D01*
X146638983Y-89193641D01*
X146658444Y-89167720D01*
X146675344Y-89151266D01*
X146694165Y-89135432D01*
X146713052Y-89124671D01*
X146736311Y-89118820D01*
X146768247Y-89117714D01*
X146813166Y-89121190D01*
G37*
G36*
X146924411Y-84947364D02*
G01*
X147001024Y-84977045D01*
X147061703Y-85024657D01*
X147104515Y-85086175D01*
X147127526Y-85157576D01*
X147128800Y-85234837D01*
X147106404Y-85313932D01*
X147103585Y-85320105D01*
X147090447Y-85342931D01*
X147070169Y-85368701D01*
X147040195Y-85399861D01*
X146997971Y-85438853D01*
X146940941Y-85488119D01*
X146866551Y-85550104D01*
X146841646Y-85570578D01*
X146718695Y-85671468D01*
X146614364Y-85757260D01*
X146527125Y-85829347D01*
X146455450Y-85889124D01*
X146397810Y-85937986D01*
X146352677Y-85977327D01*
X146318523Y-86008541D01*
X146293819Y-86033022D01*
X146277037Y-86052165D01*
X146266649Y-86067364D01*
X146261127Y-86080013D01*
X146258941Y-86091506D01*
X146258564Y-86102539D01*
X146262795Y-86120080D01*
X146274728Y-86158698D01*
X146293219Y-86214977D01*
X146317128Y-86285506D01*
X146345312Y-86366868D01*
X146376629Y-86455651D01*
X146377381Y-86457764D01*
X146430405Y-86606673D01*
X146475425Y-86733177D01*
X146513093Y-86839426D01*
X146544063Y-86927572D01*
X146568988Y-86999764D01*
X146588524Y-87058154D01*
X146603322Y-87104892D01*
X146614037Y-87142129D01*
X146621322Y-87172015D01*
X146625830Y-87196702D01*
X146628216Y-87218340D01*
X146629134Y-87239079D01*
X146629235Y-87261071D01*
X146629175Y-87286299D01*
X146617075Y-87417337D01*
X146580078Y-87540786D01*
X146518217Y-87656575D01*
X146431523Y-87764631D01*
X146398033Y-87798047D01*
X146346324Y-87845868D01*
X146290631Y-87895345D01*
X146235544Y-87942614D01*
X146185651Y-87983808D01*
X146145540Y-88015062D01*
X146119802Y-88032512D01*
X146119466Y-88032693D01*
X146067986Y-88046954D01*
X146014930Y-88039840D01*
X145981491Y-88021775D01*
X145956193Y-87993746D01*
X145921732Y-87942603D01*
X145878727Y-87869360D01*
X145827800Y-87775031D01*
X145811874Y-87744336D01*
X145796060Y-87707694D01*
X145793689Y-87677332D01*
X145801485Y-87643910D01*
X145817835Y-87606382D01*
X145838917Y-87578127D01*
X145843369Y-87574495D01*
X145883823Y-87543224D01*
X145930142Y-87502865D01*
X145977920Y-87457845D01*
X146022748Y-87412588D01*
X146060218Y-87371520D01*
X146085924Y-87339067D01*
X146095220Y-87321612D01*
X146096011Y-87309215D01*
X146093722Y-87290292D01*
X146087774Y-87263056D01*
X146077586Y-87225720D01*
X146062578Y-87176497D01*
X146042168Y-87113600D01*
X146015778Y-87035242D01*
X145982825Y-86939636D01*
X145942731Y-86824994D01*
X145894914Y-86689530D01*
X145838793Y-86531457D01*
X145836386Y-86524690D01*
X145808476Y-86443899D01*
X145782885Y-86365458D01*
X145761320Y-86294936D01*
X145745485Y-86237902D01*
X145737255Y-86200988D01*
X145731289Y-86088807D01*
X145747117Y-85972331D01*
X145782824Y-85858028D01*
X145836496Y-85752364D01*
X145892476Y-85676807D01*
X145927527Y-85640515D01*
X145974632Y-85596381D01*
X146025170Y-85552393D01*
X146039553Y-85540547D01*
X146082163Y-85505902D01*
X146141008Y-85457930D01*
X146212191Y-85399814D01*
X146291816Y-85334741D01*
X146375984Y-85265895D01*
X146460800Y-85196461D01*
X146542367Y-85129626D01*
X146564510Y-85111469D01*
X146604995Y-85078270D01*
X146652353Y-85039443D01*
X146679891Y-85016868D01*
X146753488Y-84967791D01*
X146825826Y-84943418D01*
X146900192Y-84942815D01*
X146924411Y-84947364D01*
G37*
G36*
X145549337Y-88206837D02*
G01*
X145573512Y-88216518D01*
X145598234Y-88235551D01*
X145625354Y-88266305D01*
X145656726Y-88311151D01*
X145694203Y-88372460D01*
X145739636Y-88452601D01*
X145789509Y-88543987D01*
X145842443Y-88643331D01*
X145903691Y-88760481D01*
X145971338Y-88891614D01*
X146043474Y-89032910D01*
X146118183Y-89180546D01*
X146193553Y-89330701D01*
X146267671Y-89479552D01*
X146338624Y-89623278D01*
X146404498Y-89758057D01*
X146463381Y-89880067D01*
X146513359Y-89985486D01*
X146541545Y-90046320D01*
X146592938Y-90158746D01*
X146635213Y-90251395D01*
X146670090Y-90328167D01*
X146699288Y-90392961D01*
X146724525Y-90449677D01*
X146747521Y-90502214D01*
X146769995Y-90554470D01*
X146793665Y-90610346D01*
X146820252Y-90673740D01*
X146851475Y-90748552D01*
X146857232Y-90762363D01*
X147029892Y-91190303D01*
X147183680Y-91600537D01*
X147318643Y-91993243D01*
X147434829Y-92368604D01*
X147532288Y-92726799D01*
X147611067Y-93068008D01*
X147671214Y-93392413D01*
X147712778Y-93700193D01*
X147735807Y-93991529D01*
X147738485Y-94056161D01*
X147740022Y-94184019D01*
X147736417Y-94314665D01*
X147728164Y-94444348D01*
X147715755Y-94569320D01*
X147699683Y-94685829D01*
X147680439Y-94790128D01*
X147658518Y-94878466D01*
X147634410Y-94947093D01*
X147617071Y-94980507D01*
X147554770Y-95056218D01*
X147478702Y-95113361D01*
X147393100Y-95150210D01*
X147302199Y-95165039D01*
X147210233Y-95156123D01*
X147195509Y-95152323D01*
X147134604Y-95129617D01*
X147057106Y-95091890D01*
X146966143Y-95041119D01*
X146864844Y-94979284D01*
X146756339Y-94908363D01*
X146643757Y-94830335D01*
X146530226Y-94747177D01*
X146421301Y-94662803D01*
X146272790Y-94538996D01*
X146115635Y-94398060D01*
X145951771Y-94242279D01*
X145783137Y-94073936D01*
X145611669Y-93895316D01*
X145439303Y-93708702D01*
X145267978Y-93516378D01*
X145099629Y-93320629D01*
X144936194Y-93123737D01*
X144779610Y-92927987D01*
X144631813Y-92735663D01*
X144494740Y-92549049D01*
X144370329Y-92370428D01*
X144260516Y-92202084D01*
X144167239Y-92046302D01*
X144106207Y-91933012D01*
X144083158Y-91888129D01*
X144063462Y-91849765D01*
X144046856Y-91815551D01*
X144033079Y-91783118D01*
X144021869Y-91750098D01*
X144012965Y-91714123D01*
X144006105Y-91672824D01*
X144001026Y-91623832D01*
X143997468Y-91564779D01*
X143995169Y-91493297D01*
X143993866Y-91407017D01*
X143993299Y-91303571D01*
X143993205Y-91180589D01*
X143993322Y-91035705D01*
X143993392Y-90912081D01*
X143993507Y-90150472D01*
X144107301Y-89999908D01*
X144142053Y-89953927D01*
X144170663Y-89916046D01*
X144195577Y-89882993D01*
X144219239Y-89851496D01*
X144244096Y-89818283D01*
X144272590Y-89780083D01*
X144307168Y-89733622D01*
X144350274Y-89675630D01*
X144404352Y-89602834D01*
X144461748Y-89525561D01*
X144562658Y-89389824D01*
X144648591Y-89274494D01*
X144719981Y-89178989D01*
X144777263Y-89102731D01*
X144820873Y-89045140D01*
X144851246Y-89005634D01*
X144862163Y-88991784D01*
X144879077Y-88969904D01*
X144908711Y-88930786D01*
X144948292Y-88878122D01*
X144995050Y-88815602D01*
X145046214Y-88746917D01*
X145065002Y-88721628D01*
X145122813Y-88643776D01*
X145182540Y-88563370D01*
X145239939Y-88486123D01*
X145290763Y-88417748D01*
X145330767Y-88363960D01*
X145334218Y-88359323D01*
X145373346Y-88308088D01*
X145408744Y-88264185D01*
X145436645Y-88232126D01*
X145453280Y-88216423D01*
X145453787Y-88216127D01*
X145481273Y-88208036D01*
X145519308Y-88204188D01*
X145523854Y-88204136D01*
X145549337Y-88206837D01*
G37*
%TO.C,D2*%
X149642000Y-81500000D02*
X149642000Y-81344000D01*
X149642000Y-79184000D02*
X149642000Y-79028000D01*
X146409666Y-81342608D02*
G75*
G03*
X149641999Y-81499515I1672334J1078608D01*
G01*
X147040871Y-81343836D02*
G75*
G03*
X149122960Y-81343999I1041129J1079836D01*
G01*
X149122960Y-79184001D02*
G75*
G03*
X147040871Y-79184164I-1040960J-1079999D01*
G01*
X149641999Y-79028485D02*
G75*
G03*
X146409666Y-79185392I-1559999J-1235515D01*
G01*
%TO.C,R1*%
X139954000Y-107164000D02*
X139954000Y-106394000D01*
X138584000Y-106394000D02*
X141324000Y-106394000D01*
X141324000Y-106394000D02*
X141324000Y-99854000D01*
X138584000Y-99854000D02*
X138584000Y-106394000D01*
X141324000Y-99854000D02*
X138584000Y-99854000D01*
X139954000Y-99084000D02*
X139954000Y-99854000D01*
%TO.C,J4*%
X157166000Y-117034000D02*
X158496000Y-117034000D01*
X157166000Y-118364000D02*
X157166000Y-117034000D01*
X157166000Y-119634000D02*
X157166000Y-124774000D01*
X157166000Y-119634000D02*
X159766000Y-119634000D01*
X157166000Y-124774000D02*
X162366000Y-124774000D01*
X159766000Y-117034000D02*
X162366000Y-117034000D01*
X159766000Y-119634000D02*
X159766000Y-117034000D01*
X162366000Y-117034000D02*
X162366000Y-124774000D01*
%TD*%
M02*
