%TF.GenerationSoftware,KiCad,Pcbnew,7.0.1*%
%TF.CreationDate,2023-08-12T16:51:12+02:00*%
%TF.ProjectId,uprs232ttl,75707273-3233-4327-9474-6c2e6b696361,rev?*%
%TF.SameCoordinates,Original*%
%TF.FileFunction,Copper,L2,Bot*%
%TF.FilePolarity,Positive*%
%FSLAX46Y46*%
G04 Gerber Fmt 4.6, Leading zero omitted, Abs format (unit mm)*
G04 Created by KiCad (PCBNEW 7.0.1) date 2023-08-12 16:51:12*
%MOMM*%
%LPD*%
G01*
G04 APERTURE LIST*
G04 Aperture macros list*
%AMRoundRect*
0 Rectangle with rounded corners*
0 $1 Rounding radius*
0 $2 $3 $4 $5 $6 $7 $8 $9 X,Y pos of 4 corners*
0 Add a 4 corners polygon primitive as box body*
4,1,4,$2,$3,$4,$5,$6,$7,$8,$9,$2,$3,0*
0 Add four circle primitives for the rounded corners*
1,1,$1+$1,$2,$3*
1,1,$1+$1,$4,$5*
1,1,$1+$1,$6,$7*
1,1,$1+$1,$8,$9*
0 Add four rect primitives between the rounded corners*
20,1,$1+$1,$2,$3,$4,$5,0*
20,1,$1+$1,$4,$5,$6,$7,0*
20,1,$1+$1,$6,$7,$8,$9,0*
20,1,$1+$1,$8,$9,$2,$3,0*%
G04 Aperture macros list end*
%TA.AperFunction,SMDPad,CuDef*%
%ADD10RoundRect,0.450000X2.550000X1.050000X-2.550000X1.050000X-2.550000X-1.050000X2.550000X-1.050000X0*%
%TD*%
%TA.AperFunction,ComponentPad*%
%ADD11R,1.700000X1.700000*%
%TD*%
%TA.AperFunction,ComponentPad*%
%ADD12O,1.700000X1.700000*%
%TD*%
%TA.AperFunction,ComponentPad*%
%ADD13R,1.600000X1.600000*%
%TD*%
%TA.AperFunction,ComponentPad*%
%ADD14O,1.600000X1.600000*%
%TD*%
%TA.AperFunction,ComponentPad*%
%ADD15R,1.200000X1.200000*%
%TD*%
%TA.AperFunction,ComponentPad*%
%ADD16C,1.200000*%
%TD*%
%TA.AperFunction,ComponentPad*%
%ADD17C,1.600000*%
%TD*%
%TA.AperFunction,ComponentPad*%
%ADD18R,1.800000X1.800000*%
%TD*%
%TA.AperFunction,ComponentPad*%
%ADD19C,1.800000*%
%TD*%
%TA.AperFunction,ViaPad*%
%ADD20C,0.800000*%
%TD*%
%TA.AperFunction,Conductor*%
%ADD21C,0.250000*%
%TD*%
G04 APERTURE END LIST*
D10*
%TO.P,CN1,A,GND*%
%TO.N,GND*%
X133096000Y-123442000D03*
%TO.P,CN1,B,FLAG*%
%TO.N,Net-(CN1-FLAG)*%
X133096000Y-119442000D03*
%TO.P,CN1,C,PB0*%
%TO.N,Net-(CN1-PB0)*%
X133096000Y-115442000D03*
%TO.P,CN1,D,PB1*%
%TO.N,Net-(CN1-PB1)*%
X133096000Y-111442000D03*
%TO.P,CN1,E,PB2*%
%TO.N,unconnected-(CN1-PB2-PadE)*%
X133096000Y-107442000D03*
%TO.P,CN1,F,PB3*%
%TO.N,unconnected-(CN1-PB3-PadF)*%
X133096000Y-103442000D03*
%TO.P,CN1,H,PB4*%
%TO.N,unconnected-(CN1-PB4-PadH)*%
X133096000Y-99442000D03*
%TO.P,CN1,J,PB5*%
%TO.N,unconnected-(CN1-PB5-PadJ)*%
X133096000Y-95442000D03*
%TO.P,CN1,K,PB6*%
%TO.N,Net-(CN1-PB6)*%
X133096000Y-91442000D03*
%TO.P,CN1,L,PB7*%
%TO.N,unconnected-(CN1-PB7-PadL)*%
X133096000Y-87442000D03*
%TO.P,CN1,M,PA2*%
%TO.N,Net-(CN1-PA2)*%
X133096000Y-83442000D03*
%TO.P,CN1,N,GND*%
%TO.N,GND*%
X133096000Y-79442000D03*
%TD*%
D11*
%TO.P,J5,1,Pin_1*%
%TO.N,Net-(J3-Pin_6)*%
X158496000Y-105918000D03*
D12*
%TO.P,J5,2,Pin_2*%
%TO.N,Net-(J3-Pin_2)*%
X161036000Y-105918000D03*
%TO.P,J5,3,Pin_3*%
%TO.N,CTS*%
X158496000Y-108458000D03*
%TO.P,J5,4,Pin_4*%
%TO.N,RTS*%
X161036000Y-108458000D03*
%TO.P,J5,5,Pin_5*%
%TO.N,Net-(J3-Pin_2)*%
X158496000Y-110998000D03*
%TO.P,J5,6,Pin_6*%
%TO.N,Net-(J3-Pin_6)*%
X161036000Y-110998000D03*
%TD*%
D13*
%TO.P,U1,1,VCC*%
%TO.N,+5V*%
X145796000Y-105664000D03*
D14*
%TO.P,U1,2*%
%TO.N,Net-(R1-Pad1)*%
X145796000Y-108204000D03*
%TO.P,U1,3*%
%TO.N,RX*%
X145796000Y-110744000D03*
%TO.P,U1,4*%
%TO.N,Net-(CN1-PB0)*%
X145796000Y-113284000D03*
%TO.P,U1,5*%
%TO.N,RX*%
X145796000Y-115824000D03*
%TO.P,U1,6*%
%TO.N,RTS*%
X145796000Y-118364000D03*
%TO.P,U1,7*%
%TO.N,Net-(CN1-PB1)*%
X145796000Y-120904000D03*
%TO.P,U1,8,VSS*%
%TO.N,GND*%
X145796000Y-123444000D03*
%TO.P,U1,9*%
%TO.N,CTS*%
X153416000Y-123444000D03*
%TO.P,U1,10*%
%TO.N,Net-(CN1-PB6)*%
X153416000Y-120904000D03*
%TO.P,U1,11*%
%TO.N,Net-(CN1-PA2)*%
X153416000Y-118364000D03*
%TO.P,U1,12*%
%TO.N,TX*%
X153416000Y-115824000D03*
%TO.P,U1,13*%
%TO.N,N/C*%
X153416000Y-113284000D03*
%TO.P,U1,14*%
%TO.N,TX*%
X153416000Y-110744000D03*
%TO.P,U1,15*%
%TO.N,Net-(R2-Pad1)*%
X153416000Y-108204000D03*
%TO.P,U1,16*%
%TO.N,N/C*%
X153416000Y-105664000D03*
%TD*%
D11*
%TO.P,J2,1,A*%
%TO.N,Net-(J2-A)*%
X168661000Y-103124000D03*
D12*
%TO.P,J2,2,B*%
%TO.N,+5V*%
X166121000Y-103124000D03*
%TD*%
D15*
%TO.P,C1,1*%
%TO.N,+5V*%
X144311401Y-101346000D03*
D16*
%TO.P,C1,2*%
%TO.N,GND*%
X145811401Y-101346000D03*
%TD*%
D11*
%TO.P,J3,1,Pin_1*%
%TO.N,GND*%
X168656000Y-109474000D03*
D12*
%TO.P,J3,2,Pin_2*%
%TO.N,Net-(J3-Pin_2)*%
X168656000Y-112014000D03*
%TO.P,J3,3,Pin_3*%
%TO.N,Net-(J2-A)*%
X168656000Y-114554000D03*
%TO.P,J3,4,Pin_4*%
%TO.N,Net-(J3-Pin_4)*%
X168656000Y-117094000D03*
%TO.P,J3,5,Pin_5*%
%TO.N,Net-(J3-Pin_5)*%
X168656000Y-119634000D03*
%TO.P,J3,6,Pin_6*%
%TO.N,Net-(J3-Pin_6)*%
X168656000Y-122174000D03*
%TD*%
D17*
%TO.P,R2,1*%
%TO.N,Net-(R2-Pad1)*%
X139954000Y-95504000D03*
D14*
%TO.P,R2,2*%
%TO.N,Net-(D2-A)*%
X139954000Y-85344000D03*
%TD*%
D18*
%TO.P,D1,1,K*%
%TO.N,GND*%
X143764000Y-80264000D03*
D19*
%TO.P,D1,2,A*%
%TO.N,Net-(D1-A)*%
X141224000Y-80264000D03*
%TD*%
D11*
%TO.P,J1,1,A*%
%TO.N,Net-(CN1-FLAG)*%
X140716000Y-122174000D03*
D12*
%TO.P,J1,2,B*%
%TO.N,Net-(CN1-PB0)*%
X140716000Y-119634000D03*
%TD*%
D18*
%TO.P,D2,1,K*%
%TO.N,GND*%
X149352000Y-80264000D03*
D19*
%TO.P,D2,2,A*%
%TO.N,Net-(D2-A)*%
X146812000Y-80264000D03*
%TD*%
D17*
%TO.P,R1,1*%
%TO.N,Net-(R1-Pad1)*%
X139954000Y-108204000D03*
D14*
%TO.P,R1,2*%
%TO.N,Net-(D1-A)*%
X139954000Y-98044000D03*
%TD*%
D11*
%TO.P,J4,1,Pin_1*%
%TO.N,Net-(J3-Pin_5)*%
X158496000Y-118364000D03*
D12*
%TO.P,J4,2,Pin_2*%
%TO.N,Net-(J3-Pin_4)*%
X161036000Y-118364000D03*
%TO.P,J4,3,Pin_3*%
%TO.N,RX*%
X158496000Y-120904000D03*
%TO.P,J4,4,Pin_4*%
%TO.N,TX*%
X161036000Y-120904000D03*
%TO.P,J4,5,Pin_5*%
%TO.N,Net-(J3-Pin_4)*%
X158496000Y-123444000D03*
%TO.P,J4,6,Pin_6*%
%TO.N,Net-(J3-Pin_5)*%
X161036000Y-123444000D03*
%TD*%
D20*
%TO.N,GND*%
X165608000Y-107442000D03*
X155956000Y-105918000D03*
X141224000Y-109982000D03*
X158242000Y-114046000D03*
X151638000Y-105918000D03*
X136906000Y-85344000D03*
X144272000Y-119634000D03*
X148336000Y-117094000D03*
X137668000Y-124206000D03*
X148590000Y-108966000D03*
X139446000Y-79502000D03*
X143256000Y-122428000D03*
X166878000Y-117094000D03*
X139954000Y-114554000D03*
X173228000Y-98806000D03*
X155702000Y-124714000D03*
X166878000Y-104902000D03*
X154940000Y-117094000D03*
X147574000Y-101346000D03*
%TD*%
D21*
%TO.N,+5V*%
X144311401Y-102147401D02*
X144311401Y-101346000D01*
X164725000Y-104394000D02*
X149606000Y-104394000D01*
X149606000Y-104394000D02*
X147828000Y-102616000D01*
X147828000Y-102616000D02*
X144780000Y-102616000D01*
X166121000Y-102998000D02*
X164725000Y-104394000D01*
X144780000Y-102616000D02*
X144311401Y-102147401D01*
%TO.N,GND*%
X133096000Y-79442000D02*
X136712000Y-79442000D01*
X133096000Y-123442000D02*
X136904000Y-123442000D01*
X136712000Y-79442000D02*
X136906000Y-79248000D01*
%TO.N,CTS*%
X155956000Y-120904000D02*
X153416000Y-123444000D01*
X158496000Y-108458000D02*
X158242000Y-108458000D01*
X158242000Y-108458000D02*
X155956000Y-110744000D01*
X155956000Y-110744000D02*
X155956000Y-120904000D01*
%TO.N,RTS*%
X156718000Y-110998000D02*
X156718000Y-121920000D01*
X152146000Y-121158000D02*
X149352000Y-118364000D01*
X159766000Y-109728000D02*
X157988000Y-109728000D01*
X152146000Y-123952000D02*
X152146000Y-121158000D01*
X149352000Y-118364000D02*
X145796000Y-118364000D01*
X157988000Y-109728000D02*
X156718000Y-110998000D01*
X161036000Y-108458000D02*
X159766000Y-109728000D01*
X156718000Y-121920000D02*
X153924000Y-124714000D01*
X153924000Y-124714000D02*
X152908000Y-124714000D01*
X152908000Y-124714000D02*
X152146000Y-123952000D01*
%TO.N,Net-(CN1-FLAG)*%
X138176000Y-122174000D02*
X135444000Y-119442000D01*
X135444000Y-119442000D02*
X133096000Y-119442000D01*
X140716000Y-122174000D02*
X138176000Y-122174000D01*
%TO.N,Net-(CN1-PB0)*%
X135128000Y-115316000D02*
X133222000Y-115316000D01*
X133222000Y-115316000D02*
X133096000Y-115442000D01*
X140716000Y-119634000D02*
X139446000Y-119634000D01*
X139446000Y-119634000D02*
X135128000Y-115316000D01*
%TO.N,Net-(CN1-PB1)*%
X143002000Y-119888000D02*
X144018000Y-120904000D01*
X143002000Y-112522000D02*
X141986000Y-111506000D01*
X144018000Y-120904000D02*
X145796000Y-120904000D01*
X143002000Y-112522000D02*
X143002000Y-119888000D01*
X133160000Y-111506000D02*
X133096000Y-111442000D01*
X141986000Y-111506000D02*
X133160000Y-111506000D01*
%TO.N,Net-(CN1-PB6)*%
X151638000Y-119126000D02*
X153416000Y-120904000D01*
X137160000Y-92202000D02*
X137160000Y-98552000D01*
X151638000Y-108712000D02*
X151638000Y-119126000D01*
X136400000Y-91442000D02*
X137160000Y-92202000D01*
X137160000Y-98552000D02*
X142748000Y-104140000D01*
X142748000Y-104140000D02*
X147066000Y-104140000D01*
X133096000Y-91442000D02*
X136400000Y-91442000D01*
X147066000Y-104140000D02*
X151638000Y-108712000D01*
%TO.N,Net-(CN1-PA2)*%
X137668000Y-98298000D02*
X143002000Y-103632000D01*
X152146000Y-117094000D02*
X153416000Y-118364000D01*
X137668000Y-84328000D02*
X137668000Y-98298000D01*
X152146000Y-108458000D02*
X152146000Y-117094000D01*
X147320000Y-103632000D02*
X152146000Y-108458000D01*
X133096000Y-83442000D02*
X133220000Y-83566000D01*
X133220000Y-83566000D02*
X136906000Y-83566000D01*
X136906000Y-83566000D02*
X137668000Y-84328000D01*
X143002000Y-103632000D02*
X147320000Y-103632000D01*
%TO.N,Net-(J3-Pin_2)*%
X166116000Y-105918000D02*
X167132000Y-106934000D01*
X167132000Y-110490000D02*
X168656000Y-112014000D01*
X161036000Y-105918000D02*
X166116000Y-105918000D01*
X167132000Y-106934000D02*
X167132000Y-110490000D01*
%TO.N,Net-(J3-Pin_4)*%
X161162000Y-118364000D02*
X161036000Y-118238000D01*
X168656000Y-117094000D02*
X167386000Y-118364000D01*
X167386000Y-118364000D02*
X161162000Y-118364000D01*
%TO.N,Net-(J3-Pin_5)*%
X162560000Y-120396000D02*
X162560000Y-122936000D01*
X161162000Y-123444000D02*
X161036000Y-123318000D01*
X168656000Y-119634000D02*
X163322000Y-119634000D01*
X162560000Y-122936000D02*
X162052000Y-123444000D01*
X163322000Y-119634000D02*
X162560000Y-120396000D01*
X158496000Y-118364000D02*
X159766000Y-119634000D01*
X162052000Y-123444000D02*
X161162000Y-123444000D01*
X159766000Y-122174000D02*
X161036000Y-123444000D01*
X159766000Y-119634000D02*
X159766000Y-122174000D01*
%TO.N,Net-(J3-Pin_6)*%
X162052000Y-113792000D02*
X164084000Y-115824000D01*
X162306000Y-109728000D02*
X161036000Y-110998000D01*
X162306000Y-107950000D02*
X162306000Y-109728000D01*
X164084000Y-115824000D02*
X169164000Y-115824000D01*
X162052000Y-112014000D02*
X162052000Y-113792000D01*
X161036000Y-110998000D02*
X162052000Y-112014000D01*
X169164000Y-115824000D02*
X169926000Y-116586000D01*
X158496000Y-105918000D02*
X159766000Y-107188000D01*
X159766000Y-107188000D02*
X161544000Y-107188000D01*
X169926000Y-116586000D02*
X169926000Y-120904000D01*
X169926000Y-120904000D02*
X168656000Y-122174000D01*
X161544000Y-107188000D02*
X162306000Y-107950000D01*
%TO.N,Net-(J2-A)*%
X168661000Y-103129000D02*
X168661000Y-103124000D01*
X169926000Y-104394000D02*
X168661000Y-103129000D01*
X168656000Y-114554000D02*
X169926000Y-113284000D01*
X169926000Y-113284000D02*
X169926000Y-104394000D01*
%TO.N,Net-(R1-Pad1)*%
X145796000Y-108204000D02*
X139954000Y-108204000D01*
%TO.N,Net-(R2-Pad1)*%
X143256000Y-103124000D02*
X141224000Y-101092000D01*
X147574000Y-103124000D02*
X143256000Y-103124000D01*
X141224000Y-96774000D02*
X139954000Y-95504000D01*
X153416000Y-108204000D02*
X152654000Y-108204000D01*
X152654000Y-108204000D02*
X147574000Y-103124000D01*
X141224000Y-101092000D02*
X141224000Y-96774000D01*
%TO.N,Net-(D1-A)*%
X138430000Y-83058000D02*
X141224000Y-80264000D01*
X139954000Y-98044000D02*
X138430000Y-96520000D01*
X138430000Y-96520000D02*
X138430000Y-83058000D01*
%TO.N,Net-(D2-A)*%
X139954000Y-82804000D02*
X140716000Y-82042000D01*
X139954000Y-85344000D02*
X139954000Y-82804000D01*
X145034000Y-82042000D02*
X146812000Y-80264000D01*
X140716000Y-82042000D02*
X145034000Y-82042000D01*
%TD*%
%TA.AperFunction,Conductor*%
%TO.N,GND*%
G36*
X138110289Y-76975500D02*
G01*
X138153971Y-77011773D01*
X138176906Y-77063715D01*
X138210115Y-77241369D01*
X138278169Y-77417036D01*
X138377339Y-77577203D01*
X138504254Y-77716422D01*
X138654586Y-77829947D01*
X138823226Y-77913920D01*
X139004415Y-77965473D01*
X139045218Y-77969253D01*
X139192000Y-77982855D01*
X139350255Y-77968190D01*
X139379584Y-77965473D01*
X139560773Y-77913920D01*
X139729413Y-77829947D01*
X139879745Y-77716422D01*
X140006660Y-77577203D01*
X140006660Y-77577202D01*
X140105832Y-77417034D01*
X140173885Y-77241370D01*
X140207093Y-77063715D01*
X140230029Y-77011773D01*
X140273711Y-76975500D01*
X140328983Y-76962500D01*
X153364430Y-76962500D01*
X153411883Y-76971939D01*
X153452111Y-76998819D01*
X174715181Y-98261888D01*
X174742061Y-98302116D01*
X174751500Y-98349569D01*
X174751500Y-99955017D01*
X174738500Y-100010289D01*
X174702227Y-100053971D01*
X174650285Y-100076906D01*
X174472630Y-100110115D01*
X174296963Y-100178169D01*
X174136796Y-100277339D01*
X173997577Y-100404254D01*
X173884052Y-100554586D01*
X173800079Y-100723226D01*
X173748526Y-100904415D01*
X173731145Y-101092000D01*
X173748526Y-101279584D01*
X173800079Y-101460773D01*
X173884052Y-101629413D01*
X173997577Y-101779745D01*
X174136796Y-101906660D01*
X174246894Y-101974829D01*
X174296966Y-102005832D01*
X174472630Y-102073885D01*
X174636834Y-102104579D01*
X174650285Y-102107094D01*
X174702227Y-102130029D01*
X174738500Y-102173711D01*
X174751500Y-102228983D01*
X174751500Y-125605500D01*
X174734887Y-125667500D01*
X174689500Y-125712887D01*
X174627500Y-125729500D01*
X170180099Y-125729500D01*
X151892099Y-125729500D01*
X140328983Y-125729500D01*
X140273711Y-125716500D01*
X140230029Y-125680227D01*
X140207094Y-125628285D01*
X140202835Y-125605500D01*
X140173885Y-125450630D01*
X140105832Y-125274966D01*
X140066951Y-125212170D01*
X140006660Y-125114796D01*
X139879745Y-124975577D01*
X139729413Y-124862052D01*
X139560773Y-124778079D01*
X139379584Y-124726526D01*
X139192000Y-124709145D01*
X139004415Y-124726526D01*
X138823226Y-124778079D01*
X138654586Y-124862052D01*
X138504254Y-124975577D01*
X138377339Y-125114796D01*
X138278169Y-125274963D01*
X138210115Y-125450630D01*
X138176906Y-125628285D01*
X138153971Y-125680227D01*
X138110289Y-125716500D01*
X138055017Y-125729500D01*
X130172500Y-125729500D01*
X130110500Y-125712887D01*
X130065113Y-125667500D01*
X130048500Y-125605500D01*
X130048500Y-125502229D01*
X130061520Y-125446916D01*
X130097847Y-125403219D01*
X130149851Y-125380315D01*
X130206612Y-125383013D01*
X130377537Y-125431920D01*
X130490902Y-125441999D01*
X130742446Y-125441999D01*
X130742447Y-125441998D01*
X131449553Y-125441998D01*
X131449554Y-125441999D01*
X134742445Y-125441999D01*
X134742445Y-125441998D01*
X133095999Y-123795553D01*
X133095998Y-123795553D01*
X131449553Y-125441998D01*
X130742447Y-125441998D01*
X133008318Y-123176127D01*
X133063905Y-123144033D01*
X133128093Y-123144033D01*
X133183680Y-123176127D01*
X135449552Y-125441999D01*
X135701098Y-125441999D01*
X135814463Y-125431920D01*
X136000219Y-125378769D01*
X136171473Y-125289314D01*
X136321215Y-125167215D01*
X136443314Y-125017473D01*
X136532769Y-124846219D01*
X136585920Y-124660463D01*
X136595999Y-124547098D01*
X136595999Y-123694000D01*
X144517128Y-123694000D01*
X144569733Y-123890326D01*
X144665865Y-124096480D01*
X144796341Y-124282819D01*
X144957180Y-124443658D01*
X145143519Y-124574134D01*
X145349673Y-124670266D01*
X145545999Y-124722871D01*
X145546000Y-124722872D01*
X145546000Y-123694000D01*
X146046000Y-123694000D01*
X146046000Y-124722871D01*
X146242326Y-124670266D01*
X146448480Y-124574134D01*
X146634819Y-124443658D01*
X146795658Y-124282819D01*
X146926134Y-124096480D01*
X147022266Y-123890326D01*
X147074872Y-123694000D01*
X146046000Y-123694000D01*
X145546000Y-123694000D01*
X144517128Y-123694000D01*
X136595999Y-123694000D01*
X136595999Y-122336902D01*
X136585920Y-122223536D01*
X136532769Y-122037780D01*
X136443314Y-121866526D01*
X136321215Y-121716784D01*
X136171473Y-121594685D01*
X136090122Y-121552191D01*
X136041479Y-121506535D01*
X136023533Y-121442282D01*
X136041479Y-121378029D01*
X136090121Y-121332373D01*
X136171751Y-121289734D01*
X136214592Y-121254801D01*
X136269014Y-121229235D01*
X136329070Y-121232280D01*
X136380631Y-121263221D01*
X137032805Y-121915396D01*
X137675196Y-122557787D01*
X137688096Y-122573888D01*
X137739223Y-122621900D01*
X137742019Y-122624610D01*
X137761529Y-122644120D01*
X137764711Y-122646588D01*
X137773571Y-122654155D01*
X137805417Y-122684061D01*
X137805418Y-122684062D01*
X137822970Y-122693711D01*
X137839238Y-122704397D01*
X137855064Y-122716673D01*
X137895146Y-122734017D01*
X137905633Y-122739155D01*
X137943907Y-122760197D01*
X137952410Y-122762379D01*
X137963308Y-122765178D01*
X137981713Y-122771478D01*
X138000104Y-122779437D01*
X138043250Y-122786270D01*
X138054668Y-122788635D01*
X138096981Y-122799500D01*
X138117016Y-122799500D01*
X138136415Y-122801027D01*
X138156196Y-122804160D01*
X138199674Y-122800050D01*
X138211344Y-122799500D01*
X139241501Y-122799500D01*
X139303501Y-122816113D01*
X139348888Y-122861500D01*
X139365501Y-122923500D01*
X139365501Y-123071870D01*
X139371909Y-123131484D01*
X139385563Y-123168092D01*
X139422204Y-123266331D01*
X139508454Y-123381546D01*
X139623669Y-123467796D01*
X139758517Y-123518091D01*
X139818127Y-123524500D01*
X141613872Y-123524499D01*
X141673483Y-123518091D01*
X141808331Y-123467796D01*
X141923546Y-123381546D01*
X142009796Y-123266331D01*
X142060091Y-123131483D01*
X142066500Y-123071873D01*
X142066499Y-121276128D01*
X142060091Y-121216517D01*
X142009796Y-121081669D01*
X141923546Y-120966454D01*
X141808331Y-120880204D01*
X141746898Y-120857291D01*
X141676916Y-120831189D01*
X141626537Y-120796209D01*
X141599084Y-120741365D01*
X141601273Y-120680072D01*
X141632566Y-120627329D01*
X141754495Y-120505401D01*
X141890035Y-120311830D01*
X141989903Y-120097663D01*
X142051063Y-119869408D01*
X142071659Y-119634000D01*
X142051063Y-119398592D01*
X141989903Y-119170337D01*
X141890035Y-118956171D01*
X141754495Y-118762599D01*
X141587401Y-118595505D01*
X141393830Y-118459965D01*
X141179663Y-118360097D01*
X141118502Y-118343709D01*
X140951407Y-118298936D01*
X140716000Y-118278340D01*
X140480592Y-118298936D01*
X140252336Y-118360097D01*
X140038170Y-118459965D01*
X139844598Y-118595505D01*
X139677504Y-118762599D01*
X139672352Y-118769957D01*
X139632777Y-118806218D01*
X139581585Y-118822356D01*
X139528369Y-118815349D01*
X139483100Y-118786509D01*
X136632819Y-115936228D01*
X136605939Y-115896000D01*
X136596500Y-115848547D01*
X136596500Y-114336864D01*
X136594876Y-114318594D01*
X136586417Y-114223448D01*
X136533237Y-114037594D01*
X136443734Y-113866249D01*
X136321571Y-113716429D01*
X136171751Y-113594266D01*
X136090659Y-113551907D01*
X136042019Y-113506253D01*
X136024073Y-113442000D01*
X136042019Y-113377747D01*
X136090659Y-113332092D01*
X136171751Y-113289734D01*
X136321571Y-113167571D01*
X136443734Y-113017751D01*
X136533237Y-112846406D01*
X136586417Y-112660552D01*
X136596500Y-112547138D01*
X136596500Y-112255500D01*
X136613113Y-112193500D01*
X136658500Y-112148113D01*
X136720500Y-112131500D01*
X141675548Y-112131500D01*
X141723001Y-112140939D01*
X141763229Y-112167819D01*
X142340181Y-112744772D01*
X142367061Y-112785000D01*
X142376500Y-112832453D01*
X142376500Y-119805256D01*
X142374235Y-119825762D01*
X142376439Y-119895873D01*
X142376500Y-119899768D01*
X142376500Y-119927349D01*
X142377003Y-119931334D01*
X142377918Y-119942967D01*
X142379290Y-119986626D01*
X142384879Y-120005860D01*
X142388825Y-120024916D01*
X142391335Y-120044792D01*
X142407414Y-120085404D01*
X142411197Y-120096451D01*
X142423382Y-120138391D01*
X142433580Y-120155635D01*
X142442136Y-120173100D01*
X142449514Y-120191732D01*
X142449515Y-120191733D01*
X142475180Y-120227059D01*
X142481593Y-120236822D01*
X142503826Y-120274416D01*
X142503829Y-120274419D01*
X142503830Y-120274420D01*
X142517995Y-120288585D01*
X142530627Y-120303375D01*
X142542406Y-120319587D01*
X142576058Y-120347426D01*
X142584699Y-120355289D01*
X143517196Y-121287787D01*
X143530096Y-121303888D01*
X143581223Y-121351900D01*
X143584020Y-121354611D01*
X143603529Y-121374120D01*
X143606711Y-121376588D01*
X143615571Y-121384155D01*
X143647418Y-121414062D01*
X143660037Y-121420999D01*
X143664972Y-121423712D01*
X143681236Y-121434396D01*
X143691403Y-121442282D01*
X143697064Y-121446673D01*
X143721909Y-121457424D01*
X143737152Y-121464021D01*
X143747631Y-121469154D01*
X143785908Y-121490197D01*
X143805306Y-121495177D01*
X143823708Y-121501477D01*
X143842104Y-121509438D01*
X143885261Y-121516273D01*
X143896664Y-121518634D01*
X143938981Y-121529500D01*
X143959016Y-121529500D01*
X143978413Y-121531026D01*
X143998196Y-121534160D01*
X144041674Y-121530050D01*
X144053344Y-121529500D01*
X144581812Y-121529500D01*
X144639069Y-121543511D01*
X144683387Y-121582377D01*
X144795953Y-121743140D01*
X144956859Y-121904046D01*
X145143264Y-122034567D01*
X145143265Y-122034567D01*
X145143266Y-122034568D01*
X145201865Y-122061893D01*
X145254040Y-122107650D01*
X145273460Y-122174274D01*
X145254041Y-122240899D01*
X145201866Y-122286656D01*
X145143522Y-122313863D01*
X144957180Y-122444341D01*
X144796341Y-122605180D01*
X144665865Y-122791519D01*
X144569733Y-122997673D01*
X144517128Y-123193999D01*
X144517128Y-123194000D01*
X147074872Y-123194000D01*
X147074871Y-123193999D01*
X147022266Y-122997673D01*
X146926134Y-122791519D01*
X146795658Y-122605180D01*
X146634819Y-122444341D01*
X146448482Y-122313866D01*
X146390133Y-122286657D01*
X146337958Y-122240899D01*
X146318539Y-122174274D01*
X146337959Y-122107649D01*
X146390134Y-122061893D01*
X146448734Y-122034568D01*
X146635139Y-121904047D01*
X146796047Y-121743139D01*
X146926568Y-121556734D01*
X147022739Y-121350496D01*
X147081635Y-121130692D01*
X147101468Y-120904000D01*
X147081635Y-120677308D01*
X147022739Y-120457504D01*
X146926568Y-120251266D01*
X146924727Y-120248637D01*
X146796046Y-120064859D01*
X146635140Y-119903953D01*
X146448733Y-119773431D01*
X146390725Y-119746382D01*
X146338549Y-119700625D01*
X146319129Y-119634000D01*
X146338549Y-119567375D01*
X146390725Y-119521618D01*
X146448734Y-119494568D01*
X146635139Y-119364047D01*
X146796047Y-119203139D01*
X146908612Y-119042377D01*
X146952931Y-119003511D01*
X147010188Y-118989500D01*
X149041548Y-118989500D01*
X149089001Y-118998939D01*
X149129229Y-119025819D01*
X151484181Y-121380771D01*
X151511061Y-121420999D01*
X151520500Y-121468452D01*
X151520500Y-123869256D01*
X151518235Y-123889762D01*
X151520439Y-123959873D01*
X151520500Y-123963768D01*
X151520500Y-123991349D01*
X151521003Y-123995334D01*
X151521918Y-124006967D01*
X151523290Y-124050626D01*
X151528879Y-124069860D01*
X151532825Y-124088916D01*
X151535335Y-124108792D01*
X151551414Y-124149404D01*
X151555197Y-124160451D01*
X151567382Y-124202391D01*
X151577580Y-124219635D01*
X151586136Y-124237100D01*
X151593514Y-124255732D01*
X151593515Y-124255733D01*
X151619180Y-124291059D01*
X151625593Y-124300822D01*
X151647826Y-124338416D01*
X151647829Y-124338419D01*
X151647830Y-124338420D01*
X151661995Y-124352585D01*
X151674627Y-124367375D01*
X151686406Y-124383587D01*
X151720058Y-124411426D01*
X151728699Y-124419289D01*
X152407197Y-125097787D01*
X152420098Y-125113889D01*
X152422212Y-125115874D01*
X152422214Y-125115877D01*
X152469561Y-125160339D01*
X152471240Y-125161916D01*
X152474036Y-125164626D01*
X152493530Y-125184120D01*
X152496704Y-125186582D01*
X152505568Y-125194153D01*
X152537418Y-125224062D01*
X152547914Y-125229832D01*
X152554974Y-125233714D01*
X152571231Y-125244392D01*
X152587064Y-125256674D01*
X152603185Y-125263649D01*
X152627156Y-125274023D01*
X152637643Y-125279160D01*
X152675908Y-125300197D01*
X152695316Y-125305180D01*
X152713710Y-125311478D01*
X152732105Y-125319438D01*
X152775254Y-125326271D01*
X152786680Y-125328638D01*
X152802222Y-125332629D01*
X152828980Y-125339500D01*
X152828981Y-125339500D01*
X152849016Y-125339500D01*
X152868413Y-125341026D01*
X152888196Y-125344160D01*
X152931674Y-125340050D01*
X152943344Y-125339500D01*
X153841256Y-125339500D01*
X153861762Y-125341764D01*
X153864665Y-125341672D01*
X153864667Y-125341673D01*
X153931872Y-125339561D01*
X153935768Y-125339500D01*
X153963349Y-125339500D01*
X153963350Y-125339500D01*
X153967319Y-125338998D01*
X153978965Y-125338080D01*
X154022627Y-125336709D01*
X154041859Y-125331120D01*
X154060918Y-125327174D01*
X154068091Y-125326268D01*
X154080792Y-125324664D01*
X154121407Y-125308582D01*
X154132444Y-125304803D01*
X154174390Y-125292618D01*
X154191629Y-125282422D01*
X154209102Y-125273862D01*
X154227732Y-125266486D01*
X154263064Y-125240814D01*
X154272830Y-125234400D01*
X154310418Y-125212171D01*
X154310417Y-125212171D01*
X154310420Y-125212170D01*
X154324585Y-125198004D01*
X154339373Y-125185373D01*
X154355587Y-125173594D01*
X154383438Y-125139926D01*
X154391279Y-125131309D01*
X157101786Y-122420802D01*
X157117887Y-122407904D01*
X157119874Y-122405787D01*
X157119877Y-122405786D01*
X157165932Y-122356741D01*
X157168613Y-122353976D01*
X157188120Y-122334470D01*
X157190581Y-122331295D01*
X157198152Y-122322431D01*
X157228062Y-122290582D01*
X157237713Y-122273026D01*
X157248393Y-122256767D01*
X157260674Y-122240936D01*
X157278018Y-122200851D01*
X157283160Y-122190356D01*
X157286757Y-122183814D01*
X157304197Y-122152092D01*
X157309178Y-122132688D01*
X157315480Y-122114283D01*
X157323438Y-122095895D01*
X157330270Y-122052748D01*
X157332639Y-122041316D01*
X157343500Y-121999020D01*
X157343500Y-121978984D01*
X157345027Y-121959586D01*
X157347519Y-121943852D01*
X157375702Y-121882719D01*
X157431674Y-121845319D01*
X157498939Y-121842676D01*
X157557673Y-121875568D01*
X157624599Y-121942495D01*
X157810160Y-122072426D01*
X157849024Y-122116743D01*
X157863035Y-122174000D01*
X157849024Y-122231257D01*
X157810158Y-122275575D01*
X157730560Y-122331311D01*
X157624595Y-122405508D01*
X157457505Y-122572598D01*
X157321965Y-122766170D01*
X157222097Y-122980336D01*
X157160936Y-123208592D01*
X157140340Y-123444000D01*
X157160936Y-123679407D01*
X157205709Y-123846502D01*
X157222097Y-123907663D01*
X157321965Y-124121830D01*
X157457505Y-124315401D01*
X157624599Y-124482495D01*
X157818170Y-124618035D01*
X158032337Y-124717903D01*
X158260592Y-124779063D01*
X158496000Y-124799659D01*
X158731408Y-124779063D01*
X158959663Y-124717903D01*
X159173830Y-124618035D01*
X159367401Y-124482495D01*
X159534495Y-124315401D01*
X159664426Y-124129839D01*
X159708743Y-124090975D01*
X159766000Y-124076964D01*
X159823257Y-124090975D01*
X159867573Y-124129839D01*
X159997505Y-124315401D01*
X160164599Y-124482495D01*
X160358170Y-124618035D01*
X160572337Y-124717903D01*
X160800592Y-124779063D01*
X161036000Y-124799659D01*
X161271408Y-124779063D01*
X161499663Y-124717903D01*
X161713830Y-124618035D01*
X161907401Y-124482495D01*
X162074495Y-124315401D01*
X162210035Y-124121830D01*
X162225303Y-124089085D01*
X162256991Y-124047339D01*
X162298925Y-124024666D01*
X162302386Y-124022619D01*
X162302390Y-124022618D01*
X162319629Y-124012422D01*
X162337102Y-124003862D01*
X162355732Y-123996486D01*
X162391064Y-123970814D01*
X162400830Y-123964400D01*
X162438418Y-123942171D01*
X162438417Y-123942171D01*
X162438420Y-123942170D01*
X162452585Y-123928004D01*
X162467373Y-123915373D01*
X162483587Y-123903594D01*
X162511438Y-123869926D01*
X162519279Y-123861309D01*
X162943786Y-123436802D01*
X162959881Y-123423910D01*
X162961873Y-123421788D01*
X162961877Y-123421786D01*
X163007948Y-123372723D01*
X163010566Y-123370023D01*
X163030120Y-123350471D01*
X163032581Y-123347298D01*
X163040156Y-123338427D01*
X163070062Y-123306582D01*
X163079717Y-123289018D01*
X163090394Y-123272764D01*
X163102673Y-123256936D01*
X163120018Y-123216852D01*
X163125160Y-123206356D01*
X163131953Y-123194000D01*
X163146197Y-123168092D01*
X163151179Y-123148684D01*
X163157481Y-123130280D01*
X163165437Y-123111896D01*
X163172269Y-123068752D01*
X163174633Y-123057338D01*
X163185500Y-123015019D01*
X163185500Y-122994983D01*
X163187027Y-122975584D01*
X163190160Y-122955804D01*
X163186050Y-122912328D01*
X163185500Y-122900658D01*
X163185500Y-120706452D01*
X163194939Y-120658999D01*
X163221819Y-120618771D01*
X163544771Y-120295819D01*
X163584999Y-120268939D01*
X163632452Y-120259500D01*
X167380773Y-120259500D01*
X167438030Y-120273511D01*
X167482346Y-120312374D01*
X167617505Y-120505401D01*
X167784599Y-120672495D01*
X167970160Y-120802426D01*
X168009024Y-120846743D01*
X168023035Y-120904000D01*
X168009024Y-120961257D01*
X167970158Y-121005575D01*
X167837774Y-121098272D01*
X167784595Y-121135508D01*
X167617505Y-121302598D01*
X167481965Y-121496170D01*
X167382097Y-121710336D01*
X167320936Y-121938592D01*
X167300340Y-122173999D01*
X167320936Y-122409407D01*
X167363289Y-122567469D01*
X167382097Y-122637663D01*
X167481965Y-122851830D01*
X167617505Y-123045401D01*
X167784599Y-123212495D01*
X167978170Y-123348035D01*
X168192337Y-123447903D01*
X168420592Y-123509063D01*
X168656000Y-123529659D01*
X168891408Y-123509063D01*
X169119663Y-123447903D01*
X169333830Y-123348035D01*
X169527401Y-123212495D01*
X169694495Y-123045401D01*
X169830035Y-122851830D01*
X169929903Y-122637663D01*
X169991063Y-122409408D01*
X170011659Y-122174000D01*
X169991063Y-121938592D01*
X169964143Y-121838126D01*
X169964143Y-121773939D01*
X169996235Y-121718353D01*
X170309792Y-121404797D01*
X170325885Y-121391906D01*
X170327873Y-121389787D01*
X170327877Y-121389786D01*
X170373948Y-121340723D01*
X170376566Y-121338023D01*
X170396120Y-121318471D01*
X170398581Y-121315298D01*
X170406156Y-121306427D01*
X170436062Y-121274582D01*
X170445717Y-121257018D01*
X170456394Y-121240764D01*
X170468673Y-121224936D01*
X170486018Y-121184852D01*
X170491160Y-121174356D01*
X170512197Y-121136092D01*
X170517179Y-121116684D01*
X170523481Y-121098280D01*
X170531437Y-121079896D01*
X170538269Y-121036752D01*
X170540633Y-121025338D01*
X170551500Y-120983019D01*
X170551500Y-120962984D01*
X170553027Y-120943585D01*
X170553068Y-120943321D01*
X170556160Y-120923804D01*
X170552050Y-120880325D01*
X170551500Y-120868656D01*
X170551500Y-116668744D01*
X170553764Y-116648236D01*
X170553062Y-116625905D01*
X170551561Y-116578113D01*
X170551500Y-116574219D01*
X170551500Y-116546654D01*
X170551500Y-116546650D01*
X170550997Y-116542670D01*
X170550081Y-116531028D01*
X170548710Y-116487373D01*
X170543118Y-116468126D01*
X170539174Y-116449085D01*
X170536664Y-116429208D01*
X170520579Y-116388583D01*
X170516808Y-116377568D01*
X170504618Y-116335610D01*
X170494414Y-116318355D01*
X170485861Y-116300895D01*
X170484150Y-116296573D01*
X170478486Y-116282268D01*
X170452808Y-116246925D01*
X170446401Y-116237171D01*
X170439722Y-116225877D01*
X170424170Y-116199580D01*
X170410006Y-116185415D01*
X170397367Y-116170617D01*
X170385595Y-116154413D01*
X170351941Y-116126573D01*
X170343299Y-116118709D01*
X169749740Y-115525149D01*
X169719715Y-115476471D01*
X169714730Y-115419496D01*
X169735844Y-115366347D01*
X169830035Y-115231830D01*
X169929903Y-115017663D01*
X169991063Y-114789408D01*
X170011659Y-114554000D01*
X169991063Y-114318592D01*
X169964143Y-114218126D01*
X169964143Y-114153939D01*
X169996235Y-114098353D01*
X170309792Y-113784797D01*
X170325885Y-113771906D01*
X170327873Y-113769787D01*
X170327877Y-113769786D01*
X170373948Y-113720723D01*
X170376566Y-113718023D01*
X170396120Y-113698471D01*
X170398581Y-113695298D01*
X170406156Y-113686427D01*
X170436062Y-113654582D01*
X170445717Y-113637018D01*
X170456394Y-113620764D01*
X170468673Y-113604936D01*
X170486018Y-113564852D01*
X170491160Y-113554356D01*
X170512197Y-113516092D01*
X170517179Y-113496684D01*
X170523481Y-113478280D01*
X170531437Y-113459896D01*
X170538269Y-113416752D01*
X170540633Y-113405338D01*
X170551500Y-113363019D01*
X170551500Y-113342984D01*
X170553027Y-113323585D01*
X170553068Y-113323321D01*
X170556160Y-113303804D01*
X170552050Y-113260325D01*
X170551500Y-113248656D01*
X170551500Y-104476741D01*
X170553763Y-104456237D01*
X170551561Y-104386145D01*
X170551500Y-104382251D01*
X170551500Y-104354657D01*
X170551500Y-104354650D01*
X170550995Y-104350653D01*
X170550080Y-104339023D01*
X170548709Y-104295373D01*
X170543120Y-104276140D01*
X170539174Y-104257082D01*
X170536664Y-104237208D01*
X170520588Y-104196606D01*
X170516804Y-104185552D01*
X170504619Y-104143613D01*
X170504618Y-104143612D01*
X170504618Y-104143610D01*
X170494417Y-104126361D01*
X170485860Y-104108895D01*
X170478486Y-104090268D01*
X170452813Y-104054932D01*
X170446402Y-104045172D01*
X170443680Y-104040569D01*
X170424170Y-104007579D01*
X170410006Y-103993414D01*
X170397369Y-103978620D01*
X170385595Y-103962414D01*
X170385594Y-103962413D01*
X170351935Y-103934568D01*
X170343305Y-103926714D01*
X170047818Y-103631227D01*
X170020938Y-103590999D01*
X170011499Y-103543546D01*
X170011499Y-102226130D01*
X170009489Y-102207430D01*
X170005091Y-102166517D01*
X169954796Y-102031669D01*
X169868546Y-101916454D01*
X169753331Y-101830204D01*
X169618483Y-101779909D01*
X169558873Y-101773500D01*
X169558869Y-101773500D01*
X167763130Y-101773500D01*
X167703515Y-101779909D01*
X167568669Y-101830204D01*
X167453454Y-101916454D01*
X167367204Y-102031669D01*
X167318189Y-102163083D01*
X167283209Y-102213462D01*
X167228365Y-102240915D01*
X167167072Y-102238726D01*
X167114326Y-102207430D01*
X166992404Y-102085508D01*
X166992404Y-102085507D01*
X166992401Y-102085505D01*
X166798830Y-101949965D01*
X166584663Y-101850097D01*
X166523501Y-101833709D01*
X166356407Y-101788936D01*
X166121000Y-101768340D01*
X165885592Y-101788936D01*
X165657336Y-101850097D01*
X165443170Y-101949965D01*
X165249598Y-102085505D01*
X165082505Y-102252598D01*
X164946965Y-102446170D01*
X164847097Y-102660336D01*
X164785936Y-102888592D01*
X164765340Y-103123999D01*
X164785936Y-103359412D01*
X164786230Y-103360507D01*
X164786229Y-103362761D01*
X164786882Y-103370215D01*
X164786229Y-103370272D01*
X164786227Y-103424690D01*
X164754134Y-103480273D01*
X164502225Y-103732183D01*
X164462000Y-103759061D01*
X164414547Y-103768500D01*
X149916452Y-103768500D01*
X149868999Y-103759061D01*
X149828771Y-103732181D01*
X148328802Y-102232211D01*
X148315906Y-102216113D01*
X148264775Y-102168098D01*
X148261978Y-102165387D01*
X148242470Y-102145879D01*
X148239290Y-102143412D01*
X148230424Y-102135839D01*
X148198582Y-102105938D01*
X148181024Y-102096285D01*
X148164764Y-102085604D01*
X148148936Y-102073327D01*
X148108851Y-102055980D01*
X148098361Y-102050841D01*
X148060091Y-102029802D01*
X148040691Y-102024821D01*
X148022284Y-102018519D01*
X148003897Y-102010562D01*
X147960758Y-102003729D01*
X147949324Y-102001361D01*
X147907019Y-101990500D01*
X147886984Y-101990500D01*
X147867586Y-101988973D01*
X147860162Y-101987797D01*
X147847805Y-101985840D01*
X147847804Y-101985840D01*
X147814751Y-101988964D01*
X147804325Y-101989950D01*
X147792656Y-101990500D01*
X146919572Y-101990500D01*
X146859233Y-101974829D01*
X146814145Y-101931778D01*
X146795704Y-101872227D01*
X146808571Y-101811229D01*
X146841516Y-101745064D01*
X146897304Y-101548992D01*
X146916113Y-101345999D01*
X146897304Y-101143007D01*
X146841515Y-100946931D01*
X146750649Y-100764448D01*
X146748866Y-100762086D01*
X146748866Y-100762085D01*
X145899081Y-101611871D01*
X145843494Y-101643965D01*
X145779306Y-101643965D01*
X145723719Y-101611871D01*
X145545529Y-101433681D01*
X145513435Y-101378094D01*
X145513435Y-101313906D01*
X145545529Y-101258319D01*
X146392089Y-100411758D01*
X146392088Y-100411757D01*
X146303815Y-100357101D01*
X146113721Y-100283459D01*
X145913329Y-100246000D01*
X145709473Y-100246000D01*
X145509080Y-100283460D01*
X145322497Y-100355741D01*
X145260830Y-100362960D01*
X145203395Y-100339381D01*
X145153732Y-100302204D01*
X145018884Y-100251909D01*
X144959274Y-100245500D01*
X144959270Y-100245500D01*
X143663531Y-100245500D01*
X143603916Y-100251909D01*
X143469070Y-100302204D01*
X143353855Y-100388454D01*
X143267605Y-100503668D01*
X143217310Y-100638516D01*
X143210901Y-100698131D01*
X143210901Y-101894949D01*
X143197386Y-101951244D01*
X143159786Y-101995267D01*
X143106299Y-102017422D01*
X143048583Y-102012880D01*
X142999220Y-101982630D01*
X142660555Y-101643965D01*
X141885819Y-100869228D01*
X141858939Y-100829000D01*
X141849500Y-100781547D01*
X141849500Y-98805999D01*
X150469691Y-98805999D01*
X150488986Y-99100396D01*
X150546542Y-99389746D01*
X150641372Y-99669108D01*
X150708380Y-99804985D01*
X150771860Y-99933709D01*
X150878824Y-100093791D01*
X150935202Y-100178168D01*
X150935766Y-100179011D01*
X151130288Y-100400821D01*
X151352098Y-100595343D01*
X151597400Y-100759249D01*
X151820414Y-100869228D01*
X151862000Y-100889736D01*
X152141362Y-100984566D01*
X152430712Y-101042122D01*
X152430713Y-101042122D01*
X152430718Y-101042123D01*
X152725109Y-101061418D01*
X153019500Y-101042123D01*
X153048558Y-101036343D01*
X153308855Y-100984566D01*
X153588217Y-100889736D01*
X153588216Y-100889736D01*
X153588220Y-100889735D01*
X153852818Y-100759249D01*
X154098120Y-100595343D01*
X154319930Y-100400821D01*
X154514452Y-100179011D01*
X154678358Y-99933709D01*
X154808844Y-99669111D01*
X154864419Y-99505392D01*
X154903675Y-99389746D01*
X154961231Y-99100396D01*
X154961230Y-99100396D01*
X154961232Y-99100391D01*
X154980527Y-98806000D01*
X154961232Y-98511609D01*
X154918666Y-98297617D01*
X154903675Y-98222253D01*
X154808845Y-97942891D01*
X154746913Y-97817307D01*
X154678358Y-97678291D01*
X154514452Y-97432989D01*
X154319930Y-97211179D01*
X154103393Y-97021281D01*
X154098119Y-97016656D01*
X154016722Y-96962269D01*
X153852818Y-96852751D01*
X153693126Y-96773999D01*
X153588217Y-96722263D01*
X153308855Y-96627433D01*
X153019505Y-96569877D01*
X152725109Y-96550582D01*
X152430712Y-96569877D01*
X152141362Y-96627433D01*
X151862000Y-96722263D01*
X151597400Y-96852751D01*
X151352098Y-97016656D01*
X151130288Y-97211179D01*
X150935765Y-97432989D01*
X150771860Y-97678291D01*
X150641372Y-97942891D01*
X150546542Y-98222253D01*
X150488986Y-98511603D01*
X150469691Y-98805999D01*
X141849500Y-98805999D01*
X141849500Y-96856740D01*
X141851763Y-96836236D01*
X141849561Y-96766144D01*
X141849500Y-96762250D01*
X141849500Y-96734657D01*
X141849500Y-96734650D01*
X141848995Y-96730653D01*
X141848080Y-96719023D01*
X141846709Y-96675373D01*
X141841120Y-96656140D01*
X141837174Y-96637082D01*
X141834664Y-96617208D01*
X141818588Y-96576606D01*
X141814804Y-96565552D01*
X141802619Y-96523613D01*
X141802618Y-96523612D01*
X141802618Y-96523610D01*
X141792417Y-96506361D01*
X141783860Y-96488895D01*
X141776486Y-96470268D01*
X141750813Y-96434932D01*
X141744402Y-96425172D01*
X141722169Y-96387578D01*
X141708006Y-96373415D01*
X141695369Y-96358620D01*
X141683595Y-96342414D01*
X141683594Y-96342413D01*
X141649935Y-96314568D01*
X141641305Y-96306714D01*
X141253413Y-95918822D01*
X141221319Y-95863234D01*
X141221319Y-95799047D01*
X141239635Y-95730692D01*
X141259468Y-95504000D01*
X141239635Y-95277308D01*
X141180739Y-95057504D01*
X141084568Y-94851266D01*
X140954047Y-94664861D01*
X140954046Y-94664859D01*
X140793140Y-94503953D01*
X140606735Y-94373432D01*
X140400497Y-94277261D01*
X140180689Y-94218364D01*
X139954000Y-94198531D01*
X139727310Y-94218364D01*
X139507502Y-94277261D01*
X139301264Y-94373432D01*
X139250623Y-94408892D01*
X139187609Y-94431052D01*
X139122243Y-94417306D01*
X139073491Y-94371645D01*
X139055500Y-94307317D01*
X139055500Y-86540683D01*
X139073491Y-86476355D01*
X139122243Y-86430694D01*
X139187609Y-86416948D01*
X139250623Y-86439108D01*
X139301264Y-86474567D01*
X139301265Y-86474567D01*
X139301266Y-86474568D01*
X139507504Y-86570739D01*
X139727308Y-86629635D01*
X139954000Y-86649468D01*
X140180692Y-86629635D01*
X140400496Y-86570739D01*
X140606734Y-86474568D01*
X140793139Y-86344047D01*
X140954047Y-86183139D01*
X141084568Y-85996734D01*
X141180739Y-85790496D01*
X141239635Y-85570692D01*
X141259468Y-85344000D01*
X141239635Y-85117308D01*
X141180739Y-84897504D01*
X141084568Y-84691266D01*
X140986193Y-84550771D01*
X140954046Y-84504859D01*
X140793140Y-84343953D01*
X140632377Y-84231387D01*
X140593511Y-84187069D01*
X140579500Y-84129812D01*
X140579500Y-83114452D01*
X140588939Y-83066999D01*
X140615819Y-83026771D01*
X140938771Y-82703819D01*
X140978999Y-82676939D01*
X141026452Y-82667500D01*
X144951256Y-82667500D01*
X144971762Y-82669764D01*
X144974665Y-82669672D01*
X144974667Y-82669673D01*
X145041872Y-82667561D01*
X145045768Y-82667500D01*
X145073349Y-82667500D01*
X145073350Y-82667500D01*
X145077319Y-82666998D01*
X145088965Y-82666080D01*
X145132627Y-82664709D01*
X145151859Y-82659120D01*
X145170918Y-82655174D01*
X145177196Y-82654381D01*
X145190792Y-82652664D01*
X145231407Y-82636582D01*
X145242444Y-82632803D01*
X145284390Y-82620618D01*
X145301629Y-82610422D01*
X145319102Y-82601862D01*
X145337732Y-82594486D01*
X145373064Y-82568814D01*
X145382830Y-82562400D01*
X145420418Y-82540171D01*
X145420417Y-82540171D01*
X145420420Y-82540170D01*
X145434585Y-82526004D01*
X145449373Y-82513373D01*
X145465587Y-82501594D01*
X145493438Y-82467926D01*
X145501279Y-82459309D01*
X146313480Y-81647108D01*
X146373212Y-81613981D01*
X146441423Y-81617510D01*
X146467019Y-81626298D01*
X146695951Y-81664500D01*
X146928048Y-81664500D01*
X146928049Y-81664500D01*
X147156981Y-81626298D01*
X147376503Y-81550936D01*
X147580626Y-81440470D01*
X147763784Y-81297913D01*
X147772511Y-81288432D01*
X147825132Y-81254577D01*
X147887588Y-81250727D01*
X147943971Y-81277865D01*
X147979924Y-81329079D01*
X148008647Y-81406088D01*
X148094811Y-81521188D01*
X148209910Y-81607352D01*
X148344624Y-81657597D01*
X148404176Y-81664000D01*
X149102000Y-81664000D01*
X149102000Y-80514000D01*
X149602000Y-80514000D01*
X149602000Y-81664000D01*
X150299824Y-81664000D01*
X150359375Y-81657597D01*
X150494089Y-81607352D01*
X150609188Y-81521188D01*
X150695352Y-81406089D01*
X150745597Y-81271375D01*
X150752000Y-81211824D01*
X150752000Y-80514000D01*
X149602000Y-80514000D01*
X149102000Y-80514000D01*
X149102000Y-78864000D01*
X149602000Y-78864000D01*
X149602000Y-80014000D01*
X150752000Y-80014000D01*
X150752000Y-79316176D01*
X150745597Y-79256624D01*
X150695352Y-79121910D01*
X150609188Y-79006811D01*
X150494089Y-78920647D01*
X150359375Y-78870402D01*
X150299824Y-78864000D01*
X149602000Y-78864000D01*
X149102000Y-78864000D01*
X148404176Y-78864000D01*
X148344624Y-78870402D01*
X148209910Y-78920647D01*
X148094811Y-79006811D01*
X148008645Y-79121913D01*
X147979923Y-79198920D01*
X147943971Y-79250134D01*
X147887589Y-79277271D01*
X147825135Y-79273423D01*
X147772513Y-79239569D01*
X147763784Y-79230087D01*
X147580626Y-79087530D01*
X147376503Y-78977064D01*
X147376499Y-78977062D01*
X147376498Y-78977062D01*
X147156984Y-78901702D01*
X146969410Y-78870402D01*
X146928049Y-78863500D01*
X146695951Y-78863500D01*
X146654590Y-78870402D01*
X146467015Y-78901702D01*
X146247501Y-78977062D01*
X146247497Y-78977063D01*
X146247497Y-78977064D01*
X146111415Y-79050707D01*
X146043372Y-79087531D01*
X145860215Y-79230087D01*
X145703020Y-79400848D01*
X145576076Y-79595150D01*
X145482844Y-79807696D01*
X145482842Y-79807700D01*
X145482843Y-79807700D01*
X145430601Y-80014000D01*
X145425865Y-80032700D01*
X145406699Y-80264000D01*
X145425865Y-80495301D01*
X145463175Y-80642637D01*
X145462520Y-80705995D01*
X145430651Y-80760757D01*
X145375682Y-80815727D01*
X145326319Y-80845978D01*
X145268603Y-80850520D01*
X145215115Y-80828365D01*
X145177515Y-80784342D01*
X145164000Y-80728047D01*
X145164000Y-80514000D01*
X143638000Y-80514000D01*
X143576000Y-80497387D01*
X143530613Y-80452000D01*
X143514000Y-80390000D01*
X143514000Y-78864000D01*
X144014000Y-78864000D01*
X144014000Y-80014000D01*
X145164000Y-80014000D01*
X145164000Y-79316176D01*
X145157597Y-79256624D01*
X145107352Y-79121910D01*
X145021188Y-79006811D01*
X144906089Y-78920647D01*
X144771375Y-78870402D01*
X144711824Y-78864000D01*
X144014000Y-78864000D01*
X143514000Y-78864000D01*
X142816176Y-78864000D01*
X142756624Y-78870402D01*
X142621910Y-78920647D01*
X142506811Y-79006811D01*
X142420645Y-79121913D01*
X142391923Y-79198920D01*
X142355971Y-79250134D01*
X142299589Y-79277271D01*
X142237135Y-79273423D01*
X142184513Y-79239569D01*
X142175784Y-79230087D01*
X141992626Y-79087530D01*
X141788503Y-78977064D01*
X141788499Y-78977062D01*
X141788498Y-78977062D01*
X141568984Y-78901702D01*
X141381410Y-78870402D01*
X141340049Y-78863500D01*
X141107951Y-78863500D01*
X141066590Y-78870402D01*
X140879015Y-78901702D01*
X140659501Y-78977062D01*
X140659497Y-78977063D01*
X140659497Y-78977064D01*
X140523415Y-79050707D01*
X140455372Y-79087531D01*
X140272215Y-79230087D01*
X140115020Y-79400848D01*
X139988076Y-79595150D01*
X139894844Y-79807696D01*
X139894842Y-79807700D01*
X139894843Y-79807700D01*
X139842601Y-80014000D01*
X139837865Y-80032700D01*
X139818699Y-80264000D01*
X139837865Y-80495301D01*
X139875175Y-80642636D01*
X139874520Y-80705994D01*
X139842650Y-80760757D01*
X138046208Y-82557199D01*
X138030110Y-82570096D01*
X137982096Y-82621225D01*
X137979391Y-82624017D01*
X137959874Y-82643534D01*
X137957415Y-82646705D01*
X137949842Y-82655572D01*
X137919935Y-82687420D01*
X137910285Y-82704974D01*
X137899609Y-82721228D01*
X137887326Y-82737063D01*
X137869975Y-82777158D01*
X137864838Y-82787644D01*
X137843802Y-82825907D01*
X137838821Y-82845309D01*
X137832520Y-82863711D01*
X137824561Y-82882102D01*
X137817728Y-82925242D01*
X137815360Y-82936674D01*
X137804500Y-82978978D01*
X137804500Y-82999016D01*
X137802973Y-83018415D01*
X137800251Y-83035604D01*
X137799840Y-83038196D01*
X137800397Y-83044090D01*
X137803950Y-83081675D01*
X137804500Y-83093344D01*
X137804500Y-83280547D01*
X137790985Y-83336842D01*
X137753385Y-83380865D01*
X137699898Y-83403020D01*
X137642182Y-83398478D01*
X137592819Y-83368228D01*
X137406802Y-83182211D01*
X137393906Y-83166113D01*
X137342775Y-83118098D01*
X137339978Y-83115387D01*
X137320470Y-83095879D01*
X137317290Y-83093412D01*
X137308424Y-83085839D01*
X137276582Y-83055938D01*
X137259024Y-83046285D01*
X137242764Y-83035604D01*
X137226936Y-83023327D01*
X137186851Y-83005980D01*
X137176361Y-83000841D01*
X137138091Y-82979802D01*
X137118691Y-82974821D01*
X137100284Y-82968519D01*
X137081897Y-82960562D01*
X137038758Y-82953729D01*
X137027324Y-82951361D01*
X136985019Y-82940500D01*
X136964984Y-82940500D01*
X136945586Y-82938973D01*
X136931070Y-82936674D01*
X136925805Y-82935840D01*
X136925804Y-82935840D01*
X136892751Y-82938964D01*
X136882325Y-82939950D01*
X136870656Y-82940500D01*
X136720500Y-82940500D01*
X136658500Y-82923887D01*
X136613113Y-82878500D01*
X136596500Y-82816500D01*
X136596500Y-82336864D01*
X136596500Y-82336862D01*
X136586417Y-82223448D01*
X136533237Y-82037594D01*
X136443734Y-81866249D01*
X136321571Y-81716429D01*
X136171751Y-81594266D01*
X136166085Y-81591306D01*
X136090120Y-81551625D01*
X136041478Y-81505969D01*
X136023533Y-81441716D01*
X136041479Y-81377463D01*
X136090123Y-81331808D01*
X136171471Y-81289315D01*
X136321215Y-81167215D01*
X136443314Y-81017473D01*
X136532769Y-80846219D01*
X136585920Y-80660463D01*
X136595999Y-80547098D01*
X136595999Y-78336902D01*
X136585920Y-78223536D01*
X136532769Y-78037780D01*
X136443314Y-77866526D01*
X136321215Y-77716784D01*
X136171473Y-77594685D01*
X136000219Y-77505230D01*
X135814463Y-77452079D01*
X135701098Y-77442000D01*
X135449551Y-77442000D01*
X133183680Y-79707871D01*
X133128093Y-79739965D01*
X133063905Y-79739965D01*
X133008318Y-79707871D01*
X130742447Y-77442000D01*
X131449553Y-77442000D01*
X133096000Y-79088446D01*
X133096001Y-79088446D01*
X134742445Y-77442000D01*
X131449553Y-77442000D01*
X130742447Y-77442000D01*
X130490902Y-77442000D01*
X130377537Y-77452079D01*
X130206612Y-77500987D01*
X130149851Y-77503685D01*
X130097847Y-77480781D01*
X130061520Y-77437084D01*
X130048500Y-77381771D01*
X130048500Y-77086500D01*
X130065113Y-77024500D01*
X130110500Y-76979113D01*
X130172500Y-76962500D01*
X138055017Y-76962500D01*
X138110289Y-76975500D01*
G37*
%TD.AperFunction*%
%TA.AperFunction,Conductor*%
G36*
X157083500Y-105036113D02*
G01*
X157128887Y-105081500D01*
X157145500Y-105143500D01*
X157145500Y-106815869D01*
X157151909Y-106875484D01*
X157167903Y-106918365D01*
X157202204Y-107010331D01*
X157288454Y-107125546D01*
X157403669Y-107211796D01*
X157515907Y-107253658D01*
X157535082Y-107260810D01*
X157585462Y-107295789D01*
X157612915Y-107350634D01*
X157610726Y-107411926D01*
X157579431Y-107464673D01*
X157457503Y-107586601D01*
X157321965Y-107780170D01*
X157222097Y-107994336D01*
X157160936Y-108222592D01*
X157140340Y-108458000D01*
X157152764Y-108600002D01*
X157145758Y-108653220D01*
X157116917Y-108698490D01*
X155572208Y-110243199D01*
X155556110Y-110256096D01*
X155508096Y-110307225D01*
X155505391Y-110310017D01*
X155485874Y-110329534D01*
X155483415Y-110332705D01*
X155475842Y-110341572D01*
X155445935Y-110373420D01*
X155436285Y-110390974D01*
X155425609Y-110407228D01*
X155413326Y-110423063D01*
X155395975Y-110463158D01*
X155390838Y-110473644D01*
X155369802Y-110511907D01*
X155364821Y-110531309D01*
X155358520Y-110549711D01*
X155350561Y-110568102D01*
X155343728Y-110611242D01*
X155341360Y-110622674D01*
X155330500Y-110664978D01*
X155330500Y-110685016D01*
X155328973Y-110704415D01*
X155325840Y-110724194D01*
X155329950Y-110767675D01*
X155330500Y-110779344D01*
X155330500Y-120593547D01*
X155321061Y-120641000D01*
X155294181Y-120681228D01*
X154928819Y-121046589D01*
X154877392Y-121077490D01*
X154817477Y-121080630D01*
X154763102Y-121055274D01*
X154726995Y-121007358D01*
X154717610Y-120948100D01*
X154721468Y-120903999D01*
X154712581Y-120802425D01*
X154701635Y-120677308D01*
X154642739Y-120457504D01*
X154546568Y-120251266D01*
X154544727Y-120248637D01*
X154416046Y-120064859D01*
X154255140Y-119903953D01*
X154068733Y-119773431D01*
X154010725Y-119746382D01*
X153958549Y-119700625D01*
X153939129Y-119634000D01*
X153958549Y-119567375D01*
X154010725Y-119521618D01*
X154068734Y-119494568D01*
X154255139Y-119364047D01*
X154416047Y-119203139D01*
X154546568Y-119016734D01*
X154642739Y-118810496D01*
X154701635Y-118590692D01*
X154721468Y-118364000D01*
X154701635Y-118137308D01*
X154642739Y-117917504D01*
X154546568Y-117711266D01*
X154538442Y-117699661D01*
X154416046Y-117524859D01*
X154255140Y-117363953D01*
X154068733Y-117233431D01*
X154010725Y-117206382D01*
X153958549Y-117160625D01*
X153939129Y-117094000D01*
X153958549Y-117027375D01*
X154010725Y-116981618D01*
X154068734Y-116954568D01*
X154255139Y-116824047D01*
X154416047Y-116663139D01*
X154546568Y-116476734D01*
X154642739Y-116270496D01*
X154701635Y-116050692D01*
X154721468Y-115824000D01*
X154701635Y-115597308D01*
X154642739Y-115377504D01*
X154546568Y-115171266D01*
X154525463Y-115141125D01*
X154416046Y-114984859D01*
X154255140Y-114823953D01*
X154068732Y-114693430D01*
X154010724Y-114666380D01*
X153958549Y-114620623D01*
X153939130Y-114553997D01*
X153958550Y-114487373D01*
X154010721Y-114441619D01*
X154068734Y-114414568D01*
X154255139Y-114284047D01*
X154416047Y-114123139D01*
X154546568Y-113936734D01*
X154642739Y-113730496D01*
X154701635Y-113510692D01*
X154721468Y-113284000D01*
X154701635Y-113057308D01*
X154642739Y-112837504D01*
X154546568Y-112631266D01*
X154527997Y-112604744D01*
X154416046Y-112444859D01*
X154255140Y-112283953D01*
X154068733Y-112153431D01*
X154010725Y-112126382D01*
X153958549Y-112080625D01*
X153939129Y-112014000D01*
X153958549Y-111947375D01*
X154010725Y-111901618D01*
X154042575Y-111886766D01*
X154068734Y-111874568D01*
X154255139Y-111744047D01*
X154416047Y-111583139D01*
X154546568Y-111396734D01*
X154642739Y-111190496D01*
X154701635Y-110970692D01*
X154721468Y-110744000D01*
X154716516Y-110687404D01*
X154710377Y-110617233D01*
X154701635Y-110517308D01*
X154642739Y-110297504D01*
X154546568Y-110091266D01*
X154516928Y-110048936D01*
X154416046Y-109904859D01*
X154255140Y-109743953D01*
X154068733Y-109613431D01*
X154010725Y-109586382D01*
X153958549Y-109540625D01*
X153939129Y-109474000D01*
X153958549Y-109407375D01*
X154010725Y-109361618D01*
X154068734Y-109334568D01*
X154255139Y-109204047D01*
X154416047Y-109043139D01*
X154546568Y-108856734D01*
X154642739Y-108650496D01*
X154701635Y-108430692D01*
X154721468Y-108204000D01*
X154701635Y-107977308D01*
X154642739Y-107757504D01*
X154546568Y-107551266D01*
X154534910Y-107534617D01*
X154416046Y-107364859D01*
X154255140Y-107203953D01*
X154068732Y-107073430D01*
X154010724Y-107046380D01*
X153958549Y-107000623D01*
X153939130Y-106933997D01*
X153958550Y-106867373D01*
X154010721Y-106821619D01*
X154068734Y-106794568D01*
X154255139Y-106664047D01*
X154416047Y-106503139D01*
X154546568Y-106316734D01*
X154642739Y-106110496D01*
X154701635Y-105890692D01*
X154721468Y-105664000D01*
X154701635Y-105437308D01*
X154642739Y-105217504D01*
X154632666Y-105195904D01*
X154621314Y-105135390D01*
X154640468Y-105076875D01*
X154685406Y-105034786D01*
X154745049Y-105019500D01*
X157021500Y-105019500D01*
X157083500Y-105036113D01*
G37*
%TD.AperFunction*%
%TA.AperFunction,Conductor*%
G36*
X136758818Y-99054521D02*
G01*
X136808180Y-99084770D01*
X139534638Y-101811229D01*
X142247196Y-104523787D01*
X142260096Y-104539888D01*
X142311223Y-104587900D01*
X142314020Y-104590611D01*
X142333529Y-104610120D01*
X142336711Y-104612588D01*
X142345571Y-104620155D01*
X142377417Y-104650061D01*
X142377418Y-104650062D01*
X142394970Y-104659711D01*
X142411238Y-104670397D01*
X142427064Y-104682673D01*
X142467146Y-104700017D01*
X142477633Y-104705155D01*
X142515907Y-104726197D01*
X142524410Y-104728379D01*
X142535308Y-104731178D01*
X142553713Y-104737478D01*
X142572104Y-104745437D01*
X142615250Y-104752270D01*
X142626668Y-104754635D01*
X142668981Y-104765500D01*
X142689016Y-104765500D01*
X142708415Y-104767027D01*
X142728196Y-104770160D01*
X142771674Y-104766050D01*
X142783344Y-104765500D01*
X144371500Y-104765500D01*
X144433500Y-104782113D01*
X144478887Y-104827500D01*
X144495500Y-104889500D01*
X144495500Y-106511869D01*
X144500407Y-106557511D01*
X144501909Y-106571483D01*
X144552204Y-106706331D01*
X144638454Y-106821546D01*
X144753669Y-106907796D01*
X144888517Y-106958091D01*
X144923594Y-106961862D01*
X144979513Y-106982239D01*
X145019497Y-107026327D01*
X145034332Y-107083968D01*
X145020600Y-107141881D01*
X144981464Y-107186724D01*
X144956860Y-107203952D01*
X144795953Y-107364859D01*
X144683387Y-107525623D01*
X144639069Y-107564489D01*
X144581812Y-107578500D01*
X141168188Y-107578500D01*
X141110931Y-107564489D01*
X141066613Y-107525623D01*
X140954046Y-107364859D01*
X140793140Y-107203953D01*
X140606735Y-107073432D01*
X140400497Y-106977261D01*
X140180689Y-106918364D01*
X139954000Y-106898531D01*
X139727310Y-106918364D01*
X139507502Y-106977261D01*
X139301264Y-107073432D01*
X139114859Y-107203953D01*
X138953953Y-107364859D01*
X138823432Y-107551264D01*
X138727261Y-107757502D01*
X138668364Y-107977310D01*
X138648531Y-108203999D01*
X138668364Y-108430689D01*
X138727261Y-108650497D01*
X138823432Y-108856735D01*
X138953953Y-109043140D01*
X139114859Y-109204046D01*
X139301264Y-109334567D01*
X139301265Y-109334567D01*
X139301266Y-109334568D01*
X139507504Y-109430739D01*
X139727308Y-109489635D01*
X139954000Y-109509468D01*
X140180692Y-109489635D01*
X140400496Y-109430739D01*
X140606734Y-109334568D01*
X140793139Y-109204047D01*
X140954047Y-109043139D01*
X141066612Y-108882377D01*
X141110931Y-108843511D01*
X141168188Y-108829500D01*
X144581812Y-108829500D01*
X144639069Y-108843511D01*
X144683387Y-108882377D01*
X144795953Y-109043140D01*
X144956859Y-109204046D01*
X145100311Y-109304491D01*
X145143266Y-109334568D01*
X145201275Y-109361618D01*
X145253450Y-109407375D01*
X145272869Y-109474000D01*
X145253450Y-109540625D01*
X145201275Y-109586382D01*
X145143263Y-109613433D01*
X144956859Y-109743953D01*
X144795953Y-109904859D01*
X144665432Y-110091264D01*
X144569261Y-110297502D01*
X144510364Y-110517310D01*
X144490531Y-110743999D01*
X144510364Y-110970689D01*
X144569261Y-111190497D01*
X144665432Y-111396735D01*
X144795953Y-111583140D01*
X144956859Y-111744046D01*
X145006198Y-111778593D01*
X145143266Y-111874568D01*
X145201275Y-111901618D01*
X145253450Y-111947375D01*
X145272869Y-112014000D01*
X145253450Y-112080625D01*
X145201275Y-112126381D01*
X145180576Y-112136033D01*
X145143263Y-112153433D01*
X144956859Y-112283953D01*
X144795953Y-112444859D01*
X144665432Y-112631264D01*
X144569261Y-112837502D01*
X144510364Y-113057310D01*
X144490531Y-113283999D01*
X144510364Y-113510689D01*
X144569261Y-113730497D01*
X144665432Y-113936735D01*
X144795953Y-114123140D01*
X144956859Y-114284046D01*
X145032289Y-114336862D01*
X145143266Y-114414568D01*
X145201273Y-114441617D01*
X145253449Y-114487373D01*
X145272869Y-114553997D01*
X145253451Y-114620622D01*
X145201276Y-114666380D01*
X145143266Y-114693431D01*
X144956859Y-114823953D01*
X144795953Y-114984859D01*
X144665432Y-115171264D01*
X144569261Y-115377502D01*
X144510364Y-115597310D01*
X144490531Y-115823999D01*
X144510364Y-116050689D01*
X144569261Y-116270497D01*
X144665432Y-116476735D01*
X144795953Y-116663140D01*
X144956859Y-116824046D01*
X145143263Y-116954566D01*
X145143266Y-116954568D01*
X145201275Y-116981618D01*
X145253450Y-117027375D01*
X145272869Y-117094000D01*
X145253450Y-117160625D01*
X145201275Y-117206382D01*
X145143263Y-117233433D01*
X144956859Y-117363953D01*
X144795953Y-117524859D01*
X144665432Y-117711264D01*
X144569261Y-117917502D01*
X144510364Y-118137310D01*
X144490531Y-118363999D01*
X144510364Y-118590689D01*
X144569261Y-118810497D01*
X144665432Y-119016735D01*
X144795953Y-119203140D01*
X144956859Y-119364046D01*
X145143263Y-119494566D01*
X145143266Y-119494568D01*
X145201275Y-119521618D01*
X145253450Y-119567375D01*
X145272869Y-119634000D01*
X145253450Y-119700625D01*
X145201275Y-119746382D01*
X145143263Y-119773433D01*
X144956859Y-119903953D01*
X144795953Y-120064859D01*
X144683387Y-120225623D01*
X144639069Y-120264489D01*
X144581812Y-120278500D01*
X144328452Y-120278500D01*
X144280999Y-120269061D01*
X144240771Y-120242181D01*
X143663819Y-119665228D01*
X143636939Y-119625000D01*
X143627500Y-119577547D01*
X143627500Y-112604744D01*
X143629764Y-112584237D01*
X143627561Y-112514127D01*
X143627500Y-112510232D01*
X143627500Y-112482653D01*
X143626997Y-112478672D01*
X143626080Y-112467019D01*
X143625643Y-112453106D01*
X143624709Y-112423373D01*
X143619120Y-112404140D01*
X143615174Y-112385082D01*
X143612664Y-112365206D01*
X143596588Y-112324604D01*
X143592804Y-112313553D01*
X143580703Y-112271903D01*
X143580618Y-112271610D01*
X143570414Y-112254355D01*
X143561861Y-112236895D01*
X143554486Y-112218269D01*
X143554486Y-112218268D01*
X143528808Y-112182925D01*
X143522401Y-112173171D01*
X143510728Y-112153433D01*
X143500170Y-112135580D01*
X143486005Y-112121415D01*
X143473367Y-112106617D01*
X143461595Y-112090413D01*
X143427941Y-112062573D01*
X143419299Y-112054709D01*
X142486802Y-111122211D01*
X142473906Y-111106113D01*
X142422775Y-111058098D01*
X142419978Y-111055387D01*
X142400470Y-111035879D01*
X142397290Y-111033412D01*
X142388424Y-111025839D01*
X142356582Y-110995938D01*
X142339024Y-110986285D01*
X142322764Y-110975604D01*
X142306936Y-110963327D01*
X142266851Y-110945980D01*
X142256361Y-110940841D01*
X142218091Y-110919802D01*
X142198691Y-110914821D01*
X142180284Y-110908519D01*
X142161897Y-110900562D01*
X142118758Y-110893729D01*
X142107324Y-110891361D01*
X142065019Y-110880500D01*
X142044984Y-110880500D01*
X142025586Y-110878973D01*
X142018162Y-110877797D01*
X142005805Y-110875840D01*
X142005804Y-110875840D01*
X141972751Y-110878964D01*
X141962325Y-110879950D01*
X141950656Y-110880500D01*
X136720500Y-110880500D01*
X136658500Y-110863887D01*
X136613113Y-110818500D01*
X136596500Y-110756500D01*
X136596500Y-110336864D01*
X136596130Y-110332705D01*
X136586417Y-110223448D01*
X136533237Y-110037594D01*
X136443734Y-109866249D01*
X136321571Y-109716429D01*
X136171751Y-109594266D01*
X136090659Y-109551907D01*
X136042019Y-109506253D01*
X136024073Y-109442000D01*
X136042019Y-109377747D01*
X136090659Y-109332092D01*
X136171751Y-109289734D01*
X136321571Y-109167571D01*
X136443734Y-109017751D01*
X136533237Y-108846406D01*
X136586417Y-108660552D01*
X136596500Y-108547138D01*
X136596500Y-106336862D01*
X136586417Y-106223448D01*
X136533237Y-106037594D01*
X136443734Y-105866249D01*
X136321571Y-105716429D01*
X136171751Y-105594266D01*
X136090659Y-105551907D01*
X136042019Y-105506253D01*
X136024073Y-105442000D01*
X136042019Y-105377747D01*
X136090659Y-105332092D01*
X136171751Y-105289734D01*
X136321571Y-105167571D01*
X136443734Y-105017751D01*
X136533237Y-104846406D01*
X136586417Y-104660552D01*
X136596500Y-104547138D01*
X136596500Y-102336862D01*
X136586417Y-102223448D01*
X136533237Y-102037594D01*
X136443734Y-101866249D01*
X136321571Y-101716429D01*
X136171751Y-101594266D01*
X136090659Y-101551907D01*
X136042019Y-101506253D01*
X136024073Y-101442000D01*
X136042019Y-101377747D01*
X136090659Y-101332092D01*
X136171751Y-101289734D01*
X136321571Y-101167571D01*
X136443734Y-101017751D01*
X136533237Y-100846406D01*
X136586417Y-100660552D01*
X136596500Y-100547138D01*
X136596500Y-99172452D01*
X136610015Y-99116157D01*
X136647615Y-99072134D01*
X136701102Y-99049979D01*
X136758818Y-99054521D01*
G37*
%TD.AperFunction*%
%TA.AperFunction,Conductor*%
G36*
X147258817Y-105236520D02*
G01*
X147308179Y-105266769D01*
X149166954Y-107125545D01*
X150976181Y-108934772D01*
X151003061Y-108975000D01*
X151012500Y-109022453D01*
X151012500Y-118840547D01*
X150998985Y-118896842D01*
X150961385Y-118940865D01*
X150907898Y-118963020D01*
X150850182Y-118958478D01*
X150800819Y-118928228D01*
X149852802Y-117980211D01*
X149839906Y-117964113D01*
X149788775Y-117916098D01*
X149785978Y-117913387D01*
X149766470Y-117893879D01*
X149763290Y-117891412D01*
X149754424Y-117883839D01*
X149722582Y-117853938D01*
X149705024Y-117844285D01*
X149688764Y-117833604D01*
X149672936Y-117821327D01*
X149632851Y-117803980D01*
X149622361Y-117798841D01*
X149584091Y-117777802D01*
X149564691Y-117772821D01*
X149546284Y-117766519D01*
X149527897Y-117758562D01*
X149484758Y-117751729D01*
X149473324Y-117749361D01*
X149431019Y-117738500D01*
X149410984Y-117738500D01*
X149391586Y-117736973D01*
X149384162Y-117735797D01*
X149371805Y-117733840D01*
X149371804Y-117733840D01*
X149338751Y-117736964D01*
X149328325Y-117737950D01*
X149316656Y-117738500D01*
X147010188Y-117738500D01*
X146952931Y-117724489D01*
X146908613Y-117685623D01*
X146796046Y-117524859D01*
X146635140Y-117363953D01*
X146448733Y-117233431D01*
X146390725Y-117206382D01*
X146338549Y-117160625D01*
X146319129Y-117094000D01*
X146338549Y-117027375D01*
X146390725Y-116981618D01*
X146448734Y-116954568D01*
X146635139Y-116824047D01*
X146796047Y-116663139D01*
X146926568Y-116476734D01*
X147022739Y-116270496D01*
X147081635Y-116050692D01*
X147101468Y-115824000D01*
X147081635Y-115597308D01*
X147022739Y-115377504D01*
X146926568Y-115171266D01*
X146905463Y-115141125D01*
X146796046Y-114984859D01*
X146635140Y-114823953D01*
X146448732Y-114693430D01*
X146390724Y-114666380D01*
X146338549Y-114620623D01*
X146319130Y-114553997D01*
X146338550Y-114487373D01*
X146390721Y-114441619D01*
X146448734Y-114414568D01*
X146635139Y-114284047D01*
X146796047Y-114123139D01*
X146926568Y-113936734D01*
X147022739Y-113730496D01*
X147081635Y-113510692D01*
X147101468Y-113284000D01*
X147081635Y-113057308D01*
X147022739Y-112837504D01*
X146926568Y-112631266D01*
X146907997Y-112604744D01*
X146796046Y-112444859D01*
X146635140Y-112283953D01*
X146448733Y-112153431D01*
X146390725Y-112126382D01*
X146338549Y-112080625D01*
X146319129Y-112014000D01*
X146338549Y-111947375D01*
X146390725Y-111901618D01*
X146422575Y-111886766D01*
X146448734Y-111874568D01*
X146635139Y-111744047D01*
X146796047Y-111583139D01*
X146926568Y-111396734D01*
X147022739Y-111190496D01*
X147081635Y-110970692D01*
X147101468Y-110744000D01*
X147096516Y-110687404D01*
X147090377Y-110617233D01*
X147081635Y-110517308D01*
X147022739Y-110297504D01*
X146926568Y-110091266D01*
X146896928Y-110048936D01*
X146796046Y-109904859D01*
X146635140Y-109743953D01*
X146448733Y-109613431D01*
X146390725Y-109586382D01*
X146338549Y-109540625D01*
X146319129Y-109474000D01*
X146338549Y-109407375D01*
X146390725Y-109361618D01*
X146448734Y-109334568D01*
X146635139Y-109204047D01*
X146796047Y-109043139D01*
X146926568Y-108856734D01*
X147022739Y-108650496D01*
X147081635Y-108430692D01*
X147101468Y-108204000D01*
X147081635Y-107977308D01*
X147022739Y-107757504D01*
X146926568Y-107551266D01*
X146914910Y-107534617D01*
X146796046Y-107364859D01*
X146635140Y-107203953D01*
X146610537Y-107186726D01*
X146571399Y-107141884D01*
X146557666Y-107083970D01*
X146572500Y-107026328D01*
X146612485Y-106982239D01*
X146668406Y-106961861D01*
X146703483Y-106958091D01*
X146838331Y-106907796D01*
X146953546Y-106821546D01*
X147039796Y-106706331D01*
X147090091Y-106571483D01*
X147096500Y-106511873D01*
X147096499Y-105354450D01*
X147110014Y-105298156D01*
X147147614Y-105254133D01*
X147201101Y-105231978D01*
X147258817Y-105236520D01*
G37*
%TD.AperFunction*%
%TA.AperFunction,Conductor*%
G36*
X159823257Y-111644975D02*
G01*
X159867573Y-111683839D01*
X159997505Y-111869401D01*
X160164599Y-112036495D01*
X160358170Y-112172035D01*
X160572337Y-112271903D01*
X160794714Y-112331488D01*
X160800592Y-112333063D01*
X161035999Y-112353659D01*
X161035999Y-112353658D01*
X161036000Y-112353659D01*
X161078113Y-112349974D01*
X161282214Y-112332118D01*
X161282286Y-112332942D01*
X161326688Y-112331488D01*
X161377985Y-112354729D01*
X161413712Y-112398261D01*
X161426500Y-112453106D01*
X161426500Y-113709256D01*
X161424235Y-113729762D01*
X161426439Y-113799873D01*
X161426500Y-113803768D01*
X161426500Y-113831349D01*
X161427003Y-113835334D01*
X161427918Y-113846967D01*
X161429290Y-113890626D01*
X161434879Y-113909860D01*
X161438825Y-113928916D01*
X161441335Y-113948792D01*
X161457414Y-113989404D01*
X161461197Y-114000451D01*
X161473382Y-114042391D01*
X161483580Y-114059635D01*
X161492136Y-114077100D01*
X161499514Y-114095732D01*
X161499515Y-114095733D01*
X161525180Y-114131059D01*
X161531593Y-114140822D01*
X161553826Y-114178416D01*
X161553829Y-114178419D01*
X161553830Y-114178420D01*
X161567995Y-114192585D01*
X161580627Y-114207375D01*
X161592406Y-114223587D01*
X161626058Y-114251426D01*
X161634699Y-114259289D01*
X163583196Y-116207787D01*
X163596096Y-116223888D01*
X163647223Y-116271900D01*
X163650019Y-116274610D01*
X163669529Y-116294120D01*
X163672711Y-116296588D01*
X163681571Y-116304155D01*
X163713418Y-116334062D01*
X163716236Y-116335611D01*
X163730972Y-116343712D01*
X163747236Y-116354396D01*
X163758972Y-116363499D01*
X163763064Y-116366673D01*
X163787909Y-116377424D01*
X163803152Y-116384021D01*
X163813631Y-116389154D01*
X163851908Y-116410197D01*
X163871306Y-116415177D01*
X163889708Y-116421477D01*
X163908104Y-116429438D01*
X163951261Y-116436273D01*
X163962664Y-116438634D01*
X164004981Y-116449500D01*
X164025016Y-116449500D01*
X164044413Y-116451026D01*
X164064196Y-116454160D01*
X164107674Y-116450050D01*
X164119344Y-116449500D01*
X167271782Y-116449500D01*
X167331425Y-116464786D01*
X167376363Y-116506875D01*
X167395517Y-116565391D01*
X167384164Y-116625905D01*
X167382097Y-116630337D01*
X167320936Y-116858592D01*
X167300340Y-117093999D01*
X167320936Y-117329408D01*
X167347855Y-117429873D01*
X167347855Y-117494059D01*
X167315761Y-117549646D01*
X167163225Y-117702183D01*
X167123000Y-117729061D01*
X167075547Y-117738500D01*
X162311226Y-117738500D01*
X162253969Y-117724489D01*
X162209651Y-117685623D01*
X162197400Y-117668126D01*
X162074495Y-117492599D01*
X161907401Y-117325505D01*
X161713830Y-117189965D01*
X161499663Y-117090097D01*
X161438502Y-117073709D01*
X161271407Y-117028936D01*
X161036000Y-117008340D01*
X160800592Y-117028936D01*
X160572336Y-117090097D01*
X160358170Y-117189965D01*
X160164601Y-117325503D01*
X160042673Y-117447431D01*
X159989926Y-117478726D01*
X159928634Y-117480915D01*
X159873789Y-117453462D01*
X159838810Y-117403082D01*
X159829916Y-117379237D01*
X159789796Y-117271669D01*
X159703546Y-117156454D01*
X159588331Y-117070204D01*
X159453483Y-117019909D01*
X159393873Y-117013500D01*
X159393869Y-117013500D01*
X157598130Y-117013500D01*
X157538513Y-117019909D01*
X157510832Y-117030234D01*
X157452046Y-117037085D01*
X157396779Y-117015908D01*
X157357624Y-116971527D01*
X157343500Y-116914052D01*
X157343500Y-112054758D01*
X157357015Y-111998463D01*
X157394615Y-111954440D01*
X157448102Y-111932285D01*
X157505818Y-111936827D01*
X157555181Y-111967077D01*
X157624599Y-112036495D01*
X157818170Y-112172035D01*
X158032337Y-112271903D01*
X158260592Y-112333063D01*
X158496000Y-112353659D01*
X158731408Y-112333063D01*
X158959663Y-112271903D01*
X159173830Y-112172035D01*
X159367401Y-112036495D01*
X159534495Y-111869401D01*
X159664426Y-111683839D01*
X159708743Y-111644975D01*
X159766000Y-111630964D01*
X159823257Y-111644975D01*
G37*
%TD.AperFunction*%
%TA.AperFunction,Conductor*%
G36*
X165853001Y-106552939D02*
G01*
X165893229Y-106579819D01*
X166470181Y-107156772D01*
X166497061Y-107197000D01*
X166506500Y-107244453D01*
X166506500Y-110407256D01*
X166504235Y-110427762D01*
X166506439Y-110497873D01*
X166506500Y-110501768D01*
X166506500Y-110529349D01*
X166507003Y-110533334D01*
X166507918Y-110544967D01*
X166509290Y-110588626D01*
X166514879Y-110607860D01*
X166518825Y-110626916D01*
X166521335Y-110646792D01*
X166537414Y-110687404D01*
X166541197Y-110698451D01*
X166553382Y-110740391D01*
X166563580Y-110757635D01*
X166572136Y-110775100D01*
X166579514Y-110793732D01*
X166579515Y-110793733D01*
X166605180Y-110829059D01*
X166611593Y-110838822D01*
X166633826Y-110876416D01*
X166633829Y-110876419D01*
X166633830Y-110876420D01*
X166647995Y-110890585D01*
X166660627Y-110905375D01*
X166672406Y-110921587D01*
X166706058Y-110949426D01*
X166714699Y-110957289D01*
X167315762Y-111558352D01*
X167347856Y-111613939D01*
X167347856Y-111678126D01*
X167320936Y-111778593D01*
X167300340Y-112014000D01*
X167320936Y-112249407D01*
X167362398Y-112404146D01*
X167382097Y-112477663D01*
X167481965Y-112691830D01*
X167617505Y-112885401D01*
X167784599Y-113052495D01*
X167970160Y-113182426D01*
X168009024Y-113226743D01*
X168023035Y-113284000D01*
X168009024Y-113341257D01*
X167970158Y-113385575D01*
X167797813Y-113506253D01*
X167784595Y-113515508D01*
X167617505Y-113682598D01*
X167481965Y-113876170D01*
X167382097Y-114090336D01*
X167320936Y-114318592D01*
X167300340Y-114554000D01*
X167320936Y-114789407D01*
X167382097Y-115017662D01*
X167384164Y-115022095D01*
X167395517Y-115082609D01*
X167376363Y-115141125D01*
X167331425Y-115183214D01*
X167271782Y-115198500D01*
X164394452Y-115198500D01*
X164346999Y-115189061D01*
X164306771Y-115162181D01*
X162713819Y-113569228D01*
X162686939Y-113529000D01*
X162677500Y-113481547D01*
X162677500Y-112096744D01*
X162679764Y-112076237D01*
X162677561Y-112006127D01*
X162677500Y-112002232D01*
X162677500Y-111974653D01*
X162677005Y-111970739D01*
X162676996Y-111970665D01*
X162676080Y-111959019D01*
X162675714Y-111947375D01*
X162674709Y-111915373D01*
X162669120Y-111896140D01*
X162665174Y-111877082D01*
X162662664Y-111857206D01*
X162646588Y-111816604D01*
X162642804Y-111805553D01*
X162634971Y-111778593D01*
X162630618Y-111763610D01*
X162620414Y-111746355D01*
X162611861Y-111728895D01*
X162604486Y-111710269D01*
X162604486Y-111710268D01*
X162578808Y-111674925D01*
X162572401Y-111665171D01*
X162550169Y-111627579D01*
X162536006Y-111613416D01*
X162523367Y-111598617D01*
X162511595Y-111582413D01*
X162477941Y-111554573D01*
X162469299Y-111546709D01*
X162376237Y-111453647D01*
X162344143Y-111398059D01*
X162344143Y-111333872D01*
X162371063Y-111233408D01*
X162391659Y-110998000D01*
X162371063Y-110762592D01*
X162344143Y-110662126D01*
X162344143Y-110597939D01*
X162376235Y-110542353D01*
X162689792Y-110228797D01*
X162705885Y-110215906D01*
X162707873Y-110213787D01*
X162707877Y-110213786D01*
X162753948Y-110164723D01*
X162756566Y-110162023D01*
X162776120Y-110142471D01*
X162778581Y-110139298D01*
X162786156Y-110130427D01*
X162816062Y-110098582D01*
X162825717Y-110081018D01*
X162836394Y-110064764D01*
X162848673Y-110048936D01*
X162866018Y-110008852D01*
X162871160Y-109998356D01*
X162892197Y-109960092D01*
X162897179Y-109940684D01*
X162903481Y-109922280D01*
X162911437Y-109903896D01*
X162918269Y-109860752D01*
X162920633Y-109849338D01*
X162931500Y-109807019D01*
X162931500Y-109786984D01*
X162933027Y-109767585D01*
X162933068Y-109767321D01*
X162936160Y-109747804D01*
X162932050Y-109704325D01*
X162931500Y-109692656D01*
X162931500Y-108032744D01*
X162933764Y-108012236D01*
X162931561Y-107942113D01*
X162931500Y-107938219D01*
X162931500Y-107910654D01*
X162931500Y-107910650D01*
X162930997Y-107906670D01*
X162930081Y-107895028D01*
X162928710Y-107851373D01*
X162923118Y-107832126D01*
X162919174Y-107813085D01*
X162916664Y-107793208D01*
X162900579Y-107752583D01*
X162896808Y-107741568D01*
X162884618Y-107699610D01*
X162874414Y-107682355D01*
X162865861Y-107664895D01*
X162858486Y-107646269D01*
X162858486Y-107646268D01*
X162832808Y-107610925D01*
X162826401Y-107601171D01*
X162817783Y-107586599D01*
X162804170Y-107563580D01*
X162790006Y-107549416D01*
X162777367Y-107534617D01*
X162765595Y-107518413D01*
X162731941Y-107490573D01*
X162723299Y-107482709D01*
X162129740Y-106889149D01*
X162099715Y-106840471D01*
X162094730Y-106783496D01*
X162115844Y-106730347D01*
X162209653Y-106596374D01*
X162253970Y-106557511D01*
X162311227Y-106543500D01*
X165805548Y-106543500D01*
X165853001Y-106552939D01*
G37*
%TD.AperFunction*%
%TA.AperFunction,Conductor*%
G36*
X167283209Y-104034537D02*
G01*
X167318189Y-104084916D01*
X167333649Y-104126366D01*
X167367204Y-104216331D01*
X167453454Y-104331546D01*
X167568669Y-104417796D01*
X167703517Y-104468091D01*
X167763127Y-104474500D01*
X169070546Y-104474499D01*
X169117999Y-104483938D01*
X169158227Y-104510818D01*
X169264181Y-104616772D01*
X169291061Y-104657000D01*
X169300500Y-104704453D01*
X169300500Y-108000000D01*
X169283887Y-108062000D01*
X169238500Y-108107387D01*
X169176500Y-108124000D01*
X168906000Y-108124000D01*
X168906000Y-109600000D01*
X168889387Y-109662000D01*
X168844000Y-109707387D01*
X168782000Y-109724000D01*
X168530000Y-109724000D01*
X168468000Y-109707387D01*
X168422613Y-109662000D01*
X168406000Y-109600000D01*
X168406000Y-108124000D01*
X167881500Y-108124000D01*
X167819500Y-108107387D01*
X167774113Y-108062000D01*
X167757500Y-108000000D01*
X167757500Y-107016744D01*
X167759764Y-106996237D01*
X167757561Y-106926127D01*
X167757500Y-106922232D01*
X167757500Y-106894653D01*
X167757005Y-106890739D01*
X167756996Y-106890665D01*
X167756080Y-106879019D01*
X167755714Y-106867373D01*
X167754709Y-106835373D01*
X167749120Y-106816140D01*
X167745174Y-106797082D01*
X167742664Y-106777206D01*
X167726588Y-106736604D01*
X167722804Y-106725553D01*
X167716881Y-106705168D01*
X167710618Y-106683610D01*
X167700414Y-106666355D01*
X167691861Y-106648895D01*
X167684486Y-106630269D01*
X167684486Y-106630268D01*
X167658808Y-106594925D01*
X167652401Y-106585171D01*
X167649236Y-106579819D01*
X167630170Y-106547580D01*
X167616005Y-106533415D01*
X167603367Y-106518617D01*
X167591595Y-106502413D01*
X167557941Y-106474573D01*
X167549299Y-106466709D01*
X166616802Y-105534211D01*
X166603906Y-105518113D01*
X166552775Y-105470098D01*
X166549978Y-105467387D01*
X166530470Y-105447879D01*
X166527290Y-105445412D01*
X166518424Y-105437839D01*
X166486582Y-105407938D01*
X166469024Y-105398285D01*
X166452764Y-105387604D01*
X166436936Y-105375327D01*
X166396851Y-105357980D01*
X166386361Y-105352841D01*
X166348091Y-105331802D01*
X166328691Y-105326821D01*
X166310284Y-105320519D01*
X166291897Y-105312562D01*
X166248758Y-105305729D01*
X166237324Y-105303361D01*
X166195019Y-105292500D01*
X166174984Y-105292500D01*
X166155586Y-105290973D01*
X166147750Y-105289732D01*
X166135805Y-105287840D01*
X166135804Y-105287840D01*
X166115789Y-105289732D01*
X166092325Y-105291950D01*
X166080656Y-105292500D01*
X162311226Y-105292500D01*
X162253969Y-105278489D01*
X162209651Y-105239623D01*
X162207478Y-105236520D01*
X162192145Y-105214622D01*
X162169986Y-105151610D01*
X162183732Y-105086243D01*
X162229393Y-105037491D01*
X162293721Y-105019500D01*
X164642256Y-105019500D01*
X164662762Y-105021764D01*
X164665665Y-105021672D01*
X164665667Y-105021673D01*
X164732872Y-105019561D01*
X164736768Y-105019500D01*
X164764349Y-105019500D01*
X164764350Y-105019500D01*
X164768319Y-105018998D01*
X164779965Y-105018080D01*
X164823627Y-105016709D01*
X164842859Y-105011120D01*
X164861918Y-105007174D01*
X164868196Y-105006381D01*
X164881792Y-105004664D01*
X164922407Y-104988582D01*
X164933444Y-104984803D01*
X164975390Y-104972618D01*
X164992629Y-104962422D01*
X165010102Y-104953862D01*
X165028732Y-104946486D01*
X165064064Y-104920814D01*
X165073830Y-104914400D01*
X165111418Y-104892171D01*
X165111417Y-104892171D01*
X165111420Y-104892170D01*
X165125585Y-104878004D01*
X165140373Y-104865373D01*
X165156587Y-104853594D01*
X165184438Y-104819926D01*
X165192279Y-104811309D01*
X165565980Y-104437608D01*
X165621566Y-104405516D01*
X165685749Y-104405516D01*
X165885592Y-104459063D01*
X166121000Y-104479659D01*
X166356408Y-104459063D01*
X166584663Y-104397903D01*
X166798830Y-104298035D01*
X166992401Y-104162495D01*
X167114329Y-104040566D01*
X167167072Y-104009273D01*
X167228365Y-104007084D01*
X167283209Y-104034537D01*
G37*
%TD.AperFunction*%
%TA.AperFunction,Conductor*%
G36*
X152146594Y-105034786D02*
G01*
X152191532Y-105076875D01*
X152210686Y-105135390D01*
X152199333Y-105195905D01*
X152189261Y-105217502D01*
X152130364Y-105437310D01*
X152110531Y-105663999D01*
X152130364Y-105890689D01*
X152189261Y-106110497D01*
X152285432Y-106316735D01*
X152415953Y-106503140D01*
X152576859Y-106664046D01*
X152672712Y-106731162D01*
X152763266Y-106794568D01*
X152821275Y-106821618D01*
X152873450Y-106867375D01*
X152892869Y-106934000D01*
X152873450Y-107000625D01*
X152821275Y-107046382D01*
X152763263Y-107073433D01*
X152639555Y-107160054D01*
X152586403Y-107181170D01*
X152529428Y-107176185D01*
X152480751Y-107146160D01*
X150565772Y-105231181D01*
X150535522Y-105181818D01*
X150530980Y-105124102D01*
X150553135Y-105070615D01*
X150597158Y-105033015D01*
X150653453Y-105019500D01*
X152086951Y-105019500D01*
X152146594Y-105034786D01*
G37*
%TD.AperFunction*%
%TA.AperFunction,Conductor*%
G36*
X136758818Y-84322521D02*
G01*
X136808181Y-84352771D01*
X137006181Y-84550771D01*
X137033061Y-84590999D01*
X137042500Y-84638452D01*
X137042500Y-90900547D01*
X137028985Y-90956842D01*
X136991385Y-91000865D01*
X136937898Y-91023020D01*
X136880182Y-91018478D01*
X136830819Y-90988228D01*
X136814470Y-90971879D01*
X136811290Y-90969412D01*
X136802424Y-90961839D01*
X136770582Y-90931938D01*
X136753024Y-90922285D01*
X136736764Y-90911604D01*
X136720936Y-90899327D01*
X136680851Y-90881980D01*
X136670357Y-90876839D01*
X136660759Y-90871562D01*
X136613767Y-90826021D01*
X136596500Y-90762902D01*
X136596500Y-90336864D01*
X136596500Y-90336862D01*
X136586417Y-90223448D01*
X136533237Y-90037594D01*
X136443734Y-89866249D01*
X136321571Y-89716429D01*
X136171751Y-89594266D01*
X136090659Y-89551907D01*
X136042019Y-89506253D01*
X136024073Y-89442000D01*
X136042019Y-89377747D01*
X136090659Y-89332092D01*
X136171751Y-89289734D01*
X136321571Y-89167571D01*
X136443734Y-89017751D01*
X136533237Y-88846406D01*
X136586417Y-88660552D01*
X136596500Y-88547138D01*
X136596500Y-86336862D01*
X136586417Y-86223448D01*
X136533237Y-86037594D01*
X136443734Y-85866249D01*
X136321571Y-85716429D01*
X136171751Y-85594266D01*
X136090659Y-85551907D01*
X136042019Y-85506253D01*
X136024073Y-85442000D01*
X136042019Y-85377747D01*
X136090659Y-85332092D01*
X136171751Y-85289734D01*
X136321571Y-85167571D01*
X136443734Y-85017751D01*
X136533237Y-84846406D01*
X136586417Y-84660552D01*
X136596500Y-84547138D01*
X136596500Y-84440452D01*
X136610015Y-84384157D01*
X136647615Y-84340134D01*
X136701102Y-84317979D01*
X136758818Y-84322521D01*
G37*
%TD.AperFunction*%
%TD*%
M02*
