%TF.GenerationSoftware,KiCad,Pcbnew,7.0.1*%
%TF.CreationDate,2023-08-12T13:03:50+02:00*%
%TF.ProjectId,uprs232ttl,75707273-3233-4327-9474-6c2e6b696361,rev?*%
%TF.SameCoordinates,Original*%
%TF.FileFunction,Legend,Bot*%
%TF.FilePolarity,Positive*%
%FSLAX46Y46*%
G04 Gerber Fmt 4.6, Leading zero omitted, Abs format (unit mm)*
G04 Created by KiCad (PCBNEW 7.0.1) date 2023-08-12 13:03:50*
%MOMM*%
%LPD*%
G01*
G04 APERTURE LIST*
%ADD10C,0.125000*%
%ADD11C,0.150000*%
G04 APERTURE END LIST*
D10*
X169133305Y-96481281D02*
X168729244Y-96077220D01*
X168224167Y-96986358D02*
X168931274Y-96279251D01*
X167685419Y-96447609D02*
X167786435Y-96481281D01*
X167786435Y-96481281D02*
X167853778Y-96481281D01*
X167853778Y-96481281D02*
X167954793Y-96447609D01*
X167954793Y-96447609D02*
X168156824Y-96245579D01*
X168156824Y-96245579D02*
X168190496Y-96144564D01*
X168190496Y-96144564D02*
X168190496Y-96077220D01*
X168190496Y-96077220D02*
X168156824Y-95976205D01*
X168156824Y-95976205D02*
X168055809Y-95875190D01*
X168055809Y-95875190D02*
X167954793Y-95841518D01*
X167954793Y-95841518D02*
X167887450Y-95841518D01*
X167887450Y-95841518D02*
X167786435Y-95875190D01*
X167786435Y-95875190D02*
X167584404Y-96077220D01*
X167584404Y-96077220D02*
X167550732Y-96178235D01*
X167550732Y-96178235D02*
X167550732Y-96245579D01*
X167550732Y-96245579D02*
X167584404Y-96346594D01*
X167584404Y-96346594D02*
X167685419Y-96447609D01*
X166776282Y-94595663D02*
X166304877Y-95067067D01*
X167079328Y-94898709D02*
X166708938Y-95269098D01*
X166708938Y-95269098D02*
X166607923Y-95302770D01*
X166607923Y-95302770D02*
X166506908Y-95269098D01*
X166506908Y-95269098D02*
X166405893Y-95168083D01*
X166405893Y-95168083D02*
X166372221Y-95067067D01*
X166372221Y-95067067D02*
X166372221Y-94999724D01*
X166035503Y-94730350D02*
X165934488Y-94696678D01*
X165934488Y-94696678D02*
X165799801Y-94561991D01*
X165799801Y-94561991D02*
X165766129Y-94460976D01*
X165766129Y-94460976D02*
X165799801Y-94359961D01*
X165799801Y-94359961D02*
X165833473Y-94326289D01*
X165833473Y-94326289D02*
X165934488Y-94292617D01*
X165934488Y-94292617D02*
X166035503Y-94326289D01*
X166035503Y-94326289D02*
X166136518Y-94427304D01*
X166136518Y-94427304D02*
X166237534Y-94460976D01*
X166237534Y-94460976D02*
X166338549Y-94427304D01*
X166338549Y-94427304D02*
X166372221Y-94393632D01*
X166372221Y-94393632D02*
X166405892Y-94292617D01*
X166405892Y-94292617D02*
X166372221Y-94191602D01*
X166372221Y-94191602D02*
X166271205Y-94090587D01*
X166271205Y-94090587D02*
X166170190Y-94056915D01*
X165160037Y-93854884D02*
X165193709Y-93955899D01*
X165193709Y-93955899D02*
X165328396Y-94090586D01*
X165328396Y-94090586D02*
X165429412Y-94124258D01*
X165429412Y-94124258D02*
X165530427Y-94090586D01*
X165530427Y-94090586D02*
X165799801Y-93821212D01*
X165799801Y-93821212D02*
X165833473Y-93720197D01*
X165833473Y-93720197D02*
X165799801Y-93619182D01*
X165799801Y-93619182D02*
X165665114Y-93484495D01*
X165665114Y-93484495D02*
X165564099Y-93450823D01*
X165564099Y-93450823D02*
X165463083Y-93484495D01*
X165463083Y-93484495D02*
X165395740Y-93551838D01*
X165395740Y-93551838D02*
X165665114Y-93955899D01*
X164250900Y-93013090D02*
X164722304Y-92541686D01*
X164958007Y-92305983D02*
X164958007Y-92373327D01*
X164958007Y-92373327D02*
X164890663Y-92373327D01*
X164890663Y-92373327D02*
X164890663Y-92305983D01*
X164890663Y-92305983D02*
X164958007Y-92305983D01*
X164958007Y-92305983D02*
X164890663Y-92373327D01*
X164385587Y-92204968D02*
X163914183Y-92676373D01*
X164318244Y-92272312D02*
X164318244Y-92204968D01*
X164318244Y-92204968D02*
X164284572Y-92103953D01*
X164284572Y-92103953D02*
X164183557Y-92002938D01*
X164183557Y-92002938D02*
X164082542Y-91969266D01*
X164082542Y-91969266D02*
X163981526Y-92002938D01*
X163981526Y-92002938D02*
X163611137Y-92373327D01*
X162735671Y-91497861D02*
X163442778Y-90790755D01*
X163442778Y-90790755D02*
X162331610Y-91093800D01*
X162331610Y-91093800D02*
X163038717Y-90386694D01*
X162163251Y-89982633D02*
X161691847Y-90454037D01*
X162466297Y-90285678D02*
X162095908Y-90656068D01*
X162095908Y-90656068D02*
X161994893Y-90689739D01*
X161994893Y-90689739D02*
X161893877Y-90656068D01*
X161893877Y-90656068D02*
X161792862Y-90555052D01*
X161792862Y-90555052D02*
X161759190Y-90454037D01*
X161759190Y-90454037D02*
X161759190Y-90386694D01*
X161254114Y-90016304D02*
X161355129Y-90049976D01*
X161355129Y-90049976D02*
X161456145Y-90016304D01*
X161456145Y-90016304D02*
X162062236Y-89410213D01*
X160883725Y-89645915D02*
X160984740Y-89679586D01*
X160984740Y-89679586D02*
X161085755Y-89645915D01*
X161085755Y-89645915D02*
X161691847Y-89039823D01*
X160614350Y-89376540D02*
X161321457Y-88669434D01*
X161321457Y-88669434D02*
X160580678Y-88938808D01*
X160580678Y-88938808D02*
X160850052Y-88198029D01*
X160850052Y-88198029D02*
X160142946Y-88905136D01*
X159705213Y-88467403D02*
X159806228Y-88501075D01*
X159806228Y-88501075D02*
X159873572Y-88501075D01*
X159873572Y-88501075D02*
X159974587Y-88467403D01*
X159974587Y-88467403D02*
X160176617Y-88265373D01*
X160176617Y-88265373D02*
X160210289Y-88164357D01*
X160210289Y-88164357D02*
X160210289Y-88097014D01*
X160210289Y-88097014D02*
X160176617Y-87995999D01*
X160176617Y-87995999D02*
X160075602Y-87894983D01*
X160075602Y-87894983D02*
X159974587Y-87861312D01*
X159974587Y-87861312D02*
X159907243Y-87861312D01*
X159907243Y-87861312D02*
X159806228Y-87894983D01*
X159806228Y-87894983D02*
X159604198Y-88097014D01*
X159604198Y-88097014D02*
X159570526Y-88198029D01*
X159570526Y-88198029D02*
X159570526Y-88265373D01*
X159570526Y-88265373D02*
X159604198Y-88366388D01*
X159604198Y-88366388D02*
X159705213Y-88467403D01*
X158863419Y-87625609D02*
X159570526Y-86918502D01*
X158897091Y-87591938D02*
X158930763Y-87692953D01*
X158930763Y-87692953D02*
X159065450Y-87827640D01*
X159065450Y-87827640D02*
X159166465Y-87861312D01*
X159166465Y-87861312D02*
X159233808Y-87861312D01*
X159233808Y-87861312D02*
X159334824Y-87827640D01*
X159334824Y-87827640D02*
X159536854Y-87625609D01*
X159536854Y-87625609D02*
X159570526Y-87524594D01*
X159570526Y-87524594D02*
X159570526Y-87457250D01*
X159570526Y-87457250D02*
X159536854Y-87356235D01*
X159536854Y-87356235D02*
X159402167Y-87221548D01*
X159402167Y-87221548D02*
X159301152Y-87187876D01*
X158290999Y-86985846D02*
X158324671Y-87086861D01*
X158324671Y-87086861D02*
X158459358Y-87221548D01*
X158459358Y-87221548D02*
X158560373Y-87255220D01*
X158560373Y-87255220D02*
X158661389Y-87221548D01*
X158661389Y-87221548D02*
X158930763Y-86952174D01*
X158930763Y-86952174D02*
X158964434Y-86851159D01*
X158964434Y-86851159D02*
X158930763Y-86750144D01*
X158930763Y-86750144D02*
X158796076Y-86615457D01*
X158796076Y-86615457D02*
X158695060Y-86581785D01*
X158695060Y-86581785D02*
X158594045Y-86615457D01*
X158594045Y-86615457D02*
X158526702Y-86682800D01*
X158526702Y-86682800D02*
X158796076Y-87086861D01*
X157920610Y-86682800D02*
X158392014Y-86211396D01*
X158324671Y-86278739D02*
X158324671Y-86211396D01*
X158324671Y-86211396D02*
X158290999Y-86110380D01*
X158290999Y-86110380D02*
X158189984Y-86009365D01*
X158189984Y-86009365D02*
X158088969Y-85975693D01*
X158088969Y-85975693D02*
X157987953Y-86009365D01*
X157987953Y-86009365D02*
X157617564Y-86379754D01*
X157987953Y-86009365D02*
X158021625Y-85908350D01*
X158021625Y-85908350D02*
X157987953Y-85807335D01*
X157987953Y-85807335D02*
X157886938Y-85706319D01*
X157886938Y-85706319D02*
X157785923Y-85672648D01*
X157785923Y-85672648D02*
X157684908Y-85706319D01*
X157684908Y-85706319D02*
X157314518Y-86076709D01*
X156439053Y-85201243D02*
X156910457Y-84729839D01*
X156843114Y-84797182D02*
X156843114Y-84729839D01*
X156843114Y-84729839D02*
X156809442Y-84628823D01*
X156809442Y-84628823D02*
X156708427Y-84527808D01*
X156708427Y-84527808D02*
X156607412Y-84494136D01*
X156607412Y-84494136D02*
X156506396Y-84527808D01*
X156506396Y-84527808D02*
X156136007Y-84898197D01*
X156506396Y-84527808D02*
X156540068Y-84426793D01*
X156540068Y-84426793D02*
X156506396Y-84325778D01*
X156506396Y-84325778D02*
X156405381Y-84224762D01*
X156405381Y-84224762D02*
X156304366Y-84191091D01*
X156304366Y-84191091D02*
X156203351Y-84224762D01*
X156203351Y-84224762D02*
X155832961Y-84595152D01*
X155395229Y-84157419D02*
X155496244Y-84191091D01*
X155496244Y-84191091D02*
X155563588Y-84191091D01*
X155563588Y-84191091D02*
X155664603Y-84157419D01*
X155664603Y-84157419D02*
X155866633Y-83955388D01*
X155866633Y-83955388D02*
X155900305Y-83854373D01*
X155900305Y-83854373D02*
X155900305Y-83787030D01*
X155900305Y-83787030D02*
X155866633Y-83686014D01*
X155866633Y-83686014D02*
X155765618Y-83584999D01*
X155765618Y-83584999D02*
X155664603Y-83551327D01*
X155664603Y-83551327D02*
X155597259Y-83551327D01*
X155597259Y-83551327D02*
X155496244Y-83584999D01*
X155496244Y-83584999D02*
X155294214Y-83787030D01*
X155294214Y-83787030D02*
X155260542Y-83888045D01*
X155260542Y-83888045D02*
X155260542Y-83955388D01*
X155260542Y-83955388D02*
X155294214Y-84056404D01*
X155294214Y-84056404D02*
X155395229Y-84157419D01*
X154553435Y-83315625D02*
X155260542Y-82608518D01*
X154587107Y-83281953D02*
X154620779Y-83382969D01*
X154620779Y-83382969D02*
X154755466Y-83517656D01*
X154755466Y-83517656D02*
X154856481Y-83551327D01*
X154856481Y-83551327D02*
X154923824Y-83551327D01*
X154923824Y-83551327D02*
X155024840Y-83517656D01*
X155024840Y-83517656D02*
X155226870Y-83315625D01*
X155226870Y-83315625D02*
X155260542Y-83214610D01*
X155260542Y-83214610D02*
X155260542Y-83147266D01*
X155260542Y-83147266D02*
X155226870Y-83046251D01*
X155226870Y-83046251D02*
X155092183Y-82911564D01*
X155092183Y-82911564D02*
X154991168Y-82877892D01*
X153981015Y-82675862D02*
X154014687Y-82776877D01*
X154014687Y-82776877D02*
X154149374Y-82911564D01*
X154149374Y-82911564D02*
X154250389Y-82945236D01*
X154250389Y-82945236D02*
X154351404Y-82911564D01*
X154351404Y-82911564D02*
X154620778Y-82642190D01*
X154620778Y-82642190D02*
X154654450Y-82541175D01*
X154654450Y-82541175D02*
X154620778Y-82440160D01*
X154620778Y-82440160D02*
X154486091Y-82305473D01*
X154486091Y-82305473D02*
X154385076Y-82271801D01*
X154385076Y-82271801D02*
X154284061Y-82305473D01*
X154284061Y-82305473D02*
X154216717Y-82372816D01*
X154216717Y-82372816D02*
X154486091Y-82776877D01*
X153677969Y-82305472D02*
X153610626Y-82305472D01*
X153610626Y-82305472D02*
X153610626Y-82372816D01*
X153610626Y-82372816D02*
X153677969Y-82372816D01*
X153677969Y-82372816D02*
X153677969Y-82305472D01*
X153677969Y-82305472D02*
X153610626Y-82372816D01*
X154048359Y-81935083D02*
X153981015Y-81935083D01*
X153981015Y-81935083D02*
X153981015Y-82002427D01*
X153981015Y-82002427D02*
X154048359Y-82002427D01*
X154048359Y-82002427D02*
X154048359Y-81935083D01*
X154048359Y-81935083D02*
X153981015Y-82002427D01*
X165900143Y-96886016D02*
X165765456Y-96818672D01*
X165765456Y-96818672D02*
X165597097Y-96650313D01*
X165597097Y-96650313D02*
X165563426Y-96549298D01*
X165563426Y-96549298D02*
X165563426Y-96481955D01*
X165563426Y-96481955D02*
X165597097Y-96380939D01*
X165597097Y-96380939D02*
X165664441Y-96313596D01*
X165664441Y-96313596D02*
X165765456Y-96279924D01*
X165765456Y-96279924D02*
X165832800Y-96279924D01*
X165832800Y-96279924D02*
X165933815Y-96313596D01*
X165933815Y-96313596D02*
X166102174Y-96414611D01*
X166102174Y-96414611D02*
X166203189Y-96448283D01*
X166203189Y-96448283D02*
X166270532Y-96448283D01*
X166270532Y-96448283D02*
X166371548Y-96414611D01*
X166371548Y-96414611D02*
X166438891Y-96347268D01*
X166438891Y-96347268D02*
X166472563Y-96246252D01*
X166472563Y-96246252D02*
X166472563Y-96178909D01*
X166472563Y-96178909D02*
X166438891Y-96077894D01*
X166438891Y-96077894D02*
X166270532Y-95909535D01*
X166270532Y-95909535D02*
X166135845Y-95842191D01*
X164923662Y-95909535D02*
X164957334Y-96010550D01*
X164957334Y-96010550D02*
X165092021Y-96145237D01*
X165092021Y-96145237D02*
X165193036Y-96178909D01*
X165193036Y-96178909D02*
X165294052Y-96145237D01*
X165294052Y-96145237D02*
X165563426Y-95875863D01*
X165563426Y-95875863D02*
X165597097Y-95774848D01*
X165597097Y-95774848D02*
X165563426Y-95673833D01*
X165563426Y-95673833D02*
X165428739Y-95539146D01*
X165428739Y-95539146D02*
X165327723Y-95505474D01*
X165327723Y-95505474D02*
X165226708Y-95539146D01*
X165226708Y-95539146D02*
X165159365Y-95606489D01*
X165159365Y-95606489D02*
X165428739Y-96010550D01*
X165125693Y-95236100D02*
X164856319Y-94966726D01*
X165260380Y-94899382D02*
X164654288Y-95505474D01*
X164654288Y-95505474D02*
X164553273Y-95539146D01*
X164553273Y-95539146D02*
X164452258Y-95505474D01*
X164452258Y-95505474D02*
X164384914Y-95438130D01*
X164081868Y-94192275D02*
X163475776Y-94798367D01*
X163475776Y-94798367D02*
X163442105Y-94899382D01*
X163442105Y-94899382D02*
X163475776Y-95000397D01*
X163475776Y-95000397D02*
X163509448Y-95034069D01*
X164317570Y-93956573D02*
X164317570Y-94023916D01*
X164317570Y-94023916D02*
X164250227Y-94023916D01*
X164250227Y-94023916D02*
X164250227Y-93956573D01*
X164250227Y-93956573D02*
X164317570Y-93956573D01*
X164317570Y-93956573D02*
X164250227Y-94023916D01*
X163442105Y-93552512D02*
X162970700Y-94023917D01*
X163745151Y-93855558D02*
X163374761Y-94225947D01*
X163374761Y-94225947D02*
X163273746Y-94259619D01*
X163273746Y-94259619D02*
X163172731Y-94225947D01*
X163172731Y-94225947D02*
X163071716Y-94124932D01*
X163071716Y-94124932D02*
X163038044Y-94023917D01*
X163038044Y-94023917D02*
X163038044Y-93956573D01*
X162633983Y-93687199D02*
X163105387Y-93215794D01*
X163038044Y-93283138D02*
X163038044Y-93215794D01*
X163038044Y-93215794D02*
X163004372Y-93114779D01*
X163004372Y-93114779D02*
X162903357Y-93013764D01*
X162903357Y-93013764D02*
X162802342Y-92980092D01*
X162802342Y-92980092D02*
X162701326Y-93013764D01*
X162701326Y-93013764D02*
X162330937Y-93384153D01*
X162701326Y-93013764D02*
X162734998Y-92912749D01*
X162734998Y-92912749D02*
X162701326Y-92811733D01*
X162701326Y-92811733D02*
X162600311Y-92710718D01*
X162600311Y-92710718D02*
X162499296Y-92677046D01*
X162499296Y-92677046D02*
X162398281Y-92710718D01*
X162398281Y-92710718D02*
X162027891Y-93081107D01*
X162162579Y-92272986D02*
X161455472Y-92980092D01*
X162128907Y-92306657D02*
X162095235Y-92205642D01*
X162095235Y-92205642D02*
X161960548Y-92070955D01*
X161960548Y-92070955D02*
X161859533Y-92037283D01*
X161859533Y-92037283D02*
X161792189Y-92037283D01*
X161792189Y-92037283D02*
X161691174Y-92070955D01*
X161691174Y-92070955D02*
X161489144Y-92272986D01*
X161489144Y-92272986D02*
X161455472Y-92374001D01*
X161455472Y-92374001D02*
X161455472Y-92441344D01*
X161455472Y-92441344D02*
X161489144Y-92542360D01*
X161489144Y-92542360D02*
X161623831Y-92677047D01*
X161623831Y-92677047D02*
X161724846Y-92710718D01*
X160815708Y-91801581D02*
X160849380Y-91902596D01*
X160849380Y-91902596D02*
X160984067Y-92037283D01*
X160984067Y-92037283D02*
X161085082Y-92070955D01*
X161085082Y-92070955D02*
X161186098Y-92037283D01*
X161186098Y-92037283D02*
X161455472Y-91767909D01*
X161455472Y-91767909D02*
X161489144Y-91666894D01*
X161489144Y-91666894D02*
X161455472Y-91565879D01*
X161455472Y-91565879D02*
X161320785Y-91431192D01*
X161320785Y-91431192D02*
X161219769Y-91397520D01*
X161219769Y-91397520D02*
X161118754Y-91431192D01*
X161118754Y-91431192D02*
X161051411Y-91498535D01*
X161051411Y-91498535D02*
X161320785Y-91902596D01*
X160445319Y-91498535D02*
X160916724Y-91027131D01*
X160782037Y-91161818D02*
X160815708Y-91060802D01*
X160815708Y-91060802D02*
X160815708Y-90993459D01*
X160815708Y-90993459D02*
X160782037Y-90892444D01*
X160782037Y-90892444D02*
X160714693Y-90825100D01*
X160074930Y-91060802D02*
X159973914Y-91027130D01*
X159973914Y-91027130D02*
X159839227Y-90892443D01*
X159839227Y-90892443D02*
X159805556Y-90791428D01*
X159805556Y-90791428D02*
X159839227Y-90690413D01*
X159839227Y-90690413D02*
X159872899Y-90656741D01*
X159872899Y-90656741D02*
X159973914Y-90623069D01*
X159973914Y-90623069D02*
X160074930Y-90656741D01*
X160074930Y-90656741D02*
X160175945Y-90757756D01*
X160175945Y-90757756D02*
X160276960Y-90791428D01*
X160276960Y-90791428D02*
X160377975Y-90757756D01*
X160377975Y-90757756D02*
X160411647Y-90724085D01*
X160411647Y-90724085D02*
X160445319Y-90623069D01*
X160445319Y-90623069D02*
X160411647Y-90522054D01*
X160411647Y-90522054D02*
X160310632Y-90421039D01*
X160310632Y-90421039D02*
X160209617Y-90387367D01*
X159401494Y-89040497D02*
X158896418Y-89545573D01*
X158896418Y-89545573D02*
X158829074Y-89680260D01*
X158829074Y-89680260D02*
X158829074Y-89814947D01*
X158829074Y-89814947D02*
X158896418Y-89949634D01*
X158896418Y-89949634D02*
X158963761Y-90016978D01*
X158526029Y-88636436D02*
X158054624Y-89107840D01*
X158963761Y-88535420D02*
X158627044Y-89208855D01*
X158627044Y-89208855D02*
X158189311Y-88771123D01*
X156842441Y-87895657D02*
X157212830Y-87525268D01*
X157212830Y-87525268D02*
X157313845Y-87491596D01*
X157313845Y-87491596D02*
X157414861Y-87525268D01*
X157414861Y-87525268D02*
X157549548Y-87659955D01*
X157549548Y-87659955D02*
X157583219Y-87760970D01*
X156876113Y-87861985D02*
X156909784Y-87963000D01*
X156909784Y-87963000D02*
X157078143Y-88131359D01*
X157078143Y-88131359D02*
X157179158Y-88165031D01*
X157179158Y-88165031D02*
X157280174Y-88131359D01*
X157280174Y-88131359D02*
X157347517Y-88064016D01*
X157347517Y-88064016D02*
X157381189Y-87963000D01*
X157381189Y-87963000D02*
X157347517Y-87861985D01*
X157347517Y-87861985D02*
X157179158Y-87693626D01*
X157179158Y-87693626D02*
X157145487Y-87592611D01*
X156977128Y-87087535D02*
X156505723Y-87558939D01*
X156909784Y-87154878D02*
X156909784Y-87087535D01*
X156909784Y-87087535D02*
X156876112Y-86986520D01*
X156876112Y-86986520D02*
X156775097Y-86885504D01*
X156775097Y-86885504D02*
X156674082Y-86851833D01*
X156674082Y-86851833D02*
X156573067Y-86885504D01*
X156573067Y-86885504D02*
X156202677Y-87255894D01*
X155562914Y-86616130D02*
X156270021Y-85909023D01*
X155596586Y-86582458D02*
X155630258Y-86683474D01*
X155630258Y-86683474D02*
X155764945Y-86818161D01*
X155764945Y-86818161D02*
X155865960Y-86851832D01*
X155865960Y-86851832D02*
X155933303Y-86851832D01*
X155933303Y-86851832D02*
X156034319Y-86818161D01*
X156034319Y-86818161D02*
X156236349Y-86616130D01*
X156236349Y-86616130D02*
X156270021Y-86515115D01*
X156270021Y-86515115D02*
X156270021Y-86447771D01*
X156270021Y-86447771D02*
X156236349Y-86346756D01*
X156236349Y-86346756D02*
X156101662Y-86212069D01*
X156101662Y-86212069D02*
X156000647Y-86178397D01*
X155192525Y-84831527D02*
X154687448Y-85336603D01*
X154687448Y-85336603D02*
X154620105Y-85471290D01*
X154620105Y-85471290D02*
X154620105Y-85605977D01*
X154620105Y-85605977D02*
X154687448Y-85740664D01*
X154687448Y-85740664D02*
X154754792Y-85808008D01*
X154519089Y-84158092D02*
X154855807Y-84494809D01*
X154855807Y-84494809D02*
X154552761Y-84865199D01*
X154552761Y-84865199D02*
X154552761Y-84797855D01*
X154552761Y-84797855D02*
X154519089Y-84696840D01*
X154519089Y-84696840D02*
X154350731Y-84528481D01*
X154350731Y-84528481D02*
X154249715Y-84494809D01*
X154249715Y-84494809D02*
X154182372Y-84494809D01*
X154182372Y-84494809D02*
X154081357Y-84528481D01*
X154081357Y-84528481D02*
X153912998Y-84696840D01*
X153912998Y-84696840D02*
X153879326Y-84797855D01*
X153879326Y-84797855D02*
X153879326Y-84865199D01*
X153879326Y-84865199D02*
X153912998Y-84966214D01*
X153912998Y-84966214D02*
X154081357Y-85134573D01*
X154081357Y-85134573D02*
X154182372Y-85168244D01*
X154182372Y-85168244D02*
X154249715Y-85168244D01*
X167263176Y-100607418D02*
X167734581Y-100136014D01*
X167970283Y-99900312D02*
X167970283Y-99967655D01*
X167970283Y-99967655D02*
X167902939Y-99967655D01*
X167902939Y-99967655D02*
X167902939Y-99900312D01*
X167902939Y-99900312D02*
X167970283Y-99900312D01*
X167970283Y-99900312D02*
X167902939Y-99967655D01*
X167397864Y-99799297D02*
X166926459Y-100270701D01*
X167330520Y-99866640D02*
X167330520Y-99799297D01*
X167330520Y-99799297D02*
X167296848Y-99698281D01*
X167296848Y-99698281D02*
X167195833Y-99597266D01*
X167195833Y-99597266D02*
X167094818Y-99563594D01*
X167094818Y-99563594D02*
X166993803Y-99597266D01*
X166993803Y-99597266D02*
X166623413Y-99967655D01*
X165444902Y-98789144D02*
X166152009Y-98082037D01*
X165478573Y-98755472D02*
X165512245Y-98856487D01*
X165512245Y-98856487D02*
X165646932Y-98991174D01*
X165646932Y-98991174D02*
X165747947Y-99024846D01*
X165747947Y-99024846D02*
X165815291Y-99024846D01*
X165815291Y-99024846D02*
X165916306Y-98991174D01*
X165916306Y-98991174D02*
X166118337Y-98789144D01*
X166118337Y-98789144D02*
X166152009Y-98688129D01*
X166152009Y-98688129D02*
X166152009Y-98620785D01*
X166152009Y-98620785D02*
X166118337Y-98519770D01*
X166118337Y-98519770D02*
X165983650Y-98385083D01*
X165983650Y-98385083D02*
X165882634Y-98351411D01*
X164872482Y-98149381D02*
X164906154Y-98250396D01*
X164906154Y-98250396D02*
X165040841Y-98385083D01*
X165040841Y-98385083D02*
X165141856Y-98418755D01*
X165141856Y-98418755D02*
X165242871Y-98385083D01*
X165242871Y-98385083D02*
X165512245Y-98115709D01*
X165512245Y-98115709D02*
X165545917Y-98014694D01*
X165545917Y-98014694D02*
X165512245Y-97913678D01*
X165512245Y-97913678D02*
X165377558Y-97778991D01*
X165377558Y-97778991D02*
X165276543Y-97745319D01*
X165276543Y-97745319D02*
X165175528Y-97778991D01*
X165175528Y-97778991D02*
X165108184Y-97846335D01*
X165108184Y-97846335D02*
X165377558Y-98250396D01*
X165074512Y-97475945D02*
X164805138Y-97206571D01*
X164502093Y-97846335D02*
X165108184Y-97240243D01*
X165108184Y-97240243D02*
X165141856Y-97139228D01*
X165141856Y-97139228D02*
X165108184Y-97038213D01*
X165108184Y-97038213D02*
X165040841Y-96970869D01*
X163794985Y-97139228D02*
X164165375Y-96768838D01*
X164165375Y-96768838D02*
X164266390Y-96735167D01*
X164266390Y-96735167D02*
X164367405Y-96768838D01*
X164367405Y-96768838D02*
X164502092Y-96903525D01*
X164502092Y-96903525D02*
X164535764Y-97004541D01*
X163828657Y-97105556D02*
X163862329Y-97206571D01*
X163862329Y-97206571D02*
X164030688Y-97374930D01*
X164030688Y-97374930D02*
X164131703Y-97408602D01*
X164131703Y-97408602D02*
X164232718Y-97374930D01*
X164232718Y-97374930D02*
X164300062Y-97307586D01*
X164300062Y-97307586D02*
X164333733Y-97206571D01*
X164333733Y-97206571D02*
X164300062Y-97105556D01*
X164300062Y-97105556D02*
X164131703Y-96937197D01*
X164131703Y-96937197D02*
X164098031Y-96836182D01*
X163626627Y-96028060D02*
X163155222Y-96499464D01*
X163929672Y-96331105D02*
X163559283Y-96701495D01*
X163559283Y-96701495D02*
X163458268Y-96735166D01*
X163458268Y-96735166D02*
X163357253Y-96701495D01*
X163357253Y-96701495D02*
X163256237Y-96600479D01*
X163256237Y-96600479D02*
X163222566Y-96499464D01*
X163222566Y-96499464D02*
X163222566Y-96432121D01*
X162717489Y-96061731D02*
X162818505Y-96095403D01*
X162818505Y-96095403D02*
X162919520Y-96061731D01*
X162919520Y-96061731D02*
X163525611Y-95455640D01*
X163020535Y-95421968D02*
X162751161Y-95152594D01*
X163155222Y-95085250D02*
X162549130Y-95691342D01*
X162549130Y-95691342D02*
X162448115Y-95725014D01*
X162448115Y-95725014D02*
X162347100Y-95691342D01*
X162347100Y-95691342D02*
X162279756Y-95623998D01*
X161505305Y-94849548D02*
X161976710Y-94378143D01*
X161909366Y-94445487D02*
X161909366Y-94378143D01*
X161909366Y-94378143D02*
X161875695Y-94277128D01*
X161875695Y-94277128D02*
X161774679Y-94176112D01*
X161774679Y-94176112D02*
X161673664Y-94142441D01*
X161673664Y-94142441D02*
X161572649Y-94176112D01*
X161572649Y-94176112D02*
X161202260Y-94546502D01*
X161572649Y-94176112D02*
X161606321Y-94075097D01*
X161606321Y-94075097D02*
X161572649Y-93974082D01*
X161572649Y-93974082D02*
X161471634Y-93873067D01*
X161471634Y-93873067D02*
X161370618Y-93839395D01*
X161370618Y-93839395D02*
X161269603Y-93873067D01*
X161269603Y-93873067D02*
X160899214Y-94243456D01*
X160461481Y-93805723D02*
X160562497Y-93839395D01*
X160562497Y-93839395D02*
X160629840Y-93839395D01*
X160629840Y-93839395D02*
X160730855Y-93805723D01*
X160730855Y-93805723D02*
X160932886Y-93603693D01*
X160932886Y-93603693D02*
X160966558Y-93502678D01*
X160966558Y-93502678D02*
X160966558Y-93435334D01*
X160966558Y-93435334D02*
X160932886Y-93334319D01*
X160932886Y-93334319D02*
X160831871Y-93233304D01*
X160831871Y-93233304D02*
X160730855Y-93199632D01*
X160730855Y-93199632D02*
X160663512Y-93199632D01*
X160663512Y-93199632D02*
X160562497Y-93233304D01*
X160562497Y-93233304D02*
X160360466Y-93435334D01*
X160360466Y-93435334D02*
X160326794Y-93536349D01*
X160326794Y-93536349D02*
X160326794Y-93603693D01*
X160326794Y-93603693D02*
X160360466Y-93704708D01*
X160360466Y-93704708D02*
X160461481Y-93805723D01*
X159619687Y-92963930D02*
X160326794Y-92256823D01*
X159653359Y-92930258D02*
X159687031Y-93031273D01*
X159687031Y-93031273D02*
X159821718Y-93165960D01*
X159821718Y-93165960D02*
X159922733Y-93199632D01*
X159922733Y-93199632D02*
X159990077Y-93199632D01*
X159990077Y-93199632D02*
X160091092Y-93165960D01*
X160091092Y-93165960D02*
X160293123Y-92963930D01*
X160293123Y-92963930D02*
X160326794Y-92862914D01*
X160326794Y-92862914D02*
X160326794Y-92795571D01*
X160326794Y-92795571D02*
X160293123Y-92694556D01*
X160293123Y-92694556D02*
X160158435Y-92559869D01*
X160158435Y-92559869D02*
X160057420Y-92526197D01*
X159047268Y-92324166D02*
X159080939Y-92425182D01*
X159080939Y-92425182D02*
X159215626Y-92559869D01*
X159215626Y-92559869D02*
X159316642Y-92593540D01*
X159316642Y-92593540D02*
X159417657Y-92559869D01*
X159417657Y-92559869D02*
X159687031Y-92290495D01*
X159687031Y-92290495D02*
X159720703Y-92189479D01*
X159720703Y-92189479D02*
X159687031Y-92088464D01*
X159687031Y-92088464D02*
X159552344Y-91953777D01*
X159552344Y-91953777D02*
X159451329Y-91920105D01*
X159451329Y-91920105D02*
X159350313Y-91953777D01*
X159350313Y-91953777D02*
X159282970Y-92021120D01*
X159282970Y-92021120D02*
X159552344Y-92425182D01*
X157666726Y-91549716D02*
X157734069Y-91549716D01*
X157734069Y-91549716D02*
X157902428Y-91516044D01*
X157902428Y-91516044D02*
X158003443Y-91482372D01*
X158003443Y-91482372D02*
X158138130Y-91415029D01*
X158138130Y-91415029D02*
X158340161Y-91280342D01*
X158340161Y-91280342D02*
X158474848Y-91145655D01*
X158474848Y-91145655D02*
X158609535Y-90943624D01*
X158609535Y-90943624D02*
X158676878Y-90808937D01*
X158676878Y-90808937D02*
X158710550Y-90707922D01*
X158710550Y-90707922D02*
X158744222Y-90539563D01*
X158744222Y-90539563D02*
X158744222Y-90472220D01*
X157734069Y-91010967D02*
X157633054Y-90977296D01*
X157633054Y-90977296D02*
X157498367Y-90842609D01*
X157498367Y-90842609D02*
X157464695Y-90741593D01*
X157464695Y-90741593D02*
X157498367Y-90640578D01*
X157498367Y-90640578D02*
X157532038Y-90606906D01*
X157532038Y-90606906D02*
X157633054Y-90573235D01*
X157633054Y-90573235D02*
X157734069Y-90606906D01*
X157734069Y-90606906D02*
X157835084Y-90707922D01*
X157835084Y-90707922D02*
X157936099Y-90741593D01*
X157936099Y-90741593D02*
X158037115Y-90707922D01*
X158037115Y-90707922D02*
X158070786Y-90674250D01*
X158070786Y-90674250D02*
X158104458Y-90573235D01*
X158104458Y-90573235D02*
X158070786Y-90472219D01*
X158070786Y-90472219D02*
X157969771Y-90371204D01*
X157969771Y-90371204D02*
X157868756Y-90337532D01*
X156858603Y-90135502D02*
X156892275Y-90236517D01*
X156892275Y-90236517D02*
X157026962Y-90371204D01*
X157026962Y-90371204D02*
X157127977Y-90404876D01*
X157127977Y-90404876D02*
X157228992Y-90371204D01*
X157228992Y-90371204D02*
X157498366Y-90101830D01*
X157498366Y-90101830D02*
X157532038Y-90000815D01*
X157532038Y-90000815D02*
X157498366Y-89899800D01*
X157498366Y-89899800D02*
X157363679Y-89765113D01*
X157363679Y-89765113D02*
X157262664Y-89731441D01*
X157262664Y-89731441D02*
X157161649Y-89765113D01*
X157161649Y-89765113D02*
X157094305Y-89832456D01*
X157094305Y-89832456D02*
X157363679Y-90236517D01*
X156252512Y-89529410D02*
X156286183Y-89630425D01*
X156286183Y-89630425D02*
X156420870Y-89765112D01*
X156420870Y-89765112D02*
X156521886Y-89798784D01*
X156521886Y-89798784D02*
X156622901Y-89765112D01*
X156622901Y-89765112D02*
X156892275Y-89495738D01*
X156892275Y-89495738D02*
X156925947Y-89394723D01*
X156925947Y-89394723D02*
X156892275Y-89293708D01*
X156892275Y-89293708D02*
X156757588Y-89159021D01*
X156757588Y-89159021D02*
X156656573Y-89125349D01*
X156656573Y-89125349D02*
X156555557Y-89159021D01*
X156555557Y-89159021D02*
X156488214Y-89226364D01*
X156488214Y-89226364D02*
X156757588Y-89630425D01*
X155343374Y-88687616D02*
X155814778Y-88216212D01*
X155747435Y-88283555D02*
X155747435Y-88216212D01*
X155747435Y-88216212D02*
X155713763Y-88115196D01*
X155713763Y-88115196D02*
X155612748Y-88014181D01*
X155612748Y-88014181D02*
X155511733Y-87980509D01*
X155511733Y-87980509D02*
X155410717Y-88014181D01*
X155410717Y-88014181D02*
X155040328Y-88384570D01*
X155410717Y-88014181D02*
X155444389Y-87913166D01*
X155444389Y-87913166D02*
X155410717Y-87812151D01*
X155410717Y-87812151D02*
X155309702Y-87711135D01*
X155309702Y-87711135D02*
X155208687Y-87677464D01*
X155208687Y-87677464D02*
X155107672Y-87711135D01*
X155107672Y-87711135D02*
X154737282Y-88081525D01*
X154097519Y-87441762D02*
X154467909Y-87071372D01*
X154467909Y-87071372D02*
X154568924Y-87037701D01*
X154568924Y-87037701D02*
X154669939Y-87071372D01*
X154669939Y-87071372D02*
X154804626Y-87206059D01*
X154804626Y-87206059D02*
X154838298Y-87307075D01*
X154131191Y-87408090D02*
X154164863Y-87509105D01*
X154164863Y-87509105D02*
X154333222Y-87677464D01*
X154333222Y-87677464D02*
X154434237Y-87711136D01*
X154434237Y-87711136D02*
X154535252Y-87677464D01*
X154535252Y-87677464D02*
X154602596Y-87610120D01*
X154602596Y-87610120D02*
X154636267Y-87509105D01*
X154636267Y-87509105D02*
X154602596Y-87408090D01*
X154602596Y-87408090D02*
X154434237Y-87239731D01*
X154434237Y-87239731D02*
X154400565Y-87138716D01*
X153760802Y-87105044D02*
X154232206Y-86633639D01*
X154097519Y-86768326D02*
X154131191Y-86667311D01*
X154131191Y-86667311D02*
X154131191Y-86599968D01*
X154131191Y-86599968D02*
X154097519Y-86498952D01*
X154097519Y-86498952D02*
X154030176Y-86431609D01*
X153323069Y-86667311D02*
X154030176Y-85960204D01*
X153525099Y-86330593D02*
X153053695Y-86397937D01*
X153525099Y-85926532D02*
X153525099Y-86465280D01*
X152750649Y-86094891D02*
X153222053Y-85623486D01*
X153457756Y-85387784D02*
X153457756Y-85455128D01*
X153457756Y-85455128D02*
X153390412Y-85455128D01*
X153390412Y-85455128D02*
X153390412Y-85387784D01*
X153390412Y-85387784D02*
X153457756Y-85387784D01*
X153457756Y-85387784D02*
X153390412Y-85455128D01*
X152885336Y-85286769D02*
X152413932Y-85758174D01*
X152817993Y-85354113D02*
X152817993Y-85286769D01*
X152817993Y-85286769D02*
X152784321Y-85185754D01*
X152784321Y-85185754D02*
X152683306Y-85084739D01*
X152683306Y-85084739D02*
X152582290Y-85051067D01*
X152582290Y-85051067D02*
X152481275Y-85084739D01*
X152481275Y-85084739D02*
X152110886Y-85455128D01*
X151942527Y-84343960D02*
X151370107Y-84916380D01*
X151370107Y-84916380D02*
X151336436Y-85017395D01*
X151336436Y-85017395D02*
X151336436Y-85084739D01*
X151336436Y-85084739D02*
X151370107Y-85185754D01*
X151370107Y-85185754D02*
X151471123Y-85286769D01*
X151471123Y-85286769D02*
X151572138Y-85320441D01*
X151504794Y-84781693D02*
X151538466Y-84882708D01*
X151538466Y-84882708D02*
X151673153Y-85017395D01*
X151673153Y-85017395D02*
X151774168Y-85051067D01*
X151774168Y-85051067D02*
X151841512Y-85051067D01*
X151841512Y-85051067D02*
X151942527Y-85017395D01*
X151942527Y-85017395D02*
X152144558Y-84815365D01*
X152144558Y-84815365D02*
X152178229Y-84714349D01*
X152178229Y-84714349D02*
X152178229Y-84647006D01*
X152178229Y-84647006D02*
X152144558Y-84545991D01*
X152144558Y-84545991D02*
X152009871Y-84411304D01*
X152009871Y-84411304D02*
X151908855Y-84377632D01*
X151201748Y-84478647D02*
X151100733Y-84444975D01*
X151100733Y-84444975D02*
X150966046Y-84310288D01*
X150966046Y-84310288D02*
X150932374Y-84209273D01*
X150932374Y-84209273D02*
X150966046Y-84108258D01*
X150966046Y-84108258D02*
X150999718Y-84074586D01*
X150999718Y-84074586D02*
X151100733Y-84040914D01*
X151100733Y-84040914D02*
X151201748Y-84074586D01*
X151201748Y-84074586D02*
X151302764Y-84175601D01*
X151302764Y-84175601D02*
X151403779Y-84209273D01*
X151403779Y-84209273D02*
X151504794Y-84175601D01*
X151504794Y-84175601D02*
X151538466Y-84141930D01*
X151538466Y-84141930D02*
X151572138Y-84040914D01*
X151572138Y-84040914D02*
X151538466Y-83939899D01*
X151538466Y-83939899D02*
X151437451Y-83838884D01*
X151437451Y-83838884D02*
X151336435Y-83805212D01*
X150359955Y-84242945D02*
X150359955Y-84175601D01*
X150359955Y-84175601D02*
X150393626Y-84007242D01*
X150393626Y-84007242D02*
X150427298Y-83906227D01*
X150427298Y-83906227D02*
X150494642Y-83771540D01*
X150494642Y-83771540D02*
X150629329Y-83569510D01*
X150629329Y-83569510D02*
X150764016Y-83434823D01*
X150764016Y-83434823D02*
X150966046Y-83300136D01*
X150966046Y-83300136D02*
X151100733Y-83232792D01*
X151100733Y-83232792D02*
X151201748Y-83199120D01*
X151201748Y-83199120D02*
X151370107Y-83165449D01*
X151370107Y-83165449D02*
X151437451Y-83165449D01*
X150157924Y-83367479D02*
X150090580Y-83367479D01*
X150090580Y-83367479D02*
X150090580Y-83434822D01*
X150090580Y-83434822D02*
X150157924Y-83434822D01*
X150157924Y-83434822D02*
X150157924Y-83367479D01*
X150157924Y-83367479D02*
X150090580Y-83434822D01*
X165006495Y-100574420D02*
X164871808Y-100507076D01*
X164871808Y-100507076D02*
X164703449Y-100338718D01*
X164703449Y-100338718D02*
X164669778Y-100237702D01*
X164669778Y-100237702D02*
X164669778Y-100170359D01*
X164669778Y-100170359D02*
X164703449Y-100069344D01*
X164703449Y-100069344D02*
X164770793Y-100002000D01*
X164770793Y-100002000D02*
X164871808Y-99968328D01*
X164871808Y-99968328D02*
X164939152Y-99968328D01*
X164939152Y-99968328D02*
X165040167Y-100002000D01*
X165040167Y-100002000D02*
X165208526Y-100103015D01*
X165208526Y-100103015D02*
X165309541Y-100136687D01*
X165309541Y-100136687D02*
X165376884Y-100136687D01*
X165376884Y-100136687D02*
X165477900Y-100103015D01*
X165477900Y-100103015D02*
X165545243Y-100035672D01*
X165545243Y-100035672D02*
X165578915Y-99934657D01*
X165578915Y-99934657D02*
X165578915Y-99867313D01*
X165578915Y-99867313D02*
X165545243Y-99766298D01*
X165545243Y-99766298D02*
X165376884Y-99597939D01*
X165376884Y-99597939D02*
X165242197Y-99530596D01*
X164030014Y-99597939D02*
X164063686Y-99698954D01*
X164063686Y-99698954D02*
X164198373Y-99833641D01*
X164198373Y-99833641D02*
X164299388Y-99867313D01*
X164299388Y-99867313D02*
X164400404Y-99833641D01*
X164400404Y-99833641D02*
X164669778Y-99564267D01*
X164669778Y-99564267D02*
X164703449Y-99463252D01*
X164703449Y-99463252D02*
X164669778Y-99362237D01*
X164669778Y-99362237D02*
X164535091Y-99227550D01*
X164535091Y-99227550D02*
X164434075Y-99193878D01*
X164434075Y-99193878D02*
X164333060Y-99227550D01*
X164333060Y-99227550D02*
X164265717Y-99294893D01*
X164265717Y-99294893D02*
X164535091Y-99698954D01*
X164232045Y-98924504D02*
X163962671Y-98655130D01*
X164366732Y-98587786D02*
X163760640Y-99193878D01*
X163760640Y-99193878D02*
X163659625Y-99227550D01*
X163659625Y-99227550D02*
X163558610Y-99193878D01*
X163558610Y-99193878D02*
X163491266Y-99126534D01*
X162716815Y-98352084D02*
X163188220Y-97880679D01*
X163423922Y-97644977D02*
X163423922Y-97712320D01*
X163423922Y-97712320D02*
X163356579Y-97712320D01*
X163356579Y-97712320D02*
X163356579Y-97644977D01*
X163356579Y-97644977D02*
X163423922Y-97644977D01*
X163423922Y-97644977D02*
X163356579Y-97712320D01*
X162851503Y-97543962D02*
X162380098Y-98015366D01*
X162784159Y-97611305D02*
X162784159Y-97543962D01*
X162784159Y-97543962D02*
X162750488Y-97442947D01*
X162750488Y-97442947D02*
X162649472Y-97341931D01*
X162649472Y-97341931D02*
X162548457Y-97308260D01*
X162548457Y-97308260D02*
X162447442Y-97341931D01*
X162447442Y-97341931D02*
X162077053Y-97712321D01*
X161100571Y-96735840D02*
X161201587Y-96769511D01*
X161201587Y-96769511D02*
X161268930Y-96769511D01*
X161268930Y-96769511D02*
X161369946Y-96735840D01*
X161369946Y-96735840D02*
X161571976Y-96533809D01*
X161571976Y-96533809D02*
X161605648Y-96432794D01*
X161605648Y-96432794D02*
X161605648Y-96365450D01*
X161605648Y-96365450D02*
X161571976Y-96264435D01*
X161571976Y-96264435D02*
X161470961Y-96163420D01*
X161470961Y-96163420D02*
X161369946Y-96129748D01*
X161369946Y-96129748D02*
X161302602Y-96129748D01*
X161302602Y-96129748D02*
X161201587Y-96163420D01*
X161201587Y-96163420D02*
X160999556Y-96365450D01*
X160999556Y-96365450D02*
X160965884Y-96466466D01*
X160965884Y-96466466D02*
X160965884Y-96533809D01*
X160965884Y-96533809D02*
X160999556Y-96634824D01*
X160999556Y-96634824D02*
X161100571Y-96735840D01*
X161134243Y-95826702D02*
X160864869Y-95557328D01*
X161268930Y-95489985D02*
X160662839Y-96096076D01*
X160662839Y-96096076D02*
X160561823Y-96129748D01*
X160561823Y-96129748D02*
X160460808Y-96096076D01*
X160460808Y-96096076D02*
X160393465Y-96028733D01*
X160157762Y-95793030D02*
X160864869Y-95085923D01*
X159854716Y-95489984D02*
X160225106Y-95119595D01*
X160225106Y-95119595D02*
X160326121Y-95085923D01*
X160326121Y-95085923D02*
X160427136Y-95119595D01*
X160427136Y-95119595D02*
X160528151Y-95220610D01*
X160528151Y-95220610D02*
X160561823Y-95321626D01*
X160561823Y-95321626D02*
X160561823Y-95388969D01*
X159282296Y-94850221D02*
X159315968Y-94951236D01*
X159315968Y-94951236D02*
X159450655Y-95085923D01*
X159450655Y-95085923D02*
X159551670Y-95119595D01*
X159551670Y-95119595D02*
X159652686Y-95085923D01*
X159652686Y-95085923D02*
X159922060Y-94816549D01*
X159922060Y-94816549D02*
X159955732Y-94715534D01*
X159955732Y-94715534D02*
X159922060Y-94614519D01*
X159922060Y-94614519D02*
X159787373Y-94479832D01*
X159787373Y-94479832D02*
X159686357Y-94446160D01*
X159686357Y-94446160D02*
X159585342Y-94479832D01*
X159585342Y-94479832D02*
X159517999Y-94547175D01*
X159517999Y-94547175D02*
X159787373Y-94951236D01*
X158911907Y-94547175D02*
X159383312Y-94075771D01*
X159248625Y-94210458D02*
X159282296Y-94109442D01*
X159282296Y-94109442D02*
X159282296Y-94042099D01*
X159282296Y-94042099D02*
X159248625Y-93941084D01*
X159248625Y-93941084D02*
X159181281Y-93873740D01*
X158406830Y-93099289D02*
X157699724Y-93806396D01*
X158373159Y-93132961D02*
X158339487Y-93031946D01*
X158339487Y-93031946D02*
X158204800Y-92897259D01*
X158204800Y-92897259D02*
X158103785Y-92863587D01*
X158103785Y-92863587D02*
X158036441Y-92863587D01*
X158036441Y-92863587D02*
X157935426Y-92897259D01*
X157935426Y-92897259D02*
X157733395Y-93099289D01*
X157733395Y-93099289D02*
X157699724Y-93200305D01*
X157699724Y-93200305D02*
X157699724Y-93267648D01*
X157699724Y-93267648D02*
X157733395Y-93368664D01*
X157733395Y-93368664D02*
X157868082Y-93503351D01*
X157868082Y-93503351D02*
X157969098Y-93537022D01*
X157194647Y-92829915D02*
X157295663Y-92863587D01*
X157295663Y-92863587D02*
X157363006Y-92863587D01*
X157363006Y-92863587D02*
X157464021Y-92829915D01*
X157464021Y-92829915D02*
X157666052Y-92627885D01*
X157666052Y-92627885D02*
X157699724Y-92526870D01*
X157699724Y-92526870D02*
X157699724Y-92459526D01*
X157699724Y-92459526D02*
X157666052Y-92358511D01*
X157666052Y-92358511D02*
X157565037Y-92257496D01*
X157565037Y-92257496D02*
X157464021Y-92223824D01*
X157464021Y-92223824D02*
X157396678Y-92223824D01*
X157396678Y-92223824D02*
X157295663Y-92257496D01*
X157295663Y-92257496D02*
X157093632Y-92459526D01*
X157093632Y-92459526D02*
X157059960Y-92560541D01*
X157059960Y-92560541D02*
X157059960Y-92627885D01*
X157059960Y-92627885D02*
X157093632Y-92728900D01*
X157093632Y-92728900D02*
X157194647Y-92829915D01*
X156723243Y-92291167D02*
X156622227Y-92257496D01*
X156622227Y-92257496D02*
X156487540Y-92122809D01*
X156487540Y-92122809D02*
X156453869Y-92021793D01*
X156453869Y-92021793D02*
X156487540Y-91920778D01*
X156487540Y-91920778D02*
X156521212Y-91887106D01*
X156521212Y-91887106D02*
X156622227Y-91853435D01*
X156622227Y-91853435D02*
X156723243Y-91887106D01*
X156723243Y-91887106D02*
X156824258Y-91988122D01*
X156824258Y-91988122D02*
X156925273Y-92021793D01*
X156925273Y-92021793D02*
X157026288Y-91988122D01*
X157026288Y-91988122D02*
X157059960Y-91954450D01*
X157059960Y-91954450D02*
X157093632Y-91853435D01*
X157093632Y-91853435D02*
X157059960Y-91752419D01*
X157059960Y-91752419D02*
X156958945Y-91651404D01*
X156958945Y-91651404D02*
X156857930Y-91617732D01*
X156083479Y-91718747D02*
X156554884Y-91247343D01*
X156790586Y-91011641D02*
X156790586Y-91078984D01*
X156790586Y-91078984D02*
X156723243Y-91078984D01*
X156723243Y-91078984D02*
X156723243Y-91011641D01*
X156723243Y-91011641D02*
X156790586Y-91011641D01*
X156790586Y-91011641D02*
X156723243Y-91078984D01*
X156319182Y-91011641D02*
X156049808Y-90742267D01*
X156453869Y-90674923D02*
X155847777Y-91281015D01*
X155847777Y-91281015D02*
X155746762Y-91314687D01*
X155746762Y-91314687D02*
X155645747Y-91281015D01*
X155645747Y-91281015D02*
X155578403Y-91213671D01*
X155342701Y-90977969D02*
X155814105Y-90506564D01*
X156049808Y-90270862D02*
X156049808Y-90338206D01*
X156049808Y-90338206D02*
X155982464Y-90338206D01*
X155982464Y-90338206D02*
X155982464Y-90270862D01*
X155982464Y-90270862D02*
X156049808Y-90270862D01*
X156049808Y-90270862D02*
X155982464Y-90338206D01*
X154904968Y-90540236D02*
X155005984Y-90573908D01*
X155005984Y-90573908D02*
X155073327Y-90573908D01*
X155073327Y-90573908D02*
X155174342Y-90540236D01*
X155174342Y-90540236D02*
X155376373Y-90338206D01*
X155376373Y-90338206D02*
X155410045Y-90237191D01*
X155410045Y-90237191D02*
X155410045Y-90169847D01*
X155410045Y-90169847D02*
X155376373Y-90068832D01*
X155376373Y-90068832D02*
X155275358Y-89967817D01*
X155275358Y-89967817D02*
X155174342Y-89934145D01*
X155174342Y-89934145D02*
X155106999Y-89934145D01*
X155106999Y-89934145D02*
X155005984Y-89967817D01*
X155005984Y-89967817D02*
X154803953Y-90169847D01*
X154803953Y-90169847D02*
X154770281Y-90270862D01*
X154770281Y-90270862D02*
X154770281Y-90338206D01*
X154770281Y-90338206D02*
X154803953Y-90439221D01*
X154803953Y-90439221D02*
X154904968Y-90540236D01*
X154837625Y-89530084D02*
X154366220Y-90001488D01*
X154770281Y-89597427D02*
X154770281Y-89530084D01*
X154770281Y-89530084D02*
X154736610Y-89429069D01*
X154736610Y-89429069D02*
X154635594Y-89328053D01*
X154635594Y-89328053D02*
X154534579Y-89294382D01*
X154534579Y-89294382D02*
X154433564Y-89328053D01*
X154433564Y-89328053D02*
X154063174Y-89698443D01*
X153760128Y-88452588D02*
X153490754Y-88183214D01*
X153894815Y-88115870D02*
X153288724Y-88721962D01*
X153288724Y-88721962D02*
X153187709Y-88755633D01*
X153187709Y-88755633D02*
X153086693Y-88721962D01*
X153086693Y-88721962D02*
X153019350Y-88654618D01*
X152682632Y-88317900D02*
X152783647Y-88351572D01*
X152783647Y-88351572D02*
X152850991Y-88351572D01*
X152850991Y-88351572D02*
X152952006Y-88317900D01*
X152952006Y-88317900D02*
X153154037Y-88115870D01*
X153154037Y-88115870D02*
X153187708Y-88014855D01*
X153187708Y-88014855D02*
X153187708Y-87947511D01*
X153187708Y-87947511D02*
X153154037Y-87846496D01*
X153154037Y-87846496D02*
X153053021Y-87745480D01*
X153053021Y-87745480D02*
X152952006Y-87711809D01*
X152952006Y-87711809D02*
X152884663Y-87711809D01*
X152884663Y-87711809D02*
X152783647Y-87745480D01*
X152783647Y-87745480D02*
X152581617Y-87947511D01*
X152581617Y-87947511D02*
X152547945Y-88048526D01*
X152547945Y-88048526D02*
X152547945Y-88115870D01*
X152547945Y-88115870D02*
X152581617Y-88216885D01*
X152581617Y-88216885D02*
X152682632Y-88317900D01*
X151773495Y-86465954D02*
X151302090Y-86937358D01*
X152076540Y-86768999D02*
X151706151Y-87139389D01*
X151706151Y-87139389D02*
X151605136Y-87173060D01*
X151605136Y-87173060D02*
X151504121Y-87139389D01*
X151504121Y-87139389D02*
X151403105Y-87038373D01*
X151403105Y-87038373D02*
X151369434Y-86937358D01*
X151369434Y-86937358D02*
X151369434Y-86870015D01*
X151032716Y-86600641D02*
X150931701Y-86566969D01*
X150931701Y-86566969D02*
X150797014Y-86432282D01*
X150797014Y-86432282D02*
X150763342Y-86331267D01*
X150763342Y-86331267D02*
X150797014Y-86230251D01*
X150797014Y-86230251D02*
X150830686Y-86196580D01*
X150830686Y-86196580D02*
X150931701Y-86162908D01*
X150931701Y-86162908D02*
X151032716Y-86196580D01*
X151032716Y-86196580D02*
X151133731Y-86297595D01*
X151133731Y-86297595D02*
X151234747Y-86331267D01*
X151234747Y-86331267D02*
X151335762Y-86297595D01*
X151335762Y-86297595D02*
X151369434Y-86263923D01*
X151369434Y-86263923D02*
X151403105Y-86162908D01*
X151403105Y-86162908D02*
X151369434Y-86061893D01*
X151369434Y-86061893D02*
X151268418Y-85960877D01*
X151268418Y-85960877D02*
X151167403Y-85927206D01*
X150157250Y-85725175D02*
X150190922Y-85826190D01*
X150190922Y-85826190D02*
X150325609Y-85960877D01*
X150325609Y-85960877D02*
X150426624Y-85994549D01*
X150426624Y-85994549D02*
X150527640Y-85960877D01*
X150527640Y-85960877D02*
X150797014Y-85691503D01*
X150797014Y-85691503D02*
X150830685Y-85590488D01*
X150830685Y-85590488D02*
X150797014Y-85489473D01*
X150797014Y-85489473D02*
X150662327Y-85354786D01*
X150662327Y-85354786D02*
X150561311Y-85321114D01*
X150561311Y-85321114D02*
X150460296Y-85354786D01*
X150460296Y-85354786D02*
X150392953Y-85422129D01*
X150392953Y-85422129D02*
X150662327Y-85826190D01*
X161217749Y-98201234D02*
X160611657Y-98537952D01*
X160611657Y-98537952D02*
X160813688Y-98066547D01*
X160813688Y-98066547D02*
X160342283Y-98268577D01*
X160342283Y-98268577D02*
X160679001Y-97662486D01*
X159938222Y-97864517D02*
X160409627Y-97393112D01*
X160645329Y-97157410D02*
X160645329Y-97224753D01*
X160645329Y-97224753D02*
X160577986Y-97224753D01*
X160577986Y-97224753D02*
X160577986Y-97157410D01*
X160577986Y-97157410D02*
X160645329Y-97157410D01*
X160645329Y-97157410D02*
X160577986Y-97224753D01*
X160173925Y-97157410D02*
X159904551Y-96888036D01*
X160308612Y-96820693D02*
X159702520Y-97426784D01*
X159702520Y-97426784D02*
X159601505Y-97460456D01*
X159601505Y-97460456D02*
X159500490Y-97426784D01*
X159500490Y-97426784D02*
X159433146Y-97359441D01*
X159197444Y-97123738D02*
X159904551Y-96416631D01*
X158894398Y-96820692D02*
X159264787Y-96450303D01*
X159264787Y-96450303D02*
X159365803Y-96416631D01*
X159365803Y-96416631D02*
X159466818Y-96450303D01*
X159466818Y-96450303D02*
X159567833Y-96551318D01*
X159567833Y-96551318D02*
X159601505Y-96652333D01*
X159601505Y-96652333D02*
X159601505Y-96719677D01*
X158490337Y-95473822D02*
X157783230Y-96180929D01*
X158456665Y-95507494D02*
X158422993Y-95406478D01*
X158422993Y-95406478D02*
X158288306Y-95271791D01*
X158288306Y-95271791D02*
X158187291Y-95238120D01*
X158187291Y-95238120D02*
X158119948Y-95238120D01*
X158119948Y-95238120D02*
X158018932Y-95271791D01*
X158018932Y-95271791D02*
X157816902Y-95473822D01*
X157816902Y-95473822D02*
X157783230Y-95574837D01*
X157783230Y-95574837D02*
X157783230Y-95642181D01*
X157783230Y-95642181D02*
X157816902Y-95743196D01*
X157816902Y-95743196D02*
X157951589Y-95877883D01*
X157951589Y-95877883D02*
X158052604Y-95911555D01*
X157143467Y-95002417D02*
X157177138Y-95103433D01*
X157177138Y-95103433D02*
X157311825Y-95238120D01*
X157311825Y-95238120D02*
X157412841Y-95271791D01*
X157412841Y-95271791D02*
X157513856Y-95238120D01*
X157513856Y-95238120D02*
X157783230Y-94968746D01*
X157783230Y-94968746D02*
X157816902Y-94867730D01*
X157816902Y-94867730D02*
X157783230Y-94766715D01*
X157783230Y-94766715D02*
X157648543Y-94632028D01*
X157648543Y-94632028D02*
X157547528Y-94598356D01*
X157547528Y-94598356D02*
X157446513Y-94632028D01*
X157446513Y-94632028D02*
X157379169Y-94699372D01*
X157379169Y-94699372D02*
X157648543Y-95103433D01*
X156773077Y-94699372D02*
X157244482Y-94227967D01*
X157109795Y-94362654D02*
X157143467Y-94261639D01*
X157143467Y-94261639D02*
X157143467Y-94194295D01*
X157143467Y-94194295D02*
X157109795Y-94093280D01*
X157109795Y-94093280D02*
X157042451Y-94025936D01*
X156335344Y-94261638D02*
X156806749Y-93790234D01*
X157042451Y-93554532D02*
X157042451Y-93621875D01*
X157042451Y-93621875D02*
X156975108Y-93621875D01*
X156975108Y-93621875D02*
X156975108Y-93554532D01*
X156975108Y-93554532D02*
X157042451Y-93554532D01*
X157042451Y-93554532D02*
X156975108Y-93621875D01*
X156470032Y-93453517D02*
X155762925Y-94160624D01*
X156436360Y-93487189D02*
X156402688Y-93386173D01*
X156402688Y-93386173D02*
X156268001Y-93251486D01*
X156268001Y-93251486D02*
X156166986Y-93217815D01*
X156166986Y-93217815D02*
X156099642Y-93217815D01*
X156099642Y-93217815D02*
X155998627Y-93251486D01*
X155998627Y-93251486D02*
X155796597Y-93453517D01*
X155796597Y-93453517D02*
X155762925Y-93554532D01*
X155762925Y-93554532D02*
X155762925Y-93621876D01*
X155762925Y-93621876D02*
X155796597Y-93722891D01*
X155796597Y-93722891D02*
X155931284Y-93857578D01*
X155931284Y-93857578D02*
X156032299Y-93891250D01*
X155358864Y-93285158D02*
X156065971Y-92578051D01*
X155055818Y-92982112D02*
X155426207Y-92611723D01*
X155426207Y-92611723D02*
X155527223Y-92578051D01*
X155527223Y-92578051D02*
X155628238Y-92611723D01*
X155628238Y-92611723D02*
X155729253Y-92712738D01*
X155729253Y-92712738D02*
X155762925Y-92813753D01*
X155762925Y-92813753D02*
X155762925Y-92881097D01*
X154483398Y-92342349D02*
X154517070Y-92443364D01*
X154517070Y-92443364D02*
X154651757Y-92578051D01*
X154651757Y-92578051D02*
X154752772Y-92611723D01*
X154752772Y-92611723D02*
X154853787Y-92578051D01*
X154853787Y-92578051D02*
X155123161Y-92308677D01*
X155123161Y-92308677D02*
X155156833Y-92207662D01*
X155156833Y-92207662D02*
X155123161Y-92106647D01*
X155123161Y-92106647D02*
X154988474Y-91971960D01*
X154988474Y-91971960D02*
X154887459Y-91938288D01*
X154887459Y-91938288D02*
X154786444Y-91971960D01*
X154786444Y-91971960D02*
X154719100Y-92039303D01*
X154719100Y-92039303D02*
X154988474Y-92443364D01*
X154113009Y-92039303D02*
X154584413Y-91567898D01*
X154449726Y-91702585D02*
X154483398Y-91601570D01*
X154483398Y-91601570D02*
X154483398Y-91534227D01*
X154483398Y-91534227D02*
X154449726Y-91433211D01*
X154449726Y-91433211D02*
X154382383Y-91365868D01*
X153372230Y-91298524D02*
X153742619Y-90928135D01*
X153742619Y-90928135D02*
X153843635Y-90894463D01*
X153843635Y-90894463D02*
X153944650Y-90928135D01*
X153944650Y-90928135D02*
X154079337Y-91062822D01*
X154079337Y-91062822D02*
X154113009Y-91163837D01*
X153405902Y-91264852D02*
X153439574Y-91365868D01*
X153439574Y-91365868D02*
X153607932Y-91534226D01*
X153607932Y-91534226D02*
X153708948Y-91567898D01*
X153708948Y-91567898D02*
X153809963Y-91534226D01*
X153809963Y-91534226D02*
X153877306Y-91466883D01*
X153877306Y-91466883D02*
X153910978Y-91365868D01*
X153910978Y-91365868D02*
X153877306Y-91264852D01*
X153877306Y-91264852D02*
X153708948Y-91096494D01*
X153708948Y-91096494D02*
X153675276Y-90995478D01*
X152934497Y-90860791D02*
X153035512Y-90894463D01*
X153035512Y-90894463D02*
X153136528Y-90860791D01*
X153136528Y-90860791D02*
X153742619Y-90254700D01*
X152732466Y-90591417D02*
X152631451Y-90557745D01*
X152631451Y-90557745D02*
X152496764Y-90423058D01*
X152496764Y-90423058D02*
X152463092Y-90322043D01*
X152463092Y-90322043D02*
X152496764Y-90221028D01*
X152496764Y-90221028D02*
X152530436Y-90187356D01*
X152530436Y-90187356D02*
X152631451Y-90153684D01*
X152631451Y-90153684D02*
X152732466Y-90187356D01*
X152732466Y-90187356D02*
X152833482Y-90288371D01*
X152833482Y-90288371D02*
X152934497Y-90322043D01*
X152934497Y-90322043D02*
X153035512Y-90288371D01*
X153035512Y-90288371D02*
X153069184Y-90254699D01*
X153069184Y-90254699D02*
X153102856Y-90153684D01*
X153102856Y-90153684D02*
X153069184Y-90052669D01*
X153069184Y-90052669D02*
X152968169Y-89951654D01*
X152968169Y-89951654D02*
X152867153Y-89917982D01*
X152160046Y-89951654D02*
X152092703Y-89951654D01*
X152092703Y-89951654D02*
X152092703Y-90018997D01*
X152092703Y-90018997D02*
X152160046Y-90018997D01*
X152160046Y-90018997D02*
X152160046Y-89951654D01*
X152160046Y-89951654D02*
X152092703Y-90018997D01*
D11*
X137096476Y-123543904D02*
X137572666Y-123543904D01*
X137001238Y-123829619D02*
X137334571Y-122829619D01*
X137334571Y-122829619D02*
X137667904Y-123829619D01*
D10*
X171936192Y-97914434D02*
X172508611Y-97813419D01*
X172340253Y-98318495D02*
X173047359Y-97611388D01*
X173047359Y-97611388D02*
X172777985Y-97342014D01*
X172777985Y-97342014D02*
X172676970Y-97308342D01*
X172676970Y-97308342D02*
X172609627Y-97308342D01*
X172609627Y-97308342D02*
X172508611Y-97342014D01*
X172508611Y-97342014D02*
X172407596Y-97443029D01*
X172407596Y-97443029D02*
X172373924Y-97544045D01*
X172373924Y-97544045D02*
X172373924Y-97611388D01*
X172373924Y-97611388D02*
X172407596Y-97712403D01*
X172407596Y-97712403D02*
X172676970Y-97981777D01*
X171397444Y-97308342D02*
X171431115Y-97409358D01*
X171431115Y-97409358D02*
X171565802Y-97544045D01*
X171565802Y-97544045D02*
X171666818Y-97577716D01*
X171666818Y-97577716D02*
X171767833Y-97544045D01*
X171767833Y-97544045D02*
X172037207Y-97274671D01*
X172037207Y-97274671D02*
X172070879Y-97173655D01*
X172070879Y-97173655D02*
X172037207Y-97072640D01*
X172037207Y-97072640D02*
X171902520Y-96937953D01*
X171902520Y-96937953D02*
X171801505Y-96904281D01*
X171801505Y-96904281D02*
X171700489Y-96937953D01*
X171700489Y-96937953D02*
X171633146Y-97005297D01*
X171633146Y-97005297D02*
X171902520Y-97409358D01*
X171027054Y-97005296D02*
X171498459Y-96533892D01*
X171431115Y-96601235D02*
X171431115Y-96533892D01*
X171431115Y-96533892D02*
X171397444Y-96432877D01*
X171397444Y-96432877D02*
X171296428Y-96331861D01*
X171296428Y-96331861D02*
X171195413Y-96298190D01*
X171195413Y-96298190D02*
X171094398Y-96331861D01*
X171094398Y-96331861D02*
X170724009Y-96702251D01*
X171094398Y-96331861D02*
X171128070Y-96230846D01*
X171128070Y-96230846D02*
X171094398Y-96129831D01*
X171094398Y-96129831D02*
X170993383Y-96028816D01*
X170993383Y-96028816D02*
X170892367Y-95995144D01*
X170892367Y-95995144D02*
X170791352Y-96028816D01*
X170791352Y-96028816D02*
X170420963Y-96399205D01*
X169983230Y-95961472D02*
X170084245Y-95995144D01*
X170084245Y-95995144D02*
X170151589Y-95995144D01*
X170151589Y-95995144D02*
X170252604Y-95961472D01*
X170252604Y-95961472D02*
X170454635Y-95759442D01*
X170454635Y-95759442D02*
X170488306Y-95658427D01*
X170488306Y-95658427D02*
X170488306Y-95591083D01*
X170488306Y-95591083D02*
X170454635Y-95490068D01*
X170454635Y-95490068D02*
X170353619Y-95389053D01*
X170353619Y-95389053D02*
X170252604Y-95355381D01*
X170252604Y-95355381D02*
X170185261Y-95355381D01*
X170185261Y-95355381D02*
X170084245Y-95389053D01*
X170084245Y-95389053D02*
X169882215Y-95591083D01*
X169882215Y-95591083D02*
X169848543Y-95692098D01*
X169848543Y-95692098D02*
X169848543Y-95759442D01*
X169848543Y-95759442D02*
X169882215Y-95860457D01*
X169882215Y-95860457D02*
X169983230Y-95961472D01*
X169983230Y-95018663D02*
X169343467Y-95321709D01*
X169343467Y-95321709D02*
X169646513Y-94681946D01*
X168670032Y-94580930D02*
X168703703Y-94681946D01*
X168703703Y-94681946D02*
X168838390Y-94816633D01*
X168838390Y-94816633D02*
X168939406Y-94850304D01*
X168939406Y-94850304D02*
X169040421Y-94816633D01*
X169040421Y-94816633D02*
X169309795Y-94547259D01*
X169309795Y-94547259D02*
X169343467Y-94446243D01*
X169343467Y-94446243D02*
X169309795Y-94345228D01*
X169309795Y-94345228D02*
X169175108Y-94210541D01*
X169175108Y-94210541D02*
X169074093Y-94176869D01*
X169074093Y-94176869D02*
X168973077Y-94210541D01*
X168973077Y-94210541D02*
X168905734Y-94277885D01*
X168905734Y-94277885D02*
X169175108Y-94681946D01*
X168265970Y-92829999D02*
X167760894Y-93335075D01*
X167760894Y-93335075D02*
X167693551Y-93469762D01*
X167693551Y-93469762D02*
X167693551Y-93604449D01*
X167693551Y-93604449D02*
X167760894Y-93739136D01*
X167760894Y-93739136D02*
X167828238Y-93806480D01*
X166851757Y-92829999D02*
X167255818Y-93234060D01*
X167053787Y-93032029D02*
X167760894Y-92324923D01*
X167760894Y-92324923D02*
X167727222Y-92493281D01*
X167727222Y-92493281D02*
X167727222Y-92627968D01*
X167727222Y-92627968D02*
X167760894Y-92728984D01*
X166582382Y-91617816D02*
X166313008Y-91348442D01*
X166717069Y-91281098D02*
X166110978Y-91887190D01*
X166110978Y-91887190D02*
X166009963Y-91920861D01*
X166009963Y-91920861D02*
X165908947Y-91887190D01*
X165908947Y-91887190D02*
X165841604Y-91819846D01*
X165504886Y-91483128D02*
X165605901Y-91516800D01*
X165605901Y-91516800D02*
X165673245Y-91516800D01*
X165673245Y-91516800D02*
X165774260Y-91483128D01*
X165774260Y-91483128D02*
X165976291Y-91281098D01*
X165976291Y-91281098D02*
X166009962Y-91180082D01*
X166009962Y-91180082D02*
X166009962Y-91112739D01*
X166009962Y-91112739D02*
X165976291Y-91011724D01*
X165976291Y-91011724D02*
X165875275Y-90910708D01*
X165875275Y-90910708D02*
X165774260Y-90877037D01*
X165774260Y-90877037D02*
X165706917Y-90877037D01*
X165706917Y-90877037D02*
X165605901Y-90910708D01*
X165605901Y-90910708D02*
X165403871Y-91112739D01*
X165403871Y-91112739D02*
X165370199Y-91213754D01*
X165370199Y-91213754D02*
X165370199Y-91281098D01*
X165370199Y-91281098D02*
X165403871Y-91382113D01*
X165403871Y-91382113D02*
X165504886Y-91483128D01*
X164124344Y-90102586D02*
X164831451Y-89395479D01*
X164158016Y-90068914D02*
X164191688Y-90169930D01*
X164191688Y-90169930D02*
X164326375Y-90304617D01*
X164326375Y-90304617D02*
X164427390Y-90338288D01*
X164427390Y-90338288D02*
X164494733Y-90338288D01*
X164494733Y-90338288D02*
X164595749Y-90304617D01*
X164595749Y-90304617D02*
X164797779Y-90102586D01*
X164797779Y-90102586D02*
X164831451Y-90001571D01*
X164831451Y-90001571D02*
X164831451Y-89934227D01*
X164831451Y-89934227D02*
X164797779Y-89833212D01*
X164797779Y-89833212D02*
X164663092Y-89698525D01*
X164663092Y-89698525D02*
X164562077Y-89664853D01*
X163787626Y-89765869D02*
X164259031Y-89294464D01*
X164494733Y-89058762D02*
X164494733Y-89126105D01*
X164494733Y-89126105D02*
X164427390Y-89126105D01*
X164427390Y-89126105D02*
X164427390Y-89058762D01*
X164427390Y-89058762D02*
X164494733Y-89058762D01*
X164494733Y-89058762D02*
X164427390Y-89126105D01*
X163518253Y-89429151D02*
X163417238Y-89395480D01*
X163417238Y-89395480D02*
X163282551Y-89260793D01*
X163282551Y-89260793D02*
X163248879Y-89159777D01*
X163248879Y-89159777D02*
X163282551Y-89058762D01*
X163282551Y-89058762D02*
X163316222Y-89025090D01*
X163316222Y-89025090D02*
X163417238Y-88991419D01*
X163417238Y-88991419D02*
X163518253Y-89025090D01*
X163518253Y-89025090D02*
X163619268Y-89126106D01*
X163619268Y-89126106D02*
X163720283Y-89159777D01*
X163720283Y-89159777D02*
X163821299Y-89126106D01*
X163821299Y-89126106D02*
X163854970Y-89092434D01*
X163854970Y-89092434D02*
X163888642Y-88991419D01*
X163888642Y-88991419D02*
X163854970Y-88890403D01*
X163854970Y-88890403D02*
X163753955Y-88789388D01*
X163753955Y-88789388D02*
X163652940Y-88755716D01*
X162575444Y-88553686D02*
X162945833Y-88183296D01*
X162945833Y-88183296D02*
X163046848Y-88149625D01*
X163046848Y-88149625D02*
X163147863Y-88183296D01*
X163147863Y-88183296D02*
X163282550Y-88317983D01*
X163282550Y-88317983D02*
X163316222Y-88418999D01*
X162609115Y-88520014D02*
X162642787Y-88621029D01*
X162642787Y-88621029D02*
X162811146Y-88789388D01*
X162811146Y-88789388D02*
X162912161Y-88823060D01*
X162912161Y-88823060D02*
X163013176Y-88789388D01*
X163013176Y-88789388D02*
X163080520Y-88722044D01*
X163080520Y-88722044D02*
X163114192Y-88621029D01*
X163114192Y-88621029D02*
X163080520Y-88520014D01*
X163080520Y-88520014D02*
X162912161Y-88351655D01*
X162912161Y-88351655D02*
X162878489Y-88250640D01*
X162238726Y-88216968D02*
X162945833Y-87509861D01*
X162676459Y-87779235D02*
X162642787Y-87678220D01*
X162642787Y-87678220D02*
X162508100Y-87543533D01*
X162508100Y-87543533D02*
X162407085Y-87509861D01*
X162407085Y-87509861D02*
X162339741Y-87509861D01*
X162339741Y-87509861D02*
X162238726Y-87543533D01*
X162238726Y-87543533D02*
X162036696Y-87745564D01*
X162036696Y-87745564D02*
X162003024Y-87846579D01*
X162003024Y-87846579D02*
X162003024Y-87913922D01*
X162003024Y-87913922D02*
X162036696Y-88014938D01*
X162036696Y-88014938D02*
X162171383Y-88149625D01*
X162171383Y-88149625D02*
X162272398Y-88183296D01*
X161497947Y-87476190D02*
X161598963Y-87509861D01*
X161598963Y-87509861D02*
X161699978Y-87476190D01*
X161699978Y-87476190D02*
X162306069Y-86870098D01*
X160992871Y-86903769D02*
X161026543Y-87004785D01*
X161026543Y-87004785D02*
X161161230Y-87139472D01*
X161161230Y-87139472D02*
X161262245Y-87173143D01*
X161262245Y-87173143D02*
X161363260Y-87139472D01*
X161363260Y-87139472D02*
X161632634Y-86870098D01*
X161632634Y-86870098D02*
X161666306Y-86769082D01*
X161666306Y-86769082D02*
X161632634Y-86668067D01*
X161632634Y-86668067D02*
X161497947Y-86533380D01*
X161497947Y-86533380D02*
X161396932Y-86499708D01*
X161396932Y-86499708D02*
X161295917Y-86533380D01*
X161295917Y-86533380D02*
X161228573Y-86600724D01*
X161228573Y-86600724D02*
X161497947Y-87004785D01*
X159679672Y-85657914D02*
X160252092Y-85556899D01*
X160083733Y-86061975D02*
X160790840Y-85354869D01*
X160790840Y-85354869D02*
X160521466Y-85085495D01*
X160521466Y-85085495D02*
X160420451Y-85051823D01*
X160420451Y-85051823D02*
X160353107Y-85051823D01*
X160353107Y-85051823D02*
X160252092Y-85085495D01*
X160252092Y-85085495D02*
X160151077Y-85186510D01*
X160151077Y-85186510D02*
X160117405Y-85287525D01*
X160117405Y-85287525D02*
X160117405Y-85354869D01*
X160117405Y-85354869D02*
X160151077Y-85455884D01*
X160151077Y-85455884D02*
X160420451Y-85725258D01*
X159443970Y-85422212D02*
X159544985Y-84580418D01*
X159915374Y-84950808D02*
X159073581Y-85051823D01*
X158265458Y-84243701D02*
X158736863Y-83772296D01*
X158972565Y-83536594D02*
X158972565Y-83603937D01*
X158972565Y-83603937D02*
X158905222Y-83603937D01*
X158905222Y-83603937D02*
X158905222Y-83536594D01*
X158905222Y-83536594D02*
X158972565Y-83536594D01*
X158972565Y-83536594D02*
X158905222Y-83603937D01*
X158400146Y-83435579D02*
X157928741Y-83906983D01*
X158332802Y-83502922D02*
X158332802Y-83435579D01*
X158332802Y-83435579D02*
X158299130Y-83334564D01*
X158299130Y-83334564D02*
X158198115Y-83233548D01*
X158198115Y-83233548D02*
X158097100Y-83199877D01*
X158097100Y-83199877D02*
X157996085Y-83233548D01*
X157996085Y-83233548D02*
X157625695Y-83603938D01*
X157861398Y-82896831D02*
X157592024Y-82627457D01*
X157996085Y-82560113D02*
X157389993Y-83166205D01*
X157389993Y-83166205D02*
X157288978Y-83199876D01*
X157288978Y-83199876D02*
X157187963Y-83166205D01*
X157187963Y-83166205D02*
X157120619Y-83098861D01*
X156649214Y-82560113D02*
X156682886Y-82661128D01*
X156682886Y-82661128D02*
X156817573Y-82795815D01*
X156817573Y-82795815D02*
X156918588Y-82829487D01*
X156918588Y-82829487D02*
X157019604Y-82795815D01*
X157019604Y-82795815D02*
X157288978Y-82526441D01*
X157288978Y-82526441D02*
X157322649Y-82425426D01*
X157322649Y-82425426D02*
X157288978Y-82324411D01*
X157288978Y-82324411D02*
X157154291Y-82189724D01*
X157154291Y-82189724D02*
X157053275Y-82156052D01*
X157053275Y-82156052D02*
X156952260Y-82189724D01*
X156952260Y-82189724D02*
X156884917Y-82257067D01*
X156884917Y-82257067D02*
X157154291Y-82661128D01*
X156278825Y-82257067D02*
X156750229Y-81785663D01*
X156615542Y-81920350D02*
X156649214Y-81819334D01*
X156649214Y-81819334D02*
X156649214Y-81751991D01*
X156649214Y-81751991D02*
X156615542Y-81650976D01*
X156615542Y-81650976D02*
X156548199Y-81583632D01*
X156009451Y-81044884D02*
X155538046Y-81516288D01*
X156312496Y-81347929D02*
X155942107Y-81718319D01*
X155942107Y-81718319D02*
X155841092Y-81751990D01*
X155841092Y-81751990D02*
X155740077Y-81718319D01*
X155740077Y-81718319D02*
X155639061Y-81617303D01*
X155639061Y-81617303D02*
X155605390Y-81516288D01*
X155605390Y-81516288D02*
X155605390Y-81448945D01*
X155672733Y-80708166D02*
X154965626Y-81415273D01*
X155639061Y-80741838D02*
X155605390Y-80640823D01*
X155605390Y-80640823D02*
X155470703Y-80506136D01*
X155470703Y-80506136D02*
X155369687Y-80472464D01*
X155369687Y-80472464D02*
X155302344Y-80472464D01*
X155302344Y-80472464D02*
X155201329Y-80506136D01*
X155201329Y-80506136D02*
X154999298Y-80708166D01*
X154999298Y-80708166D02*
X154965626Y-80809181D01*
X154965626Y-80809181D02*
X154965626Y-80876525D01*
X154965626Y-80876525D02*
X154999298Y-80977540D01*
X154999298Y-80977540D02*
X155133985Y-81112227D01*
X155133985Y-81112227D02*
X155235000Y-81145899D01*
X155133985Y-80169418D02*
X154864611Y-79900044D01*
X155268672Y-79832701D02*
X154662580Y-80438792D01*
X154662580Y-80438792D02*
X154561565Y-80472464D01*
X154561565Y-80472464D02*
X154460550Y-80438792D01*
X154460550Y-80438792D02*
X154393206Y-80371449D01*
X154224847Y-80068402D02*
X154157504Y-80068402D01*
X154157504Y-80068402D02*
X154157504Y-80135746D01*
X154157504Y-80135746D02*
X154224847Y-80135746D01*
X154224847Y-80135746D02*
X154224847Y-80068402D01*
X154224847Y-80068402D02*
X154157504Y-80135746D01*
X173257380Y-123387144D02*
X172447857Y-123387144D01*
X172447857Y-123387144D02*
X172352619Y-123339525D01*
X172352619Y-123339525D02*
X172305000Y-123291906D01*
X172305000Y-123291906D02*
X172257380Y-123196668D01*
X172257380Y-123196668D02*
X172257380Y-123006192D01*
X172257380Y-123006192D02*
X172305000Y-122910954D01*
X172305000Y-122910954D02*
X172352619Y-122863335D01*
X172352619Y-122863335D02*
X172447857Y-122815716D01*
X172447857Y-122815716D02*
X173257380Y-122815716D01*
X172305000Y-122387144D02*
X172257380Y-122291906D01*
X172257380Y-122291906D02*
X172257380Y-122101430D01*
X172257380Y-122101430D02*
X172305000Y-122006192D01*
X172305000Y-122006192D02*
X172400238Y-121958573D01*
X172400238Y-121958573D02*
X172447857Y-121958573D01*
X172447857Y-121958573D02*
X172543095Y-122006192D01*
X172543095Y-122006192D02*
X172590714Y-122101430D01*
X172590714Y-122101430D02*
X172590714Y-122244287D01*
X172590714Y-122244287D02*
X172638333Y-122339525D01*
X172638333Y-122339525D02*
X172733571Y-122387144D01*
X172733571Y-122387144D02*
X172781190Y-122387144D01*
X172781190Y-122387144D02*
X172876428Y-122339525D01*
X172876428Y-122339525D02*
X172924047Y-122244287D01*
X172924047Y-122244287D02*
X172924047Y-122101430D01*
X172924047Y-122101430D02*
X172876428Y-122006192D01*
X172305000Y-121149049D02*
X172257380Y-121244287D01*
X172257380Y-121244287D02*
X172257380Y-121434763D01*
X172257380Y-121434763D02*
X172305000Y-121530001D01*
X172305000Y-121530001D02*
X172400238Y-121577620D01*
X172400238Y-121577620D02*
X172781190Y-121577620D01*
X172781190Y-121577620D02*
X172876428Y-121530001D01*
X172876428Y-121530001D02*
X172924047Y-121434763D01*
X172924047Y-121434763D02*
X172924047Y-121244287D01*
X172924047Y-121244287D02*
X172876428Y-121149049D01*
X172876428Y-121149049D02*
X172781190Y-121101430D01*
X172781190Y-121101430D02*
X172685952Y-121101430D01*
X172685952Y-121101430D02*
X172590714Y-121577620D01*
X173257380Y-119625239D02*
X172543095Y-119625239D01*
X172543095Y-119625239D02*
X172400238Y-119672858D01*
X172400238Y-119672858D02*
X172305000Y-119768096D01*
X172305000Y-119768096D02*
X172257380Y-119910953D01*
X172257380Y-119910953D02*
X172257380Y-120006191D01*
X173162142Y-119196667D02*
X173209761Y-119149048D01*
X173209761Y-119149048D02*
X173257380Y-119053810D01*
X173257380Y-119053810D02*
X173257380Y-118815715D01*
X173257380Y-118815715D02*
X173209761Y-118720477D01*
X173209761Y-118720477D02*
X173162142Y-118672858D01*
X173162142Y-118672858D02*
X173066904Y-118625239D01*
X173066904Y-118625239D02*
X172971666Y-118625239D01*
X172971666Y-118625239D02*
X172828809Y-118672858D01*
X172828809Y-118672858D02*
X172257380Y-119244286D01*
X172257380Y-119244286D02*
X172257380Y-118625239D01*
X172924047Y-117577619D02*
X172924047Y-117196667D01*
X173257380Y-117434762D02*
X172400238Y-117434762D01*
X172400238Y-117434762D02*
X172305000Y-117387143D01*
X172305000Y-117387143D02*
X172257380Y-117291905D01*
X172257380Y-117291905D02*
X172257380Y-117196667D01*
X172257380Y-116720476D02*
X172305000Y-116815714D01*
X172305000Y-116815714D02*
X172352619Y-116863333D01*
X172352619Y-116863333D02*
X172447857Y-116910952D01*
X172447857Y-116910952D02*
X172733571Y-116910952D01*
X172733571Y-116910952D02*
X172828809Y-116863333D01*
X172828809Y-116863333D02*
X172876428Y-116815714D01*
X172876428Y-116815714D02*
X172924047Y-116720476D01*
X172924047Y-116720476D02*
X172924047Y-116577619D01*
X172924047Y-116577619D02*
X172876428Y-116482381D01*
X172876428Y-116482381D02*
X172828809Y-116434762D01*
X172828809Y-116434762D02*
X172733571Y-116387143D01*
X172733571Y-116387143D02*
X172447857Y-116387143D01*
X172447857Y-116387143D02*
X172352619Y-116434762D01*
X172352619Y-116434762D02*
X172305000Y-116482381D01*
X172305000Y-116482381D02*
X172257380Y-116577619D01*
X172257380Y-116577619D02*
X172257380Y-116720476D01*
X172305000Y-114815714D02*
X172257380Y-114910952D01*
X172257380Y-114910952D02*
X172257380Y-115101428D01*
X172257380Y-115101428D02*
X172305000Y-115196666D01*
X172305000Y-115196666D02*
X172400238Y-115244285D01*
X172400238Y-115244285D02*
X172781190Y-115244285D01*
X172781190Y-115244285D02*
X172876428Y-115196666D01*
X172876428Y-115196666D02*
X172924047Y-115101428D01*
X172924047Y-115101428D02*
X172924047Y-114910952D01*
X172924047Y-114910952D02*
X172876428Y-114815714D01*
X172876428Y-114815714D02*
X172781190Y-114768095D01*
X172781190Y-114768095D02*
X172685952Y-114768095D01*
X172685952Y-114768095D02*
X172590714Y-115244285D01*
X172924047Y-114339523D02*
X172257380Y-114339523D01*
X172828809Y-114339523D02*
X172876428Y-114291904D01*
X172876428Y-114291904D02*
X172924047Y-114196666D01*
X172924047Y-114196666D02*
X172924047Y-114053809D01*
X172924047Y-114053809D02*
X172876428Y-113958571D01*
X172876428Y-113958571D02*
X172781190Y-113910952D01*
X172781190Y-113910952D02*
X172257380Y-113910952D01*
X172257380Y-113006190D02*
X172781190Y-113006190D01*
X172781190Y-113006190D02*
X172876428Y-113053809D01*
X172876428Y-113053809D02*
X172924047Y-113149047D01*
X172924047Y-113149047D02*
X172924047Y-113339523D01*
X172924047Y-113339523D02*
X172876428Y-113434761D01*
X172305000Y-113006190D02*
X172257380Y-113101428D01*
X172257380Y-113101428D02*
X172257380Y-113339523D01*
X172257380Y-113339523D02*
X172305000Y-113434761D01*
X172305000Y-113434761D02*
X172400238Y-113482380D01*
X172400238Y-113482380D02*
X172495476Y-113482380D01*
X172495476Y-113482380D02*
X172590714Y-113434761D01*
X172590714Y-113434761D02*
X172638333Y-113339523D01*
X172638333Y-113339523D02*
X172638333Y-113101428D01*
X172638333Y-113101428D02*
X172685952Y-113006190D01*
X172257380Y-112529999D02*
X173257380Y-112529999D01*
X172876428Y-112529999D02*
X172924047Y-112434761D01*
X172924047Y-112434761D02*
X172924047Y-112244285D01*
X172924047Y-112244285D02*
X172876428Y-112149047D01*
X172876428Y-112149047D02*
X172828809Y-112101428D01*
X172828809Y-112101428D02*
X172733571Y-112053809D01*
X172733571Y-112053809D02*
X172447857Y-112053809D01*
X172447857Y-112053809D02*
X172352619Y-112101428D01*
X172352619Y-112101428D02*
X172305000Y-112149047D01*
X172305000Y-112149047D02*
X172257380Y-112244285D01*
X172257380Y-112244285D02*
X172257380Y-112434761D01*
X172257380Y-112434761D02*
X172305000Y-112529999D01*
X172257380Y-111482380D02*
X172305000Y-111577618D01*
X172305000Y-111577618D02*
X172400238Y-111625237D01*
X172400238Y-111625237D02*
X173257380Y-111625237D01*
X172305000Y-110720475D02*
X172257380Y-110815713D01*
X172257380Y-110815713D02*
X172257380Y-111006189D01*
X172257380Y-111006189D02*
X172305000Y-111101427D01*
X172305000Y-111101427D02*
X172400238Y-111149046D01*
X172400238Y-111149046D02*
X172781190Y-111149046D01*
X172781190Y-111149046D02*
X172876428Y-111101427D01*
X172876428Y-111101427D02*
X172924047Y-111006189D01*
X172924047Y-111006189D02*
X172924047Y-110815713D01*
X172924047Y-110815713D02*
X172876428Y-110720475D01*
X172876428Y-110720475D02*
X172781190Y-110672856D01*
X172781190Y-110672856D02*
X172685952Y-110672856D01*
X172685952Y-110672856D02*
X172590714Y-111149046D01*
X173257380Y-109006189D02*
X173257380Y-109482379D01*
X173257380Y-109482379D02*
X172781190Y-109529998D01*
X172781190Y-109529998D02*
X172828809Y-109482379D01*
X172828809Y-109482379D02*
X172876428Y-109387141D01*
X172876428Y-109387141D02*
X172876428Y-109149046D01*
X172876428Y-109149046D02*
X172828809Y-109053808D01*
X172828809Y-109053808D02*
X172781190Y-109006189D01*
X172781190Y-109006189D02*
X172685952Y-108958570D01*
X172685952Y-108958570D02*
X172447857Y-108958570D01*
X172447857Y-108958570D02*
X172352619Y-109006189D01*
X172352619Y-109006189D02*
X172305000Y-109053808D01*
X172305000Y-109053808D02*
X172257380Y-109149046D01*
X172257380Y-109149046D02*
X172257380Y-109387141D01*
X172257380Y-109387141D02*
X172305000Y-109482379D01*
X172305000Y-109482379D02*
X172352619Y-109529998D01*
X172924047Y-108625236D02*
X172257380Y-108387141D01*
X172257380Y-108387141D02*
X172924047Y-108149046D01*
X172924047Y-107006188D02*
X171924047Y-107006188D01*
X172876428Y-107006188D02*
X172924047Y-106910950D01*
X172924047Y-106910950D02*
X172924047Y-106720474D01*
X172924047Y-106720474D02*
X172876428Y-106625236D01*
X172876428Y-106625236D02*
X172828809Y-106577617D01*
X172828809Y-106577617D02*
X172733571Y-106529998D01*
X172733571Y-106529998D02*
X172447857Y-106529998D01*
X172447857Y-106529998D02*
X172352619Y-106577617D01*
X172352619Y-106577617D02*
X172305000Y-106625236D01*
X172305000Y-106625236D02*
X172257380Y-106720474D01*
X172257380Y-106720474D02*
X172257380Y-106910950D01*
X172257380Y-106910950D02*
X172305000Y-107006188D01*
X172257380Y-105958569D02*
X172305000Y-106053807D01*
X172305000Y-106053807D02*
X172352619Y-106101426D01*
X172352619Y-106101426D02*
X172447857Y-106149045D01*
X172447857Y-106149045D02*
X172733571Y-106149045D01*
X172733571Y-106149045D02*
X172828809Y-106101426D01*
X172828809Y-106101426D02*
X172876428Y-106053807D01*
X172876428Y-106053807D02*
X172924047Y-105958569D01*
X172924047Y-105958569D02*
X172924047Y-105815712D01*
X172924047Y-105815712D02*
X172876428Y-105720474D01*
X172876428Y-105720474D02*
X172828809Y-105672855D01*
X172828809Y-105672855D02*
X172733571Y-105625236D01*
X172733571Y-105625236D02*
X172447857Y-105625236D01*
X172447857Y-105625236D02*
X172352619Y-105672855D01*
X172352619Y-105672855D02*
X172305000Y-105720474D01*
X172305000Y-105720474D02*
X172257380Y-105815712D01*
X172257380Y-105815712D02*
X172257380Y-105958569D01*
X172924047Y-105291902D02*
X172257380Y-105101426D01*
X172257380Y-105101426D02*
X172733571Y-104910950D01*
X172733571Y-104910950D02*
X172257380Y-104720474D01*
X172257380Y-104720474D02*
X172924047Y-104529998D01*
X172305000Y-103768093D02*
X172257380Y-103863331D01*
X172257380Y-103863331D02*
X172257380Y-104053807D01*
X172257380Y-104053807D02*
X172305000Y-104149045D01*
X172305000Y-104149045D02*
X172400238Y-104196664D01*
X172400238Y-104196664D02*
X172781190Y-104196664D01*
X172781190Y-104196664D02*
X172876428Y-104149045D01*
X172876428Y-104149045D02*
X172924047Y-104053807D01*
X172924047Y-104053807D02*
X172924047Y-103863331D01*
X172924047Y-103863331D02*
X172876428Y-103768093D01*
X172876428Y-103768093D02*
X172781190Y-103720474D01*
X172781190Y-103720474D02*
X172685952Y-103720474D01*
X172685952Y-103720474D02*
X172590714Y-104196664D01*
X172257380Y-103291902D02*
X172924047Y-103291902D01*
X172733571Y-103291902D02*
X172828809Y-103244283D01*
X172828809Y-103244283D02*
X172876428Y-103196664D01*
X172876428Y-103196664D02*
X172924047Y-103101426D01*
X172924047Y-103101426D02*
X172924047Y-103006188D01*
X172352619Y-102672854D02*
X172305000Y-102625235D01*
X172305000Y-102625235D02*
X172257380Y-102672854D01*
X172257380Y-102672854D02*
X172305000Y-102720473D01*
X172305000Y-102720473D02*
X172352619Y-102672854D01*
X172352619Y-102672854D02*
X172257380Y-102672854D01*
D11*
X137683904Y-79887619D02*
X137683904Y-78887619D01*
X137683904Y-78887619D02*
X137112476Y-79887619D01*
X137112476Y-79887619D02*
X137112476Y-78887619D01*
M02*
